<svg width="104" height="35" viewBox="0 0 104 35" fill="none" xmlns="http://www.w3.org/2000/svg">
<g clip-path="url(#clip0_2098_190836)">
<path d="M101.293 0H67.4964C66.0012 0 64.7891 1.20198 64.7891 2.6847V32.3153C64.7891 33.798 66.0012 35 67.4964 35H101.293C102.788 35 104 33.798 104 32.3153V2.6847C104 1.20198 102.788 0 101.293 0Z" fill="#008CFE"/>
<path d="M3.32166 29.4148C2.17174 28.893 1.06452 28.1601 0 27.216L3.83954 22.2273C4.40605 22.6205 4.90731 22.9209 5.34332 23.1286C5.77933 23.3362 6.17292 23.4401 6.5241 23.4401C7.4415 23.4401 7.9002 22.8336 7.9002 21.6206V5.98828H14.9853V22.1111C14.9853 23.7626 14.6484 25.1947 13.9745 26.4073C13.3006 27.62 12.332 28.5551 11.0688 29.2128C9.80559 29.8698 8.31338 30.1983 6.59216 30.1983C5.56146 30.1983 4.4713 29.9372 3.32166 29.4148Z" fill="#008CFE"/>
<path d="M22.2905 28.9185C20.7843 28.0764 19.5979 26.9364 18.7312 25.4985C17.8646 24.0605 17.4314 22.4882 17.4316 20.7814C17.4316 19.0405 17.8648 17.4455 18.7312 15.9964C19.5976 14.5473 20.7897 13.3989 22.3074 12.5512C23.8251 11.7019 25.5128 11.2779 27.3704 11.2793C29.228 11.2807 30.9157 11.7047 32.4334 12.5512C33.9503 13.3994 35.1456 14.5478 36.0193 15.9964C36.893 17.4449 37.3292 19.0399 37.3278 20.7814C37.3278 22.4999 36.8888 24.0779 36.0109 25.5152C35.1329 26.9526 33.9292 28.0897 32.3996 28.9265C30.8706 29.7635 29.1773 30.1827 27.3197 30.1841C25.4733 30.1841 23.7969 29.7622 22.2905 28.9185ZM29.0695 23.578C29.5698 23.3074 29.9851 22.9051 30.2697 22.4155C30.5572 21.9211 30.7008 21.3651 30.7005 20.7474C30.7005 20.1186 30.5562 19.5542 30.2676 19.0542C29.9854 18.5613 29.5706 18.156 29.0695 17.8833C28.5466 17.607 27.9632 17.4624 27.3706 17.4624C26.7781 17.4624 26.1946 17.607 25.6717 17.8833C25.1707 18.156 24.7558 18.5613 24.4736 19.0542C24.185 19.5542 24.0407 20.1186 24.0407 20.7474C24.0407 21.3654 24.185 21.9214 24.4736 22.4155C24.7576 22.9049 25.1722 23.3071 25.6717 23.578C26.1946 23.8544 26.7781 23.9989 27.3706 23.9989C27.9632 23.9989 28.5466 23.8544 29.0695 23.578Z" fill="#008CFE"/>
<path d="M54.8094 12.5432C56.2222 13.3713 57.3933 14.55 58.2071 15.9632C59.0456 17.4011 59.4647 18.9679 59.4644 20.6635C59.4644 22.3711 59.0453 23.9464 58.2071 25.3894C57.3956 26.8062 56.2279 27.9905 54.8178 28.827C53.396 29.6752 51.8471 30.0994 50.1712 30.0994C48.2908 30.0994 46.7333 29.5152 45.4989 28.347L44.7852 29.6613H39.8752V21.0173H39.8579V4.25391H46.4843V12.2736C47.5271 11.6107 48.7561 11.2794 50.1712 11.2796C51.8049 11.271 53.4095 11.7081 54.8094 12.5432ZM51.2413 23.5444C51.7335 23.2811 52.1424 22.8875 52.4225 22.4075C52.7116 21.9187 52.8561 21.3597 52.8558 20.7306C52.8555 20.1015 52.7083 19.5343 52.414 19.029C52.1293 18.5331 51.7119 18.125 51.2079 17.8497C50.6874 17.5671 50.1021 17.4227 49.5088 17.4305C48.9198 17.4244 48.3396 17.5723 47.8266 17.8593C47.327 18.1367 46.9135 18.5442 46.6306 19.0378C46.3417 19.5378 46.1974 20.1022 46.1977 20.731C46.1977 21.3489 46.3448 21.9022 46.639 22.3907C46.9285 22.8743 47.3457 23.2703 47.8456 23.536C48.3675 23.8144 48.9522 23.9565 49.5447 23.949C50.1774 23.949 50.743 23.8141 51.2413 23.5444Z" fill="#008CFE"/>
<path d="M74.88 29.335H67.7949V5.66406H74.88V29.335Z" fill="white"/>
<path d="M79.145 29.335V5.66406H88.3532C90.6751 5.66406 92.8017 6.17789 94.7332 7.20554C96.6647 8.23319 98.191 9.64849 99.3121 11.4514C100.433 13.2541 100.994 15.2617 100.994 17.4744C100.994 19.6982 100.436 21.7143 99.3206 23.5225C98.2051 25.3307 96.6872 26.7516 94.767 27.7851C92.8474 28.8192 90.7265 29.3363 88.4044 29.3363L79.145 29.335ZM88.6593 22.6635C89.6556 22.6635 90.5447 22.4472 91.3265 22.0146C92.0977 21.5929 92.7315 20.9617 93.1533 20.1951C93.589 19.4145 93.807 18.5076 93.8073 17.4744C93.8073 16.4747 93.5893 15.5817 93.1533 14.7956C92.7331 14.0255 92.0992 13.391 91.3265 12.9673C90.5453 12.5352 89.6506 12.3191 88.6424 12.3188H86.2297V22.6635H88.6593Z" fill="white"/>
</g>
<defs>
<clipPath id="clip0_2098_190836">
<rect width="104" height="35" fill="white"/>
</clipPath>
</defs>
</svg>
