<svg xmlns="http://www.w3.org/2000/svg" xmlns:xlink="http://www.w3.org/1999/xlink" width="200" height="44" viewBox="0 0 200 44">
  <defs>
    <clipPath id="clip-Logo-200">
      <rect width="200" height="44"/>
    </clipPath>
  </defs>
  <g id="Logo-200" clip-path="url(#clip-Logo-200)">
    <g id="Group_611" data-name="Group 611" transform="translate(0 0.061)">
      <g id="Group_1" data-name="Group 1" transform="translate(0 0)">
        <path id="Path_1" data-name="Path 1" d="M224,309.934v-4.493a6.029,6.029,0,0,1,6.127-5.146c5.555-.163,32.267,0,32.267,0s5.392.163,5.392,6.862v23.527H243.851s-1.307-.49-.572-1.47,10.13-15.194,10.13-15.194a3.078,3.078,0,0,0,0-3.594c-1.307-.572-1.144-.49-3.594-.49Z" transform="translate(-224 -300.222)" fill="#00984b"/>
        <ellipse id="Ellipse_1" data-name="Ellipse 1" cx="0.82" cy="0.82" rx="0.82" ry="0.82" transform="translate(19.053 28.825)" fill="#00984b"/>
      </g>
      <g id="Group_3" data-name="Group 3" transform="translate(0 13.03)">
        <g id="Group_2" data-name="Group 2" transform="translate(0 0)">
          <path id="Path_2" data-name="Path 2" d="M0,9.8V5.268A6.057,6.057,0,0,1,6.127.073c5.555-.165,32.267,0,32.267,0S43.786.238,43.786,7V30.747H19.851s-1.307-.495-.572-1.484,10.13-15.337,10.13-15.337a3.129,3.129,0,0,0,0-3.628C28.1,9.721,28.265,9.8,25.814,9.8Z" transform="translate(43.786 30.747) rotate(-180)" fill="#14323e"/>
          <path id="Path_3" data-name="Path 3" d="M1608.4,1234.852a1.981,1.981,0,0,0,2.063,2.124c2.2.062,1.674.582,1.674.582l-3.186.194-.7-1.838v-1.164Z" transform="translate(-1594.598 -1216.063)" fill="#14323e"/>
        </g>
        <ellipse id="Ellipse_2" data-name="Ellipse 2" cx="0.912" cy="0.912" rx="0.912" ry="0.912" transform="translate(22.882 0.025)" fill="#14323e"/>
      </g>
      <path id="Path_4" data-name="Path 4" d="M1919.213,685.468s1.256-1.593.827-2.921-.96-1.593-2.685-1.664-.746-.633-.694-.633,3.278.5,3.278.5l1.419,2.594Z" transform="translate(-1890.101 -671.181)" fill="#00984b"/>
    </g>
    <g id="Group_612" data-name="Group 612" transform="translate(46.227 -12.782)">
      <text id="zarttech" transform="translate(-0.227 35.782)" fill="#14323e" font-size="31" font-family="Poppins-Medium, Poppins" font-weight="500"><tspan x="0" y="0">zarttech</tspan></text>
      <text id="BRIDGING_THE_GAP" data-name="BRIDGING THE GAP" transform="translate(0 49.304)" fill="#14323e" font-size="10" font-family="BankGothic-Regular, BankGothic" letter-spacing="0.074em"><tspan x="0" y="0">BRIDGING THE GAP</tspan></text>
    </g>
  </g>
</svg>
