<svg width="180" height="40" viewBox="0 0 180 40" fill="none" xmlns="http://www.w3.org/2000/svg">
<g clip-path="url(#clip0_8182_15442)">
<path d="M17.9486 15.0972C12.2921 15.0972 6.63559 15.1089 0.97907 15.0856C0.283065 15.0856 -0.0236497 15.2023 0.00584204 15.9847C0.0589272 17.4385 0.00584199 17.4677 1.52172 17.5494C6.9718 17.8472 12.4278 18.1158 17.8778 18.4194C23.44 18.7288 29.0021 19.0675 34.5643 19.3944C35.8383 19.4703 35.8383 19.4587 35.8324 18.1858C35.8324 17.4385 35.7911 16.6853 35.8442 15.9438C35.8914 15.2899 35.6791 15.0797 35.0008 15.0856C32.1755 15.1206 29.3442 15.1031 26.513 15.1031C23.6582 15.1031 20.7975 15.1031 17.9427 15.1031L17.9486 15.0972Z" fill="white"/>
<path d="M3.68013 5.41113C4.66515 5.90741 5.62659 6.39785 6.58802 6.87077C10.4514 8.76247 14.5567 9.54484 18.8507 9.37552C23.2332 9.20036 27.3148 7.99178 31.0721 5.74393C31.6442 5.39946 31.9981 5.43449 32.3166 6.07673C32.6115 6.66642 32.9772 7.2386 33.396 7.74656C33.8443 8.28954 33.7381 8.63986 33.1424 8.89675C31.1605 9.77254 29.2259 10.8001 27.1733 11.4599C24.2359 12.4057 21.1805 12.8436 18.0721 12.6685C12.5984 12.359 7.55535 10.7534 3.00772 7.67649C2.59483 7.39624 2.41788 7.12183 2.77178 6.67226C3.0785 6.28692 3.34982 5.86654 3.66833 5.41697L3.68013 5.41113Z" fill="white"/>
<path d="M34.0098 31.4278C33.4022 32.3736 32.8478 33.2903 32.2108 34.1544C32.1105 34.2887 31.5973 34.277 31.3791 34.1544C29.3206 32.9458 27.1559 31.9883 24.8496 31.3811C20.9036 30.3477 16.9281 30.155 12.8878 30.9665C9.86192 31.5737 7.03661 32.6189 4.41774 34.2186C3.95767 34.4989 3.73353 34.3704 3.4799 33.9792C2.55976 32.5605 2.56566 32.5838 3.97536 31.6788C10.2984 27.6327 17.2113 26.4825 24.5429 27.6969C27.9109 28.2574 31.0901 29.4602 34.0039 31.4219L34.0098 31.4278Z" fill="white"/>
<path d="M24.6606 39.9989C23.6579 38.6385 22.549 37.5642 21.0096 36.957C17.6593 35.6317 13.9256 36.5191 11.7904 39.2341C11.3245 39.8296 10.9706 40.0748 10.3512 39.4968C10.192 39.3509 9.97375 39.2574 9.76141 39.1874C9.21286 38.9889 9.28365 38.6327 9.52548 38.2707C11.0944 35.9061 13.2296 34.3238 16.0667 33.7458C20.0776 32.9226 23.3689 34.1954 26.0763 37.138C26.1352 37.1964 26.1942 37.2606 26.2414 37.3249C27.2146 38.5451 27.1969 38.6094 25.8108 39.3509C25.4451 39.5435 25.0912 39.7595 24.6606 40.0048V39.9989Z" fill="white"/>
<path d="M9.0782 1.02039C9.60316 0.681749 10.0632 0.308081 10.5882 0.0978925C10.8005 0.0161526 11.2606 0.232179 11.4375 0.442368C13.207 2.55593 15.4425 3.70029 18.2324 3.53097C20.6095 3.385 22.5736 2.3399 24.0069 0.442368C24.4198 -0.100619 24.7501 -0.129812 25.2338 0.255534C25.4048 0.395659 25.5877 0.535785 25.7882 0.617525C27.2156 1.18387 26.8617 1.49915 26.1952 2.34574C21.5296 8.25437 12.629 7.48951 9.06641 1.02039H9.0782Z" fill="white"/>
<path d="M17.9019 24.9059C23.5584 24.9059 29.2149 24.8942 34.8714 24.9176C35.5674 24.9176 35.8742 24.8008 35.8447 24.0185C35.7916 22.5647 35.8447 22.5355 34.3288 22.4537C28.8787 22.156 23.4227 21.8874 17.9727 21.5838C12.4105 21.2743 6.84838 20.9357 1.28623 20.6087C0.0121857 20.5328 0.0121857 20.5445 0.018084 21.8173C0.018084 22.5647 0.0593725 23.3178 0.00628731 24.0593C-0.0408995 24.7132 0.171441 24.9234 0.849752 24.9176C3.67506 24.8826 6.50627 24.9001 9.33748 24.9001C12.1923 24.9001 15.053 24.9001 17.9078 24.9001L17.9019 24.9059Z" fill="white"/>
<path d="M41.3516 26.9734L51.8683 14.7241H41.8352V10.7539H57.7372V14.3563L47.3738 26.6056H57.7785V30.5758H41.3575V26.9734H41.3516Z" fill="white"/>
<path d="M76.8398 17.3397V30.5816H72.6402V28.3746C71.1538 30.1378 69.1129 31.0253 66.6946 31.0253C62.2355 31.0253 59.4102 28.5264 59.4102 25.14C59.4102 22.1974 61.7518 20.2473 65.7981 19.3657L72.3747 17.9703V17.3455C72.3747 15.5064 70.853 14.292 68.6234 14.292C66.3938 14.292 64.76 15.4714 64.0168 17.3455L60.1533 15.4305C61.3035 12.412 64.6479 10.3159 68.6234 10.3159C73.4895 10.3159 76.8339 13.2235 76.8339 17.3397H76.8398ZM72.3806 22.6003V21.3158L66.6946 22.5652C65.0254 22.9331 64.0581 23.8906 64.0581 25.105C64.0581 26.6113 65.2849 27.5338 67.2137 27.5338C70.1864 27.5338 72.3806 25.4028 72.3806 22.6061V22.6003Z" fill="white"/>
<path d="M91.8844 10.5327V14.5029H89.472C86.7234 14.5029 84.8654 16.2662 84.8654 19.3548V30.5707H80.4062V10.7546H84.6059V13.5104C85.644 11.3384 87.5786 10.5327 90.0324 10.5327H91.8903H91.8844Z" fill="white"/>
<path d="M95.3073 23.7154V14.5196H91.668V10.5494H92.2637C94.1984 10.5494 95.3131 9.48094 95.3131 7.57173V4.40723H99.7723V10.5494H104.526V14.5196H99.7723V23.7154C99.7723 25.4085 100.48 26.9908 103.3 26.9908C103.671 26.9908 104.155 26.9558 104.638 26.8799V30.4122C103.931 30.5231 103.04 30.5932 102.338 30.5932C97.8435 30.5932 95.3131 28.0943 95.3131 23.7154H95.3073Z" fill="white"/>
<path d="M108.139 23.7154V14.5196H104.5V10.5494H105.096C107.03 10.5494 108.145 9.48094 108.145 7.57173V4.40723H112.604V10.5494H117.358V14.5196H112.604V23.7154C112.604 25.4085 113.312 26.9908 116.132 26.9908C116.503 26.9908 116.987 26.9558 117.47 26.8799V30.4122C116.763 30.5231 115.872 30.5932 115.17 30.5932C110.676 30.5932 108.145 28.0943 108.145 23.7154H108.139Z" fill="white"/>
<path d="M138.569 21.9347H123.859C124.083 25.0992 126.425 27.1193 129.504 27.1193C131.881 27.1193 133.479 25.9808 134.37 24.3635L138.05 26.1267C136.823 28.9585 133.556 31.0195 129.468 31.0195C123.411 31.0195 119.211 26.4595 119.211 20.6502C119.211 14.8408 123.481 10.3159 129.132 10.3159C134.783 10.3159 138.793 14.6948 138.793 19.9495C138.793 20.6502 138.717 21.345 138.569 21.9347ZM133.998 18.5133C133.851 15.8626 131.692 13.9884 129.132 13.9884C126.572 13.9884 124.449 15.6057 123.93 18.5133H133.998Z" fill="white"/>
<path d="M140.504 20.6502C140.504 14.7299 144.886 10.3159 150.797 10.3159C155.032 10.3159 158.523 12.6689 159.75 16.0144L155.887 17.9294C155.108 15.7983 153.209 14.3971 150.797 14.3971C147.529 14.3971 145.152 17.0069 145.152 20.6852C145.152 24.3635 147.529 26.9383 150.797 26.9383C153.25 26.9383 155.108 25.5779 155.887 23.406L159.75 25.3561C158.559 28.5906 155.067 31.0195 150.797 31.0195C144.928 31.0195 140.504 26.5705 140.504 20.6502Z" fill="white"/>
<path d="M180.002 17.708V30.582H175.543V18.8115C175.543 16.1257 173.832 14.3975 171.308 14.3975C168.783 14.3975 167.037 16.1257 167.037 18.8115V30.582H162.578V3.18164H167.037V12.7043C168.187 11.1571 170.158 10.3164 172.464 10.3164C176.923 10.3164 180.008 13.3349 180.008 17.708H180.002Z" fill="white"/>
</g>
<defs>
<clipPath id="clip0_8182_15442">
<rect width="180" height="40" fill="white" transform="translate(0 -0.000488281)"/>
</clipPath>
</defs>
</svg>
