<svg width="63" height="163" viewBox="0 0 63 163" fill="none" xmlns="http://www.w3.org/2000/svg">
<path d="M17.4795 22.8185C15.7345 25.6349 10.912 40.4634 9.53418 44.7547C9.3187 45.4285 9.07895 46.0901 8.82098 46.7486C7.33692 50.5089 1.86804 66.4026 9.28836 79.8654L22.0046 28.6V21.7229C22.0046 21.7229 19.5281 19.5257 17.4795 22.8185Z" fill="#4FB278"/>
<path d="M37.0242 51.5347L13.9165 58.26C13.9165 58.26 -3.33687 96.9973 10.1563 154.011L3.08496 161.255H25.5068L26.5204 104.927C26.5204 104.927 45.1182 63.4314 37.0242 51.5347Z" fill="#14323E"/>
<path d="M38.842 51.5347L19.9802 58.26C19.9802 58.26 8.24124 102.548 29.9953 154.011L22.1046 161.267H46.9361L42.0803 105.689C41.8938 103.568 41.9151 101.433 42.144 99.316C43.4794 86.9518 46.2988 61.4921 38.842 51.5347Z" fill="#14323E"/>
<path d="M22.8208 9.53491C22.6873 10.9522 21.5097 11.9992 20.1896 11.8718C18.8694 11.7443 18.0257 9.32247 18.1592 7.90518C18.2928 6.48788 19.3732 6.62142 20.6782 6.74585C21.9832 6.87028 22.9543 8.12065 22.8208 9.53491Z" fill="#14323E"/>
<path d="M32.66 4.95835C30.839 2.07823 27.6038 0.685219 24.6752 1.2315C23.8387 1.39027 22.9735 1.20301 22.2776 0.712533C21.727 0.321477 21.0834 0.081825 20.4111 0.0175422C18.1168 -0.20097 16.0652 1.64728 15.8284 4.145C15.6069 6.50007 17.0788 8.59111 19.1668 9.00082C19.3011 10.3236 19.7451 11.5962 20.4627 12.7155C22.8087 16.4029 27.443 17.6563 30.8087 15.5137C34.1744 13.3711 35.0059 8.64574 32.66 4.95835Z" fill="#14323E"/>
<path d="M23.6555 5.13749C18.8664 4.834 19.2822 9.11016 19.2822 9.11016C19.4093 10.4956 19.3614 11.8915 19.1395 13.2649C18.6388 16.0813 19.5462 18.054 21.9498 18.7763C24.8816 19.6534 27.7404 18.5578 28.8482 15.3681C28.9756 15.0009 29.1031 14.6337 29.2488 14.2695C30.0105 12.3423 32.0227 5.68681 23.6555 5.13749Z" fill="white"/>
<path d="M31.8496 8.6247C29.9104 4.51849 19.009 2.81592 19.009 2.81592L19.1699 9.00103C19.1699 9.00103 24.5689 9.28024 27.0029 7.42896C27.0786 7.3657 27.1822 7.34756 27.2748 7.38135C27.3674 7.41515 27.435 7.49575 27.4521 7.59284C27.6038 8.43047 28.0075 10.1391 28.8876 11.1649C28.9851 11.2831 29.0085 11.4459 28.9483 11.5868L28.49 12.6915C28.44 12.8152 28.4624 12.9565 28.5481 13.0588C28.6339 13.1611 28.7691 13.2078 28.8997 13.1801L29.968 12.9494C29.968 12.9494 33.7889 12.7339 31.8496 8.6247Z" fill="#14323E"/>
<path d="M24.7479 9.23136C25.3589 9.05543 26.0148 9.13196 26.5689 9.4438" stroke="#14323E" stroke-width="2" stroke-linecap="round"/>
<path d="M22.6965 9.91107C22.9152 10.3329 22.9949 10.813 22.9241 11.2828C22.8729 11.5129 22.7997 11.7375 22.7056 11.9536C22.6183 12.1713 22.5169 12.3832 22.4022 12.5878C22.3468 12.6961 22.2796 12.7979 22.2018 12.8913C22.1358 12.9604 22.0824 13.0405 22.044 13.1281C21.9924 13.2737 22.0865 13.4316 22.2292 13.5681C22.3693 13.7126 22.5452 13.8173 22.739 13.8716C22.9411 13.9325 23.159 13.9118 23.346 13.8139C23.3519 13.8082 23.3613 13.8082 23.3672 13.8139C23.2014 14.0084 22.9509 14.1093 22.6965 14.0841C22.4362 14.0648 22.1901 13.9578 21.9985 13.7806C21.9052 13.6888 21.8327 13.5781 21.7861 13.4558C21.7284 13.3138 21.7284 13.1548 21.7861 13.0127C21.8475 12.8948 21.9334 12.7913 22.038 12.7092C22.1229 12.641 22.203 12.567 22.2777 12.4877C22.432 12.3256 22.5472 12.1305 22.6146 11.9171C22.6653 11.7005 22.6848 11.4777 22.6723 11.2555C22.6905 10.8155 22.6723 10.3784 22.6723 9.91714C22.6721 9.90815 22.6786 9.90042 22.6874 9.89893C22.6924 9.90106 22.6959 9.90568 22.6965 9.91107Z" fill="#14323E"/>
<ellipse rx="0.418816" ry="0.373291" transform="matrix(0.196116 -0.980581 0.98058 0.196118 21.028 11.3637)" fill="#14323E"/>
<path d="M22.059 9.3858C21.5684 9.21008 21.0281 9.23627 20.5568 9.45864" stroke="#14323E" stroke-width="2" stroke-linecap="round"/>
<ellipse rx="0.443091" ry="0.394527" transform="matrix(0.196114 -0.980581 0.98058 0.196121 25.3492 11.5887)" fill="#14323E"/>
<path d="M22.0621 13.2559C22.0621 13.2559 22.141 13.5593 22.7632 13.4713C23.3155 13.3833 23.5583 13.7505 23.3003 13.9023C22.9796 14.0738 22.5893 14.0492 22.2927 13.8386C22.1649 13.7216 22.0617 13.5802 21.9893 13.4228" fill="#14323E"/>
<path d="M25.1395 14.6701C25.0969 14.7984 25.0344 14.9193 24.9543 15.0282C24.8451 15.0707 24.7389 15.1162 24.6296 15.1496C24.41 15.2194 24.1828 15.2622 23.9528 15.2771C23.7238 15.2927 23.4937 15.2825 23.2669 15.2467C23.1544 15.2286 23.043 15.2042 22.9331 15.1739C22.839 15.0784 22.7574 14.9713 22.6903 14.8552L23.0515 14.7338C23.1455 14.7611 23.2427 14.7793 23.3398 14.7975C23.5324 14.8284 23.728 14.8365 23.9225 14.8218C24.1162 14.8094 24.3078 14.7737 24.493 14.7156C24.5853 14.686 24.6755 14.6505 24.7631 14.6094C24.8785 14.6367 24.9999 14.6488 25.1395 14.6701Z" fill="#14323E"/>
<path d="M31.3733 12.8735C31.5736 13.4805 31.0849 14.9251 28.8664 14.57V14.5305C28.6967 13.8186 28.9014 13.0693 29.4097 12.5427C30.1927 11.7566 31.1123 12.0541 31.3733 12.8735Z" fill="white"/>
<path d="M28.8663 14.57C31.0848 14.9251 31.5734 13.4926 31.3731 12.8735C31.0696 11.8963 29.8132 11.6595 28.9634 13.1193" stroke="#14323E" stroke-linecap="round"/>
<path d="M30.5872 13.1036C30.4584 13.0662 30.3215 13.0662 30.1927 13.1036C30.0743 13.134 29.9529 13.1947 29.783 13.2402C29.8047 13.1569 29.8476 13.0806 29.9074 13.0187C29.9694 12.9554 30.0468 12.9094 30.132 12.8851C30.2213 12.8534 30.3188 12.8534 30.4081 12.8851C30.5002 12.924 30.5671 13.0058 30.5872 13.1036Z" fill="#1E2454"/>
<path d="M43.0758 57.4619C43.2882 39.8596 37.7435 21.1859 30.3293 18.6973C27.3581 21.7079 23.6525 22.9218 21.7253 21.5683C16.8695 26.7276 13.2883 41.5804 12.5509 54.078C12.4337 55.6821 11.994 57.2459 11.258 58.6759C10.9849 59.2222 9.29745 61.7502 9.28835 62.339C9.23979 66.5666 13.8225 68.078 22.7147 68.1842C31.6069 68.2904 42.9847 65.0036 43.0485 60.776C43.0485 60.7093 43.0485 60.6455 43.0485 60.5788C43.0303 60.2753 43.0181 59.9718 43.0303 59.6683C43.0505 58.9278 43.0657 58.1923 43.0758 57.4619Z" fill="#4FB278"/>
<path d="M25.1759 23.8353C25.8345 23.4802 26.8087 22.7184 26.5659 21.3892C25.2124 21.9961 23.9104 22.2389 22.8543 22.0204L22.6661 22.1084C22.6176 22.7757 22.9029 23.4236 23.4278 23.8383C23.7067 24.0682 23.8571 24.4187 23.8315 24.7791C23.6373 28.1812 23.267 43.6501 32.1744 46.6668L34.6721 47.2343C35.0918 47.3293 35.5318 47.2265 35.8658 46.9553C36.1997 46.684 36.3907 46.2745 36.3838 45.8443L36.3292 42.8883C36.3242 42.5626 36.205 42.2489 35.9923 42.0021C34.2564 39.9809 26.141 30.3208 24.7632 24.8004C24.6607 24.4219 24.8315 24.0226 25.1759 23.8353Z" fill="#14323E"/>
<path d="M25.103 25.8994C24.9672 25.5368 24.8517 25.167 24.7571 24.7916C24.7267 24.6608 24.7267 24.5248 24.7571 24.394L23.8466 24.8098C23.8254 25.2195 23.8011 25.7962 23.7889 26.5003L25.103 25.8994Z" fill="#4F656E"/>
<path d="M26.6417 29.1555C26.3868 28.7003 26.1501 28.2521 25.9315 27.811L23.7859 28.7761C23.8011 29.2921 23.8253 29.8383 23.8618 30.4059L26.6417 29.1555Z" fill="#4F656E"/>
<path d="M28.5356 32.2449C28.2503 31.814 27.9731 31.384 27.704 30.9551L24.0621 32.5909C24.1228 33.1068 24.1926 33.6319 24.2776 34.1599L28.5356 32.2449Z" fill="#4F656E"/>
<path d="M30.6296 35.2433C30.3261 34.8386 30.0226 34.4198 29.7191 33.9868L24.6691 36.2539C24.7844 36.7536 24.9129 37.2514 25.0545 37.7471L30.6296 35.2433Z" fill="#4F656E"/>
<path d="M32.8603 38.1815C32.5568 37.7869 32.229 37.3742 31.9013 36.9463L25.7313 39.7232C25.9195 40.1966 26.1228 40.661 26.3383 41.1101L32.8603 38.1815Z" fill="#4F656E"/>
<path d="M35.2002 41.0733C34.8968 40.7273 34.572 40.3176 34.1987 39.8594L27.3915 42.9185C27.6878 43.3444 28.0122 43.7499 28.3626 44.1325L35.2002 41.0733Z" fill="#4F656E"/>
<path d="M31.8011 46.5362L36.3534 44.4907L36.323 42.8913C36.323 42.8731 36.323 42.8579 36.323 42.8428L30.0955 45.6258C30.6288 45.991 31.2008 46.2963 31.8011 46.5362Z" fill="#4F656E"/>
<path d="M38.4536 29.2559C35.5492 33.2164 36.5689 39.7718 41.0848 44.6519C41.5105 45.1086 41.9603 45.5422 42.4323 45.9508C41.6766 39.7748 40.2988 33.9478 38.4536 29.2559Z" fill="#14984B"/>
<path d="M43.0817 56.9491C41.8744 56.3648 40.6353 55.8491 39.37 55.4043C29.7312 52.0083 20.5324 53.1858 18.8207 58.0386C18.32 59.465 18.5173 61.0492 19.3003 62.6638C21.0726 66.336 25.5036 69.8473 29.54 69.2646C36.678 68.2358 42.9997 64.0082 43.0392 60.767C43.0392 60.7002 43.0392 60.6334 43.0392 60.5697C43.021 60.2662 43.0088 59.9627 43.021 59.644C43.0513 58.7548 43.0756 57.8565 43.0817 56.9491Z" fill="#14323E"/>
<path d="M20.9606 61.814C20.9606 61.814 20.9059 47.4226 19.4037 44.591C17.9014 41.7595 23.1123 41.2526 26.3536 42.7701C28.1745 43.6138 32.7905 41.9415 32.6085 45.1555C32.3444 49.7807 35.9256 64.4362 32.305 64.7518C27.7526 65.1494 26.9605 65.2799 24.3232 64.9309C20.6722 64.4422 20.9939 64.1752 20.9606 61.814Z" fill="white"/>
<path d="M27.4521 43.001C28.5882 44.7017 30.2452 45.9881 32.1744 46.6671L32.6297 46.7703C32.5916 46.2279 32.5845 45.6838 32.6084 45.1406C32.7602 42.4577 29.5675 43.177 27.4521 43.001Z" fill="#4FB278"/>
<path d="M29.1729 19.7445C29.1729 19.7445 31.6949 15.5169 38.5355 20.397C45.3762 25.2771 80.417 60.2542 49.3276 62.582C18.2382 64.9097 18.4476 62.2785 18.4476 58.9553C18.4476 55.6321 16.8725 55.1951 18.4476 54.3301C20.0227 53.4652 22.7511 53.8961 22.7511 53.8961C22.7511 53.8961 21.2336 49.972 26.1957 51.535C31.4035 53.1738 47.4581 47.3923 47.4581 47.3923C47.4581 47.3923 32.0652 33.5775 29.5523 29.9023C25.6797 24.2634 29.1729 19.7445 29.1729 19.7445Z" fill="#4FB278"/>
<path d="M29.537 57.726C29.5408 55.7812 29.3537 53.8407 28.9786 51.9324C28.0347 51.9208 27.0962 51.7872 26.1865 51.5349C23.1304 50.5728 22.5295 51.6896 22.5234 52.6881C22.5234 52.984 22.4045 53.2675 22.1932 53.4747C21.982 53.6819 21.6963 53.7955 21.4005 53.7898C20.49 53.7716 19.9862 52.9946 19.1304 53.465C17.5522 54.33 18.4263 55.6289 18.4384 58.9552C18.4384 61.2829 18.3534 63.2586 28.9938 63.4346C29.3592 61.5538 29.5411 59.642 29.537 57.726Z" fill="white"/>
<path d="M28.9939 63.4347C29.3593 61.5539 29.5412 59.642 29.5371 57.7261" stroke="#14323E" stroke-linecap="round"/>
<path d="M43.9104 62.9433C25.4279 64.1057 20.3626 63.1406 18.9696 61.3409C18.7235 61.0146 18.5638 60.6315 18.5052 60.2271" stroke="#14323E" stroke-linecap="round"/>
<path d="M14.5235 39.5562C13.5141 44.3361 12.8568 49.1837 12.5569 54.0599M12.5569 54.066C12.4395 55.6746 11.9976 57.2427 11.2579 58.676C10.9848 59.2222 9.29739 61.7503 9.28829 62.3391C9.23973 66.5667 14.6874 68.9885 24.9969 68.1843M26.3535 42.7549C28.1744 43.5986 32.7905 41.9264 32.6084 45.1404C32.4809 47.3528 33.2336 51.8566 33.6585 55.9901M26.1866 51.5349C31.3944 53.1737 47.449 47.3922 47.449 47.3922" stroke="#14323E" stroke-linecap="round"/>
<path d="M20.7117 53.638C20.1512 53.2567 19.4147 53.2567 18.8543 53.638C17.8892 54.2935 17.8164 55.4134 19.3702 55.99" stroke="#14323E" stroke-linecap="round"/>
<path d="M18.1897 55.6411C18.1897 55.6411 17.9439 56.8915 18.4932 57.4438C19.0425 57.9962 19.3248 57.9507 19.3248 57.9507" stroke="#14323E" stroke-linecap="round"/>
<path d="M18.2897 57.3013C18.2897 57.3013 18.0439 58.5516 18.5932 59.107C19.1425 59.6624 19.4217 59.6139 19.4217 59.6139" stroke="#14323E" stroke-linecap="round"/>
<path fill-rule="evenodd" clip-rule="evenodd" d="M32.3869 71.2883C32.3871 71.2886 32.3872 71.2889 32.3873 71.2892L31.877 71.5287C32.3873 71.2892 32.3873 71.289 32.3872 71.2888L32.3873 71.2892L32.3892 71.293L32.401 71.3169C32.4123 71.3393 32.4303 71.3745 32.4554 71.4212C32.5057 71.5146 32.5842 71.654 32.6933 71.8297C32.9116 72.1812 33.2516 72.6767 33.732 73.2387C34.6925 74.3626 36.2108 75.7485 38.4365 76.7839C38.7188 76.9153 38.8412 77.2506 38.7098 77.5329C38.5785 77.8151 38.2432 77.9375 37.9609 77.8062C35.5614 76.6899 33.9188 75.1926 32.8749 73.9713C32.3529 73.3606 31.9798 72.818 31.7355 72.4245C31.6132 72.2277 31.5231 72.0679 31.4625 71.9553C31.4322 71.8989 31.4092 71.8544 31.3934 71.8228L31.3749 71.7853L31.3695 71.7742L31.3678 71.7705L31.3672 71.7692L31.3669 71.7687C31.3668 71.7685 31.3667 71.7682 31.877 71.5287L31.3667 71.7682C31.2344 71.4864 31.3556 71.1507 31.6375 71.0184C31.919 70.8862 32.2543 71.0071 32.3869 71.2883ZM18.2868 110.97C18.5953 110.928 18.8794 111.144 18.9213 111.453C20.8966 126 24.7915 140.22 30.5039 153.744C30.5474 153.824 30.5697 153.913 30.5712 154.001C30.5763 154.188 30.4881 154.368 30.3329 154.478L22.4859 161.683C22.2566 161.893 21.9 161.878 21.6894 161.649C21.4788 161.419 21.494 161.063 21.7234 160.852L29.332 153.866C23.6535 140.346 19.7774 126.137 17.804 111.604C17.7621 111.296 17.9783 111.012 18.2868 110.97Z" fill="white"/>
<path d="M1 161.267H61.5947" stroke="#14323E" stroke-width="2" stroke-linecap="round"/>
</svg>
