<svg width="174" height="142" viewBox="0 0 174 142" fill="none" xmlns="http://www.w3.org/2000/svg">
<path d="M143.484 2.28872C120.42 2.65196 25.3952 2.84953 1.62703 2.54742C0.215719 2.5297 0.10852 0.124356 1.56944 0.124356C26.0703 0.154478 110.768 -0.312416 143.438 0.390139C145.01 0.422033 144.583 2.271 143.484 2.28872Z" fill="#14323E"/>
<path d="M115.182 71.3678C113.591 72.0547 111.9 72.4833 110.174 72.6374C110.34 74.6662 110.318 76.706 110.108 78.7309C110.086 78.8402 110.025 78.9379 109.937 79.0067C109.849 79.0755 109.74 79.1111 109.628 79.1071C109.517 79.103 109.41 79.0597 109.327 78.9847C109.245 78.9097 109.191 78.8079 109.176 78.6972C109.011 77.3125 109.398 75.8126 109.119 72.7056C107.047 72.7614 106.076 72.1191 104.255 71.8719C99.7277 71.2536 95.3762 69.7096 91.4717 67.3358C91.3557 67.247 91.2794 67.1159 91.2593 66.9711C91.2392 66.8264 91.277 66.6795 91.3645 66.5624C95.3705 61.6703 98.4511 56.0888 100.455 50.0918C100.692 49.414 101.476 48.5033 101.479 49.6701C101.489 52.661 101.14 55.6502 101.14 58.6456C101.14 64.0818 101.284 69.8971 106.581 71.2632C109.829 72.0987 112.851 71.0391 114.862 70.5022C115.339 70.3702 115.693 71.1206 115.182 71.3678Z" fill="#14323E"/>
<path d="M107.515 59.736C107.051 60.6353 108.633 60.529 109.582 60.5741C109.702 60.5841 109.814 60.6362 109.899 60.7212C109.984 60.8061 110.037 60.9185 110.047 61.0382C110.057 61.158 110.024 61.2775 109.954 61.3755C109.885 61.4735 109.783 61.5436 109.666 61.5735C109.039 61.6579 108.401 61.6218 107.787 61.4672C106.69 61.2395 105.853 60.8355 106.45 59.6067C106.836 58.7773 107.275 57.9732 107.763 57.1996C107.823 57.1059 107.915 57.0372 108.022 57.0063C108.129 56.9754 108.243 56.9845 108.344 57.0318C108.445 57.079 108.525 57.1614 108.569 57.2633C108.613 57.3653 108.619 57.4799 108.585 57.5858C108.284 58.3286 107.926 59.0474 107.515 59.736Z" fill="#14323E"/>
<path d="M113.527 56.273C113.537 56.8418 113.58 57.7038 112.742 57.726C112.066 57.7446 111.877 57.1474 111.88 56.3492C111.884 54.9113 113.492 54.5109 113.527 56.273Z" fill="#14323E"/>
<path d="M105.623 56.2367C105.609 56.7806 105.378 57.2936 104.749 57.2679C104.225 57.2466 104.036 56.5379 104.051 56.071C104.073 55.3817 104.29 55.03 104.726 54.9343C105.395 54.7872 105.642 55.5545 105.623 56.2367Z" fill="#14323E"/>
<path d="M105.016 52.1791C104.665 52.1385 104.31 52.1968 103.99 52.3474C103.67 52.498 103.399 52.7349 103.207 53.0313C102.721 53.749 102.202 53.1598 102.387 52.7346C102.623 52.2175 103.019 51.79 103.517 51.5148C104.014 51.2395 104.587 51.1311 105.151 51.2054C105.277 51.2268 105.389 51.2965 105.465 51.3995C105.54 51.5026 105.573 51.631 105.555 51.7575C105.538 51.8841 105.472 51.9988 105.371 52.0775C105.27 52.1562 105.143 52.1926 105.016 52.1791Z" fill="#14323E"/>
<path d="M112.233 52.0567C112.122 52.056 112.016 52.016 111.932 51.9438C111.848 51.8716 111.793 51.7719 111.775 51.6625C111.758 51.5532 111.781 51.4414 111.839 51.3471C111.897 51.2528 111.986 51.1821 112.091 51.1478C112.767 51.0028 113.473 51.1073 114.078 51.4421C114.683 51.7769 115.147 52.3194 115.383 52.9693C115.53 53.4769 114.852 53.8933 114.595 53.3236C114.391 52.8855 114.051 52.5251 113.625 52.2967C113.199 52.0683 112.711 51.9841 112.233 52.0567Z" fill="#14323E"/>
<path d="M108.012 64.5016C108.393 65.3594 109.069 66.0522 109.918 66.4539C110.766 66.8557 111.73 66.9397 112.635 66.6907C113.569 66.3895 114.353 65.7453 114.83 64.8883C115.307 64.0312 115.441 63.0251 115.204 62.0732C115.096 61.6302 114.7 61.4761 114.223 61.8517C112.229 63.4234 110.753 63.6688 108.396 63.7077C108.013 63.7139 107.789 64.0568 108.012 64.5016Z" fill="#14323E"/>
<path d="M43.5668 81.5641C43.7777 81.9636 43.1876 82.3924 42.858 82.0956C40.9506 80.3689 37.4582 77.9317 36.473 75.6282C35.1441 72.5274 35.8697 68.6443 33.2402 66.1353C33.1454 66.0542 33.0855 65.9398 33.0728 65.8157C33.0602 65.6916 33.0957 65.5674 33.1722 65.4688C33.2487 65.3702 33.3601 65.3049 33.4835 65.2863C33.6068 65.2677 33.7326 65.2973 33.8347 65.369C36.7406 67.4129 36.1895 71.4147 37.5353 74.317C38.8996 77.2557 42.0713 78.737 43.5668 81.5641Z" fill="#14323E"/>
<path d="M24.1319 77.0386C21.4212 76.501 18.8858 75.3005 16.752 73.5445C16.0671 72.9411 16.8875 72.4547 17.3872 72.7923C19.5093 74.2916 21.938 75.3008 24.4978 75.7469C26.9962 76.1165 29.5398 76.0512 32.0159 75.5538C32.6263 75.4723 32.6131 76.3653 32.1931 76.6169C30.283 77.7642 26.2759 77.5108 24.1319 77.0386Z" fill="#14323E"/>
<path d="M12.8669 75.6574C12.4878 75.2419 13.1256 74.69 13.542 74.9912C16.3853 77.1728 19.6499 78.7414 23.1297 79.5981C25.8478 80.2183 25.0939 81.4905 22.654 80.9873C18.9156 80.275 15.4935 78.4114 12.8669 75.6574Z" fill="#14323E"/>
<path d="M23.4275 85.3656C20.1982 85.1787 15.726 83.6903 13.302 81.5658C13.2168 81.4881 13.1621 81.3825 13.1479 81.268C13.1336 81.1536 13.1608 81.0378 13.2244 80.9416C13.288 80.8453 13.3839 80.775 13.4948 80.7433C13.6057 80.7115 13.7243 80.7205 13.8291 80.7685C17.5138 82.574 19.4788 83.491 23.5967 84.0022C25.987 84.2998 25.917 85.51 23.4275 85.3656Z" fill="#14323E"/>
<path d="M37.7001 89.4994C38.3495 89.9424 37.6115 91.033 36.9497 90.6414C33.4573 88.5851 29.4803 89.8441 25.6867 89.8379C21.9877 89.9006 18.364 88.7892 15.3362 86.6635C14.8994 86.3366 15.3805 85.6828 15.842 85.8945C19.3088 87.6453 23.1595 88.4982 27.0413 88.3752C30.6267 88.1581 34.5125 87.3289 37.7001 89.4994Z" fill="#14323E"/>
<path d="M172.105 141.884C136.645 142.315 35.6819 141.427 14.1162 141.175C12.7271 141.159 11.625 139.591 14.0764 139.58C41.8065 139.438 130.81 139.471 172.054 139.851C173.678 139.862 173.682 141.864 172.105 141.884Z" fill="#4FB278"/>
<path d="M103.777 77.7837C95.9803 79.024 81.0468 87.3599 72.9147 98.1144C80.6224 96.9476 103.356 96.7482 109.889 97.5146C107.431 94.5213 104.709 91.7549 101.756 89.2487C102.89 87.949 103.956 86.9382 104.889 86.0487C103.023 84.897 99.9538 83.0595 98.5991 82.4269C100.134 80.6783 101.872 79.1194 103.777 77.7837Z" fill="#4FB278"/>
<path d="M120.823 86.4482C121.823 87.4445 122.675 88.5781 123.355 89.8148C120.622 91.3812 115.321 94.3145 112.122 97.7139C115.177 98.1143 117.172 99.5965 118.235 104.093C118.692 106.021 119.323 109.116 119.949 112.59C125.737 111.325 131.62 110.547 137.538 110.264C136.5 107.605 135.112 105.097 133.411 102.805C133.046 102.322 133.723 101.709 134.126 102.177C136.18 104.536 137.77 107.262 138.811 110.211C141.462 110.054 144.121 110.092 146.766 110.324C147.369 110.392 147.376 111.293 146.752 111.278C137.818 110.987 128.884 111.828 120.161 113.783C121.052 118.861 121.89 124.536 122.153 128.509C135.885 128.376 158.163 135.161 161.616 126.976C169.348 108.645 145.864 79.7124 129.154 77.1794C130.564 79.1317 131.552 81.3568 132.053 83.7124C130.223 84.3476 123.224 86.0141 120.823 86.4482Z" fill="#4FB278"/>
<path d="M110.543 91.6488C107.735 84.6401 107.811 80.9094 107.01 77.4737C106.992 77.3551 106.929 77.2482 106.834 77.175C106.739 77.1017 106.619 77.0678 106.5 77.0802C106.38 77.0926 106.27 77.1504 106.192 77.2416C106.115 77.3328 106.075 77.4504 106.081 77.5702C106.053 81.7173 108.166 88.6251 109.882 92.5967C109.936 92.6929 110.012 92.7749 110.104 92.8361C110.196 92.8973 110.301 92.9359 110.411 92.9488C110.521 92.9618 110.632 92.9487 110.736 92.9106C110.839 92.8725 110.932 92.8105 111.008 92.7296C116.565 85.0122 119.342 82.2241 125.714 77.2743C125.814 77.2041 125.882 77.0983 125.904 76.9789C125.927 76.8596 125.903 76.7361 125.836 76.6344C125.77 76.5327 125.667 76.4606 125.548 76.4334C125.43 76.4062 125.306 76.426 125.201 76.4885C119.287 80.4354 114.289 85.6052 110.543 91.6488Z" fill="#4FB278"/>
<path d="M65.3593 98.9144C59.893 95.5815 50.6269 87.382 46.828 82.1948C43.0103 86.089 39.614 90.375 36.6954 94.9817C43.6111 105.181 54.5632 116.183 61.4266 119.38C60.6293 115.979 60.4264 106.58 60.6293 103.581C60.8321 100.581 63.0931 99.3813 65.3593 98.9144Z" fill="#4FB278"/>
<path d="M34.0366 98.7593C35.7324 98.6884 34.8606 97.4995 34.1376 97.4853C24.4808 97.2957 14.1312 97.0601 6.85051 97.1735C7.41309 55.1026 7.07643 28.557 7.30677 4.8517C7.31297 4.22357 6.37121 4.32013 6.34286 4.91815C5.42325 24.1901 5.98848 76.0888 5.27973 97.03C5.25492 97.7476 5.30453 98.2056 6.85671 98.2747C11.204 98.4696 15.4406 98.4776 19.8128 98.5529C23.8305 98.6229 30.1429 98.9223 34.0366 98.7593Z" fill="#4FB278"/>
<path d="M139.835 57.0021C140.261 48.3641 140.128 39.6119 140.167 30.9553C140.19 25.8381 140.422 12.0988 140.364 5.35587C140.355 4.18819 139.151 4.85354 139.138 5.44446C138.905 16.8935 138.302 45.4812 138.74 57.0145C138.777 57.9855 139.791 57.9713 139.835 57.0021Z" fill="#4FB278"/>
<path d="M20.8493 30.6008C20.8493 27.7924 20.8732 24.9857 20.8493 22.1773C33.4989 22.1046 46.1564 22.0329 58.8041 21.8043C58.8148 24.2619 58.8041 26.7195 58.8041 29.1771C46.7225 29.4863 34.368 29.9417 22.25 30.1588C21.4695 30.1729 21.5962 31.3388 22.351 31.3486C34.5868 31.4965 47.1982 30.716 59.4721 30.398C59.6345 30.3811 59.7841 30.3021 59.8895 30.1774C59.9949 30.0527 60.0479 29.892 60.0374 29.7291C60.0374 26.8595 60.0276 23.989 60.0471 21.1195C60.0298 20.9558 59.9499 20.8052 59.8241 20.6992C59.6982 20.5931 59.5362 20.5399 59.372 20.5507C46.3034 20.5587 33.226 20.7367 20.1574 20.9113C19.9903 20.9285 19.8364 21.0099 19.728 21.1383C19.6197 21.2666 19.5652 21.432 19.5762 21.5996C19.6489 24.6296 19.803 27.6524 19.9076 30.6806C19.9226 31.2963 20.8484 31.2095 20.8493 30.6008Z" fill="#4FB278"/>
<path d="M20.1124 50.851C33.3236 50.3353 46.9255 50.2751 60.0561 49.3705C60.1523 49.3728 60.2477 49.3535 60.3355 49.3143C60.4232 49.275 60.5012 49.2167 60.5636 49.1436C60.626 49.0705 60.6714 48.9844 60.6964 48.8915C60.7214 48.7987 60.7255 48.7014 60.7082 48.6068C60.4761 46.734 60.2431 44.8611 59.9994 42.99C59.8976 42.213 58.7317 42.4788 58.8167 43.2416C58.9939 44.8673 59.1906 46.4921 59.3837 48.1143C46.557 48.6556 33.6169 49.0215 20.8451 49.4308C20.8451 46.8908 20.8318 44.3472 20.9035 41.8116C33.8162 41.6779 46.5074 41.4688 59.5618 41.5751C59.6877 41.5772 59.8095 41.5303 59.9015 41.4442C59.9935 41.3582 60.0484 41.2398 60.0547 41.114C60.0611 40.9883 60.0183 40.8649 59.9354 40.7701C59.8525 40.6753 59.736 40.6164 59.6105 40.6059C46.5056 40.0025 33.3458 40.2683 20.1859 40.2949C20.0839 40.2894 19.9818 40.3042 19.8856 40.3383C19.7893 40.3724 19.7007 40.4253 19.625 40.4938C19.5492 40.5623 19.4877 40.6451 19.4441 40.7375C19.4005 40.8299 19.3756 40.93 19.3708 41.032C19.4798 44.0558 19.4391 47.0901 19.4497 50.1174C19.4429 50.3019 19.5083 50.4818 19.632 50.6188C19.7558 50.7558 19.9281 50.8391 20.1124 50.851Z" fill="#4FB278"/>
<path d="M58.9689 68.5929C52.6256 68.677 44.5555 68.5512 38.0482 68.8586C37.5034 68.8843 37.5282 69.9953 38.0624 70.0042C43.9212 70.1043 52.7877 69.8146 59.5608 69.9572C60.3094 69.9732 60.3439 69.2485 60.2562 68.7098C59.8189 66.0658 59.7952 63.3698 60.1862 60.7186C60.2043 60.623 60.2007 60.5245 60.1757 60.4305C60.1507 60.3365 60.1049 60.2492 60.0418 60.1752C59.9786 60.1012 59.8997 60.0423 59.8108 60.0028C59.7219 59.9633 59.6252 59.9442 59.528 59.9469C46.6392 60.2517 33.747 60.7283 20.8591 60.9347C20.6858 60.9466 20.5239 61.0251 20.4073 61.1538C20.2906 61.2824 20.2284 61.4513 20.2336 61.6249C20.2106 64.4139 20.2159 67.2064 20.1964 69.9918C20.2085 70.1752 20.2914 70.3468 20.4276 70.4703C20.5638 70.5938 20.7427 70.6595 20.9264 70.6536C24.6474 70.5171 27.5772 70.5375 31.2991 70.3081C31.9192 70.27 31.867 69.151 31.2521 69.1492C27.7633 69.1395 25.0727 69.1776 21.5847 69.2502C21.5714 66.9104 21.5687 64.5707 21.5528 62.2309C33.9755 61.7879 46.408 61.593 58.8334 61.2457C58.5427 63.6894 58.5883 66.1615 58.9689 68.5929Z" fill="#4FB278"/>
<path d="M89.0868 76.8535C89.6733 76.9925 89.8327 76.0508 89.264 75.8842C83.0598 73.9076 77.8561 69.6161 74.7344 63.9018C67.5308 51.0361 71.988 34.1757 83.6914 25.6227C94.0569 18.047 116.324 18.2012 123.504 30.584C123.938 31.3327 125.066 30.9234 124.704 30.1269C119.091 17.7546 96.3081 15.9828 85.1355 22.8045C71.98 30.8401 65.8785 48.2188 72.3956 62.4621C75.6736 69.6277 81.7618 75.1188 89.0868 76.8535Z" fill="#4FB278"/>
<path d="M139.731 79.4467C139.956 77.5366 139.756 72.4477 139.764 69.47C139.764 68.4016 138.761 68.794 138.724 69.2414C138.511 72.6402 138.502 76.0486 138.698 79.4484C138.738 79.9561 139.672 79.9481 139.731 79.4467Z" fill="#4FB278"/>
<path d="M142.908 131.845C137.62 131.225 126.653 130.545 119.532 130.428C119.532 126.339 115.622 102.963 113.133 101.008C110.75 99.1351 65.5382 98.786 63.6716 102.337C61.2175 107.011 65.2733 135.969 67.513 136.734C71.1569 137.974 140.417 137.768 143.439 137.531C145.018 137.411 145.243 132.117 142.908 131.845ZM77.6279 103.797C75.0019 104.072 72.4894 104.435 69.8705 104.818C67.6034 105.151 67.443 105.626 67.1967 107.801C66.8846 110.385 66.7348 112.986 66.7484 115.588C66.7484 116.142 65.9431 116.287 65.8696 115.704C65.5306 112.718 65.5532 109.701 65.9369 106.721C66.1903 104.764 66.9115 103.886 68.8605 103.488C71.7424 102.906 74.6842 102.675 77.6217 102.8C77.7409 102.818 77.85 102.877 77.9292 102.968C78.0083 103.059 78.0522 103.175 78.0529 103.296C78.0537 103.416 78.0112 103.533 77.9332 103.625C77.8553 103.717 77.7469 103.778 77.6279 103.797ZM89.2036 123.579C87.3299 123.934 85.3002 122.92 84.5693 120.062C83.934 117.581 85.1008 115.709 87.1615 115.182C92.0963 113.921 93.8992 122.682 89.2036 123.579Z" fill="#14323E"/>
<path d="M140.429 64.4316C132.004 56.0834 137.026 44.3791 131.638 38.7153C130.619 37.6168 129.243 36.9159 127.755 36.7374C126.267 36.5589 124.765 36.9145 123.515 37.7407C119.364 30.9907 110.898 29.357 103.69 31.6029C95.834 34.0508 93.0194 43.6411 99.3255 46.7278C102.63 48.3455 114.232 48.4828 117.859 47.7803C118.149 50.7836 119.272 53.6461 121.102 56.0453C121.29 56.2712 121.552 56.5839 121.864 56.311C122.201 56.0072 122.598 55.7766 123.029 55.634C123.46 55.4914 123.916 55.4399 124.368 55.4827C124.82 55.5255 125.258 55.6617 125.654 55.8827C126.051 56.1037 126.397 56.4046 126.671 56.7664C126.923 57.139 127.099 57.5576 127.189 57.9984C127.279 58.4392 127.281 58.8933 127.195 59.3348C127.108 59.7763 126.936 60.1964 126.687 60.571C126.438 60.9456 126.117 61.2674 125.744 61.5178C124.66 62.2345 123.888 62.1299 122.674 62.0688C122.294 62.0502 122.223 62.3683 122.197 62.6589C121.822 66.8795 121.407 71.6955 122.051 75.8931C122.068 76.0096 122.129 76.1151 122.222 76.187C122.315 76.259 122.433 76.2918 122.55 76.2784C122.667 76.265 122.774 76.2065 122.848 76.1154C122.923 76.0242 122.959 75.9076 122.948 75.7903C122.957 74.6528 122.915 73.5152 122.878 72.3768C128.809 73.0404 136.319 69.571 140.447 65.6046C141.101 64.9836 140.633 64.6336 140.429 64.4316ZM108.517 35.5533C107.071 35.5273 105.64 35.8523 104.347 36.5004C102.911 37.1897 100.473 38.9031 100.637 40.6998C100.685 41.2384 99.9111 41.568 99.71 41.0125C98.7399 38.3352 101.44 36.2435 103.241 35.261C104.844 34.3859 106.641 33.9246 108.468 33.9188C110.805 33.9214 109.84 35.6091 108.517 35.5533Z" fill="#14323E"/>
</svg>
