<svg width="676" height="575" viewBox="0 0 676 575" fill="none" xmlns="http://www.w3.org/2000/svg">
<path d="M377.307 158.937C421.107 158.937 456.614 123.357 456.614 79.4683C456.614 35.5792 421.107 0 377.307 0C333.507 0 298 35.5792 298 79.4683C298 123.357 333.507 158.937 377.307 158.937Z" fill="#D0EADB"/>
<path d="M385.33 131.013C381.572 131.013 377.821 130.419 374.265 129.222C364.596 125.966 356.801 118.589 351.725 107.885C343.016 89.5284 342.187 82.567 340.814 71.0321C340.617 69.3673 340.41 67.6473 340.169 65.7722C339.098 56.0335 341.294 47.3127 346.525 40.5274C351.454 34.1341 358.795 29.9814 367.197 28.8348C375.469 27.7065 382.992 29.5527 388.952 34.1709C395.033 38.8864 399.044 46.1923 400.547 55.3024L400.86 57.3748C402.876 70.7217 403.794 76.8127 410.358 90.1491C414.789 99.1461 415.81 107.554 413.316 114.468C411.193 120.354 406.689 124.867 399.931 127.878C395.351 129.958 390.335 131.01 385.333 131.01L385.33 131.013ZM371.845 30.7835C370.433 30.7835 368.984 30.8835 367.501 31.086C350.754 33.3688 340.439 47.5231 342.415 65.5013C342.657 67.3659 342.864 69.0938 343.061 70.7638C344.407 82.0673 345.221 88.8893 353.767 106.912C361.013 122.19 373.498 128.738 385.448 128.741C390.167 128.741 394.8 127.72 398.994 125.814H399.002C405.177 123.057 409.274 118.984 411.182 113.7C413.463 107.383 412.474 99.5879 408.324 91.159C401.603 77.507 400.668 71.3056 398.616 57.7193L398.306 55.6654C395.747 40.1698 385.564 30.7888 371.842 30.7888L371.845 30.7835Z" fill="#4FB278"/>
<path d="M384.393 126.984C381.123 126.984 377.847 126.458 374.726 125.393C368.923 123.415 360.892 118.644 355.59 107.165C346.976 88.5185 345.961 80.413 344.42 68.1444C344.255 66.8294 344.084 65.4619 343.895 64.0285C342.982 57.0566 344.94 50.0268 349.407 44.2356C353.848 38.4761 360.265 34.5943 367.475 33.3004C374.238 32.088 380.771 33.4345 385.863 37.098C391.114 40.8746 394.595 46.8945 395.665 54.0532C397.949 69.32 399.35 77.2755 406.203 91.2037C410.014 98.9515 410.838 106.31 408.584 112.488C406.691 117.669 402.626 121.75 396.826 124.286C392.946 126.077 388.673 126.984 384.39 126.984H384.393ZM372.377 35.1282C370.913 35.1282 369.409 35.2649 367.876 35.5384C354.181 37.9948 344.433 50.6422 346.144 63.7366C346.333 65.1752 346.504 66.5454 346.669 67.863C348.181 79.9212 349.181 87.8873 357.645 106.213C365.976 124.244 383.566 127.918 395.889 122.221L395.91 122.211C401.209 119.896 404.757 116.362 406.455 111.707C408.463 106.207 407.652 99.2828 404.172 92.2083C397.185 78.0066 395.681 69.4751 393.424 54.3924C392.445 47.8465 389.29 42.3605 384.54 38.9468C381.025 36.4195 376.881 35.1282 372.375 35.1282H372.377Z" fill="#4FB278"/>
<path d="M393.41 73.044C392.895 73.044 392.431 72.6915 392.307 72.1682C391.108 67.0345 390.328 61.964 389.273 54.8132C388.134 47.0865 383.378 41.4558 376.552 39.7516C375.945 39.5991 375.575 38.9837 375.728 38.3761C375.88 37.7686 376.494 37.3978 377.1 37.5503C384.733 39.457 390.257 45.9451 391.515 54.4845C392.559 61.5774 393.333 66.6032 394.514 71.6527C394.656 72.2629 394.278 72.873 393.669 73.0177C393.583 73.0387 393.496 73.0466 393.41 73.0466V73.044Z" fill="#4FB278"/>
<path d="M383.834 122.666C380.947 122.666 378.036 122.179 375.27 121.195C370.435 119.481 363.772 115.467 359.493 106.097C359.234 105.526 359.483 104.853 360.052 104.593C360.622 104.332 361.294 104.582 361.554 105.153C368.291 119.904 382.74 123.039 392.915 118.497C397.285 116.638 400.353 113.592 401.802 109.687C403.545 104.992 402.917 99.1803 400.041 93.3181C397.477 88.0977 395.015 81.7333 393.283 75.8554C393.104 75.2531 393.448 74.6219 394.049 74.4457C394.65 74.2695 395.28 74.6114 395.456 75.2137C397.154 80.9732 399.566 87.2088 402.075 92.3188C405.23 98.7437 405.889 105.195 403.928 110.478C402.256 114.984 398.76 118.479 393.821 120.58C390.713 121.966 387.291 122.666 383.837 122.666H383.834Z" fill="#4FB278"/>
<path d="M357.378 99.5064C356.932 99.5064 356.509 99.2407 356.328 98.7989C351.158 86.1068 350.278 78.985 349.061 69.128C348.864 67.5316 348.659 65.8774 348.426 64.1048C347.586 57.7298 349.378 51.2286 353.347 46.2712C356.336 42.5341 361.971 37.8975 371.824 37.0296C372.449 36.9744 372.997 37.4373 373.052 38.0606C373.107 38.6838 372.645 39.2361 372.023 39.2914C364.856 39.9225 359.008 42.8286 355.116 47.6914C351.53 52.1702 349.911 58.0454 350.672 63.8076C350.908 65.5907 351.11 67.2476 351.31 68.8492C352.551 78.8929 353.37 85.5256 358.428 97.9389C358.664 98.5201 358.386 99.1829 357.806 99.4196C357.667 99.4774 357.52 99.5037 357.378 99.5037V99.5064Z" fill="#4FB278"/>
<path d="M395.655 113.364C395.377 113.364 395.099 113.261 394.881 113.056C394.425 112.627 394.404 111.909 394.831 111.452C395.976 110.229 396.829 108.798 397.367 107.194C398.619 103.462 398.107 98.9489 395.921 94.4885C388.706 79.7503 387.398 70.7507 385.231 55.8416C384.619 51.6337 382.553 48.1122 379.414 45.9267C376.362 43.8017 372.506 43.0995 368.559 43.949C359.977 45.7979 353.675 54.5108 354.798 62.9766C354.88 63.5973 354.444 64.168 353.825 64.2521C353.205 64.3363 352.636 63.8997 352.552 63.2764C351.924 58.5557 353.237 53.6877 356.25 49.5744C359.173 45.5796 363.488 42.7182 368.081 41.7293C372.648 40.7457 377.131 41.5742 380.706 44.0621C384.367 46.6105 386.769 50.6764 387.472 55.5128C389.606 70.201 390.894 79.0692 397.952 93.4865C400.401 98.4886 400.955 103.612 399.511 107.917C398.868 109.832 397.85 111.544 396.48 113.006C396.256 113.243 395.955 113.364 395.653 113.364H395.655Z" fill="#4FB278"/>
<path d="M383.47 118.192C375.795 118.192 367.617 113.953 363.431 104.798C356.155 88.884 354.287 77.7805 352.998 67.7709C352.917 67.1503 353.355 66.5796 353.977 66.5007C354.596 66.4218 355.166 66.8583 355.245 67.4816C356.565 77.7279 358.342 88.2187 365.491 103.854C370.53 114.878 381.953 118 390.084 114.65C390.664 114.41 391.325 114.689 391.561 115.268C391.8 115.846 391.525 116.512 390.945 116.748C388.63 117.703 386.078 118.192 383.47 118.192V118.192Z" fill="#4FB278"/>
<path d="M383.042 113.69C377.097 113.69 370.651 110.4 367.412 103.396C360.714 89.8203 358.817 78.3669 356.686 62.4453C356.203 58.8318 357.197 55.1157 359.489 51.9808C361.738 48.9011 364.929 46.7762 368.475 45.9924C371.982 45.2192 375.444 45.8583 378.228 47.7887C381.058 49.7532 382.908 52.8618 383.436 56.5464L383.527 57.1933C385.59 71.6159 386.837 80.321 393.853 94.7094C395.811 98.7253 396.149 102.852 394.803 106.328C393.648 109.308 391.367 111.544 388.204 112.795L388.178 112.806C386.58 113.392 384.834 113.692 383.042 113.692V113.69ZM371.36 47.9439C370.572 47.9439 369.769 48.0306 368.963 48.2095C362.699 49.5902 358.105 55.973 358.932 62.1429C361.035 77.8462 362.901 89.1339 369.452 102.402L369.465 102.428C373.126 110.357 381.449 112.848 387.388 110.676C389.942 109.661 391.777 107.872 392.692 105.503C393.808 102.625 393.496 99.1434 391.819 95.7009C384.645 80.9916 383.383 72.155 381.286 57.5116L381.194 56.8646C380.756 53.8139 379.247 51.2523 376.94 49.6507C375.312 48.5198 373.389 47.9386 371.362 47.9386L371.36 47.9439Z" fill="#4FB278"/>
<path d="M382.507 109.19C378.347 109.19 373.72 106.854 371.428 101.984C364.694 88.7552 362.486 75.119 361.41 66.0089C361.337 65.3856 361.78 64.8228 362.402 64.7492C363.019 64.6755 363.586 65.12 363.66 65.7433C364.715 74.6825 366.877 88.0583 373.452 100.969L373.468 101.003C375.775 105.929 381.163 107.728 384.845 106.578C386.46 105.96 387.633 104.832 388.236 103.312C388.971 101.463 388.785 99.1487 387.722 96.9606C385.756 92.9105 383.116 85.765 381.449 80.8786C381.247 80.2842 381.562 79.6399 382.155 79.4374C382.748 79.2349 383.391 79.5505 383.593 80.1448C385.236 84.9708 387.837 92.0085 389.759 95.9665C391.118 98.7674 391.323 101.673 390.339 104.148C389.501 106.255 387.822 107.875 385.612 108.709L385.554 108.73C384.599 109.032 383.565 109.185 382.499 109.185L382.507 109.19Z" fill="#4FB278"/>
<path d="M381.523 78.0198C381.012 78.0198 380.55 77.6701 380.424 77.152C379.075 71.5555 378.306 66.0957 377.335 59.1842L377.154 57.8956C376.883 55.9862 375.933 54.3793 374.476 53.3694C373.033 52.3701 371.235 52.044 369.408 52.4542C365.44 53.3458 362.534 57.4011 363.062 61.3092C363.146 61.9299 362.71 62.5032 362.091 62.5847C361.474 62.6689 360.899 62.2323 360.818 61.6117C360.13 56.4991 363.76 51.3944 368.915 50.2372C371.364 49.6875 373.797 50.1346 375.765 51.4996C377.749 52.875 379.041 55.0316 379.398 57.5747L379.579 58.8634C380.542 65.7144 381.306 71.1268 382.628 76.6154C382.775 77.2256 382.4 77.8384 381.794 77.9856C381.705 78.0067 381.615 78.0172 381.526 78.0172L381.523 78.0198Z" fill="#4FB278"/>
<path d="M381.684 104.722C379.196 104.722 376.656 103.128 375.482 100.666C375.212 100.101 375.453 99.4222 376.018 99.154C376.585 98.8831 377.259 99.125 377.527 99.6905C378.558 101.858 380.892 102.754 382.487 102.357C383.138 102.113 383.613 101.66 383.868 101.04C384.196 100.237 384.117 99.225 383.653 98.2624C380.501 91.7349 378.367 86.1463 376.939 80.6708C375.283 74.3274 374.149 67.6184 373.49 63.1054C373.401 62.4848 373.829 61.9088 374.448 61.8168C375.07 61.7247 375.642 62.156 375.734 62.7741C376.385 67.2292 377.503 73.8487 379.133 80.0922C380.524 85.4204 382.611 90.8802 385.695 97.2709C386.44 98.8121 386.537 100.5 385.965 101.897C385.461 103.125 384.482 104.054 383.207 104.509L383.12 104.535C382.653 104.661 382.172 104.719 381.69 104.719L381.684 104.722Z" fill="#4FB278"/>
<path d="M372.453 91.8822C371.996 91.8822 371.566 91.6034 371.393 91.1484C367.689 81.3335 366.718 74.0407 365.369 63.9496C365.233 62.9239 365.091 61.872 364.944 60.7832C364.558 57.9507 366.558 55.1183 369.398 54.4713C370.786 54.1557 372.175 54.4108 373.303 55.1919C374.429 55.9704 375.159 57.1854 375.356 58.6082C375.443 59.2289 375.009 59.8022 374.39 59.889C373.768 59.9758 373.199 59.5418 373.112 58.9212C373.002 58.1348 372.613 57.4721 372.015 57.0592C371.414 56.6437 370.661 56.5095 369.899 56.6831C368.204 57.0697 366.96 58.8055 367.188 60.4728C367.335 61.5643 367.477 62.6189 367.613 63.6445C368.941 73.5883 369.899 80.7707 373.511 90.3436C373.731 90.9301 373.437 91.585 372.852 91.8059C372.721 91.8559 372.584 91.8795 372.453 91.8795V91.8822Z" fill="#4FB278"/>
<path d="M379.528 98.0994C379.101 98.0994 378.691 97.8548 378.5 97.4419C370.387 79.8844 369.206 61.4486 369.195 61.2645C369.159 60.6386 369.634 60.1021 370.258 60.0652C370.886 60.0284 371.418 60.5044 371.458 61.1304C371.468 61.3092 372.628 79.3348 380.555 96.4898C380.817 97.0579 380.57 97.7338 380.003 97.9968C379.849 98.0678 379.689 98.102 379.528 98.102V98.0994Z" fill="#4FB278"/>
<path d="M672.654 567.743H79.0806C77.2315 567.743 75.7344 566.242 75.7344 564.39C75.7344 562.537 77.2315 561.037 79.0806 561.037H672.654C674.504 561.037 676.001 562.537 676.001 564.39C676.001 566.242 674.504 567.743 672.654 567.743Z" fill="#4F656E"/>
<path d="M593.829 199.788C593.789 199.748 593.75 199.709 593.715 199.669C578.07 216.464 553.105 230.223 526.39 236.09C526.38 237.878 526.335 247.783 526.132 293.438C525.859 354.344 583.706 384.103 592.684 388.673C566.301 281.661 586.968 216.936 593.829 199.793V199.788Z" fill="#F5F9FF"/>
<path d="M593.828 199.788C586.967 216.931 566.3 281.656 592.683 388.668C601.383 384.655 659.959 354.94 660.231 294.034C660.435 248.379 660.479 238.474 660.489 236.686C633.893 230.596 609.33 216.662 593.828 199.788Z" fill="#E3EEFF"/>
<path d="M592.658 389.93L592.173 389.682C574.663 380.775 562.369 370.244 555.137 362.982C535.025 342.775 524.882 319.373 525.001 293.433L525.259 235.176L526.146 234.982C552.217 229.26 577.167 215.768 592.886 198.894L593.719 198L594.666 199.018C610.277 216.017 634.979 229.682 660.742 235.583L661.625 235.787V236.696C661.615 238.236 661.58 245.781 661.441 276.927L661.367 294.044C661.089 356.569 600.114 386.492 593.164 389.701L592.668 389.93H592.658ZM527.514 236.999L527.262 293.443C527.019 347.643 572.542 377.054 592.703 387.411C601.497 383.259 658.829 353.882 659.096 294.035L659.171 276.917C659.29 249.706 659.334 240.506 659.344 237.59C633.854 231.58 609.459 218.098 593.699 201.323C577.821 217.919 553.233 231.177 527.504 236.999H527.514Z" fill="white"/>
<path d="M592.772 377.8L591.741 377.263C585.45 373.985 573.151 366.742 561.441 355.064C543.481 337.156 534.429 316.462 534.528 293.563L534.751 243.144L536.442 242.706C558.056 237.118 577.776 226.861 591.964 213.816L593.52 212.386L595.161 213.94C609.225 227.059 628.806 237.456 650.296 243.213L651.982 243.665L651.759 294.089C651.66 316.989 642.419 337.599 624.3 355.347C612.849 366.568 600.812 373.622 594.66 376.831L594.507 376.91C594.264 377.035 594.026 377.159 593.803 377.273L592.767 377.805L592.772 377.8ZM539.262 246.646L539.054 293.578C538.955 315.22 547.561 334.822 564.634 351.845C575.302 362.485 586.486 369.305 592.791 372.688C598.785 369.549 610.236 362.778 621.137 352.098C638.359 335.229 647.138 315.702 647.233 294.064L647.441 247.132C626.61 241.296 607.579 231.212 593.481 218.545C579.268 231.083 560.157 240.993 539.262 246.651V246.646Z" fill="#4FB278"/>
<path d="M566.523 285.173V325.15C566.523 329.601 620.761 329.601 620.761 325.15V285.173H566.523ZM596.386 306.403V317.734C596.386 319.244 595.162 320.496 593.655 320.496C592.148 320.496 590.899 319.244 590.899 317.734V306.378C588.574 305.33 586.943 302.976 586.943 300.264C586.943 296.553 589.957 293.563 593.655 293.563C597.353 293.563 600.342 296.553 600.342 300.264C600.342 303.001 598.736 305.355 596.386 306.403Z" fill="#4FB278"/>
<path d="M616.018 282.321H610.525V279.629C610.525 270.3 602.951 262.715 593.646 262.715C584.341 262.715 576.766 270.305 576.766 279.629V282.321H571.273V279.629C571.273 267.27 581.307 257.211 593.646 257.211C605.985 257.211 616.013 267.265 616.013 279.629V282.321H616.018Z" fill="#4FB278"/>
<path d="M357.359 320.749C342.839 335.478 330.163 349.977 317.978 376.925C314.602 368.148 315.43 370.075 307.29 350.772C303.543 341.697 279.341 346.828 278.726 354.816C278.726 354.816 274.379 410.425 300.008 432.322C325.637 454.223 397.885 362.783 397.885 362.783C420.962 331.191 382.195 300.999 357.364 320.749H357.359Z" fill="#14984B"/>
<path d="M543.348 516.936C516.108 570.197 317.399 551.231 283.198 522.246C257.921 485.065 349.483 466.9 351.51 466.845C396.513 465.618 458.524 469.622 481.372 469.622C534.505 477.803 549.327 496.659 543.343 516.936H543.348Z" fill="#14323E"/>
<path d="M351.088 494.583C388.05 503.36 420.842 506.236 461.155 500.047C461.155 500.047 399.412 527.392 399.075 528.406C398.738 529.414 351.088 494.588 351.088 494.588V494.583Z" fill="#051733"/>
<path d="M538.608 523.106C498.806 567.266 328.949 563.019 361.617 522.867C391.267 519.152 472.741 499.302 479.924 495.408C504.958 475.071 554.794 499.208 538.604 523.106H538.608Z" fill="#14323E"/>
<path d="M513.119 554.663C511.151 545.777 500.924 540.119 490.003 536.552C484.694 542.777 477.461 555.051 477 573.386C501.231 578.84 516.505 569.923 513.119 554.663Z" fill="#D0EADB"/>
<path d="M459.263 532.583C459.263 532.583 449.106 530.845 446.131 543.01C445.12 547.138 442.166 555.424 452.075 561.876C461.96 567.33 468.796 571.543 477.001 573.391C477.462 555.056 484.694 542.782 490.004 536.557C475.816 531.928 459.258 532.588 459.258 532.588L459.263 532.583Z" fill="#8ACCA5"/>
<path d="M456.08 533.989C475.463 538.644 465.504 562.591 455.525 561.171C466.396 562.716 263.042 562.74 282.881 501.105H282.961C290.545 488.125 314.236 476.909 333.431 485.373C377.883 509.018 419.837 525.42 456.085 533.984L456.08 533.989Z" fill="#14323E"/>
<path d="M463.343 559.844C463.343 559.844 446.047 558.488 452.045 544.56C458.044 530.631 470.209 538.803 470.209 538.803C470.209 538.803 476.698 553.019 463.343 559.844Z" fill="#8ACCA5"/>
<path d="M464.175 561.042C463.754 561.042 463.402 560.704 463.387 560.277C462.951 547.555 470.753 539.299 471.085 538.957C471.388 538.644 471.889 538.634 472.201 538.937C472.513 539.24 472.523 539.741 472.221 540.054C472.146 540.134 464.552 548.191 464.963 560.222C464.978 560.659 464.636 561.027 464.2 561.042H464.17H464.175Z" fill="white"/>
<path d="M469.064 562.914C468.642 562.914 468.29 562.576 468.275 562.149C467.839 549.428 475.642 541.172 475.974 540.829C476.277 540.516 476.777 540.506 477.09 540.809C477.402 541.112 477.412 541.614 477.109 541.927C477.035 542.006 469.44 550.064 469.852 562.095C469.867 562.532 469.525 562.899 469.088 562.914C469.079 562.914 469.069 562.914 469.059 562.914H469.064Z" fill="white"/>
<path d="M474.239 564.211C473.818 564.211 473.466 563.873 473.451 563.446C473.015 550.724 480.818 542.468 481.15 542.126C481.452 541.813 481.953 541.803 482.265 542.106C482.578 542.409 482.588 542.911 482.285 543.223C482.211 543.303 474.616 551.36 475.028 563.391C475.043 563.828 474.7 564.196 474.264 564.211H474.234H474.239Z" fill="white"/>
<path d="M458.128 560.381C453.983 562.681 349.186 567.564 290.848 529.916C271.862 517.661 281.851 500.077 281.851 500.077C281.851 500.077 295.439 551.047 458.128 560.381V560.381Z" fill="#051733"/>
<path d="M446.423 533.512C446.314 533.512 446.2 533.497 446.086 533.463C370.547 511.04 335.751 487.822 335.409 487.594C334.869 487.226 334.725 486.491 335.092 485.945C335.459 485.403 336.192 485.259 336.738 485.627C337.08 485.855 371.622 508.884 446.765 531.188C447.395 531.371 447.752 532.032 447.564 532.663C447.41 533.179 446.939 533.512 446.428 533.512H446.423Z" fill="#051733"/>
<path d="M398.58 516.559C398.015 516.559 397.519 516.156 397.415 515.58C397.301 514.934 397.727 514.318 398.372 514.204C398.853 514.12 446.477 505.531 464.919 497.613C465.518 497.355 466.217 497.633 466.475 498.239C466.733 498.84 466.455 499.54 465.851 499.799C447.162 507.826 400.756 516.191 398.788 516.544C398.719 516.559 398.649 516.564 398.58 516.564V516.559Z" fill="#051733"/>
<path d="M484.204 469.562C485.86 482.294 395.408 485.334 349.142 466.875C342.221 438.134 318.337 307.317 389.683 307.71C466.709 308.137 476.882 434.86 484.204 469.557V469.562Z" fill="white"/>
<path d="M281.433 354.289L280.367 338.095L297.356 335.532L303.776 350.092C304.499 354.398 282.157 358.596 281.433 354.289Z" fill="#F7A594"/>
<path d="M298.136 338.051L302.251 311.803C302.251 311.803 296.262 310.114 295.702 317.242C295.142 324.366 283.542 328.866 286.536 335.8C289.53 342.735 298.136 338.051 298.136 338.051V338.051Z" fill="#F7A594"/>
<path d="M280.923 338.801C280.923 338.801 268.183 319.299 267.077 308.241C266.963 304.193 268.763 302.991 268.763 302.991L297.763 331.489C297.763 331.489 299.632 337.301 297.391 339.74C295.146 342.179 286.728 345.74 280.928 338.801H280.923Z" fill="#F7A594"/>
<path d="M298.838 331.886C298.838 331.886 299.131 336.506 296.493 335.552C288.745 333.277 288.289 321.877 288.289 321.877L298.843 331.886H298.838Z" fill="#CC7767"/>
<path d="M310.216 337.628L256.27 287.423C256.27 287.423 254.396 287.274 253.182 288.109L310.072 340.385C310.463 339.134 310.211 337.628 310.211 337.628H310.216Z" fill="#404040"/>
<path d="M253.187 288.114C252.364 288.68 251.844 289.688 252.453 291.551C253.956 296.151 301.575 340.112 306.399 341.756C308.754 342.556 309.705 341.592 310.082 340.395L253.192 288.118L253.187 288.114Z" fill="black"/>
<path d="M267.181 305.524C267.181 305.524 267.731 301.009 275.851 306.547C285.711 313.273 292.334 325.275 290.113 328.349C287.278 332.269 265.034 314.52 267.181 305.519V305.524Z" fill="#F7A594"/>
<path d="M375.068 309.881C323.903 321.127 337.694 443.568 341.283 470.099C350.96 473.958 382.206 481.588 394.495 483.68C369.902 425.377 356.988 315.444 375.068 309.881V309.881Z" fill="#14984B"/>
<path d="M405.088 311.624C399.402 339.402 368.915 338.686 368.523 323.099C368.444 322.701 368.444 322.23 368.444 321.832L365.995 288.118L365.678 284.005L368.365 283.449L392.611 278.621L393.478 278.462L394.187 280.598L397.271 289.38L405.088 311.619V311.624Z" fill="#F7A594"/>
<path d="M404.381 309.508C394.744 332.209 407.484 450.751 416.308 486.128C440.173 494.21 476.168 482.393 485.79 470.268C478.964 437.915 468.048 324.892 404.381 309.508V309.508Z" fill="#14984B"/>
<path d="M401.98 350.747C398.262 371.158 405.346 406.561 410.854 424.96C425.473 435.739 448.192 430.176 448.192 413.614C448.817 398.663 447.508 381.878 443.919 362.947C440.379 320.297 403.814 320.695 401.98 350.747V350.747Z" fill="#14984B"/>
<path d="M379.578 378.227C364.517 372.783 356.764 394.455 367.73 401.976C393.8 419.6 434.287 443.31 441.49 428.199C452.024 406.109 413.892 389.12 379.578 378.227Z" fill="#14984B"/>
<path d="M365.698 395.275L354.549 389.369C347.544 383.929 359.878 372.733 364.885 374.536L373.555 379.99C377.947 384.158 371.706 394.813 365.698 395.275Z" fill="#F7A594"/>
<path d="M355.615 389.612C346.494 387.665 349.647 378.43 351.704 367.885C344.357 336.242 384.536 390.452 355.615 389.612Z" fill="#F7A594"/>
<path d="M359.63 363.826C359.63 363.826 356.651 359.177 350.092 348.79C347.138 349.351 345.557 354.547 349.527 359.102C353.017 363.101 358.069 365.813 359.625 363.826H359.63Z" fill="#F7A594"/>
<path d="M350.662 361.06C344.074 357.319 339.379 368.208 341.109 376.712C343.757 389.721 353.418 383.299 356.309 379.821C361.588 373.468 358.738 365.64 350.662 361.06Z" fill="#F7A594"/>
<path d="M402.823 387.312C402.441 387.312 402.109 387.039 402.045 386.652C401.995 386.363 397.325 357.518 403.101 338.031C403.224 337.613 403.666 337.375 404.082 337.499C404.499 337.623 404.736 338.065 404.613 338.483C398.941 357.622 403.552 386.11 403.601 386.398C403.671 386.83 403.383 387.238 402.952 387.307C402.907 387.312 402.863 387.317 402.823 387.317V387.312Z" fill="#003331"/>
<path d="M430.282 431.85C417.274 431.85 401.852 423.659 400.95 423.172C400.568 422.963 400.419 422.486 400.628 422.099C400.836 421.716 401.312 421.567 401.698 421.776C401.996 421.935 431.68 437.706 442.537 425.775C452.06 415.308 444.966 369.986 444.891 369.529C444.822 369.097 445.115 368.689 445.546 368.625C445.977 368.555 446.384 368.848 446.448 369.281C446.75 371.178 453.73 415.82 443.702 426.843C440.351 430.523 435.512 431.85 430.282 431.85V431.85Z" fill="#003331"/>
<path d="M419.726 394.167C419.617 394.167 419.508 394.147 419.404 394.098C400.383 385.628 376.568 377.949 376.33 377.874C375.914 377.74 375.686 377.293 375.82 376.881C375.953 376.463 376.4 376.235 376.811 376.369C377.049 376.444 400.943 384.148 420.044 392.652C420.44 392.831 420.624 393.298 420.445 393.695C420.316 393.988 420.024 394.167 419.722 394.167H419.726Z" fill="white"/>
<path d="M368.431 322.364C367.722 314.913 363.637 286.862 368.361 283.449L392.607 278.621C398.165 309.235 377.453 324.524 368.431 322.364Z" fill="#D97661"/>
<path d="M401.634 273.162C400.459 298.197 378.211 317.625 361.658 316.706C345.106 315.787 324.766 294.626 325.946 269.59C327.12 244.554 345.021 225.057 365.921 226.046C386.821 227.034 402.814 248.126 401.634 273.162Z" fill="#F7A594"/>
<path d="M379.132 229.583C358.207 212.376 344.044 224.377 330.977 237.352C321.806 246.457 315.297 253.004 305.238 253.302C321.275 279.644 361.196 268.502 376.118 245.935C375.612 259.77 390.321 273.097 401.628 273.167C407.116 258.379 400.374 226.284 379.127 229.588L379.132 229.583Z" fill="#0E0E0E"/>
<path d="M399.976 282.536C404.572 281.279 407.28 276.526 406.025 271.921C404.771 267.316 400.028 264.602 395.433 265.86C390.837 267.117 388.128 271.869 389.383 276.474C390.638 281.079 395.38 283.793 399.976 282.536Z" fill="#F7A594"/>
<path d="M351.44 298.51C350.801 298.51 350.201 298.371 349.7 298.018C347.534 296.489 349.66 283.643 350.364 279.743C350.414 279.465 350.677 279.286 350.959 279.331C351.237 279.381 351.42 279.649 351.371 279.927C349.988 287.612 349.18 296.399 350.29 297.184C351.752 298.217 355.203 296.379 356.407 295.584C356.64 295.43 356.958 295.495 357.116 295.733C357.27 295.972 357.205 296.285 356.973 296.444C356.581 296.702 353.75 298.515 351.445 298.515L351.44 298.51Z" fill="#BD4A31"/>
<path d="M366.724 276.818C367.165 278.82 368.325 280.265 369.312 280.046C370.303 279.828 370.744 278.03 370.303 276.028C369.862 274.026 368.702 272.58 367.715 272.799C366.724 273.018 366.283 274.816 366.724 276.818Z" fill="#0E0E0E"/>
<path d="M335.077 284.636C335.488 286.504 336.569 287.85 337.491 287.647C338.413 287.443 338.829 285.764 338.418 283.896C338.006 282.028 336.926 280.682 336.004 280.886C335.082 281.09 334.665 282.769 335.077 284.636Z" fill="#0E0E0E"/>
<path d="M366.153 303.651C365.345 303.651 364.819 303.587 364.75 303.577C364.472 303.542 364.274 303.284 364.314 303.001C364.348 302.723 364.611 302.529 364.889 302.559C364.938 302.564 370.119 303.209 373.807 300.08C376.172 298.078 377.441 294.959 377.589 290.816C377.599 290.533 377.827 290.294 378.12 290.324C378.402 290.334 378.62 290.572 378.611 290.856C378.452 295.306 377.059 298.674 374.461 300.875C371.616 303.284 368.081 303.656 366.158 303.656L366.153 303.651Z" fill="#803221"/>
<path d="M363.025 271.647H363C362.718 271.632 362.5 271.393 362.514 271.11C362.609 269.064 363.987 267.394 366.118 266.754C368.285 266.103 370.461 266.754 371.656 268.413C371.819 268.641 371.77 268.964 371.542 269.128C371.314 269.297 370.991 269.242 370.828 269.014C369.891 267.712 368.156 267.211 366.411 267.732C365.077 268.13 363.625 269.237 363.536 271.155C363.521 271.428 363.298 271.642 363.025 271.642V271.647Z" fill="#803221"/>
<path d="M332.667 278.939C332.667 278.939 332.637 278.939 332.622 278.939C332.34 278.914 332.132 278.665 332.156 278.382C332.429 275.313 334.243 274.001 335.854 273.797C337.808 273.554 339.672 274.811 340.385 276.852C340.48 277.121 340.341 277.409 340.073 277.503C339.805 277.598 339.518 277.458 339.424 277.19C338.868 275.606 337.461 274.627 335.983 274.811C334.769 274.965 333.396 276.003 333.178 278.467C333.153 278.735 332.93 278.934 332.667 278.934V278.939Z" fill="#803221"/>
<path d="M268.898 203H176.146C171.095 203 167 207.103 167 212.165V249.068C167 254.129 171.095 258.232 176.146 258.232H268.898C273.949 258.232 278.044 254.129 278.044 249.068V212.165C278.044 207.103 273.949 203 268.898 203Z" fill="#8ACCA5"/>
<path d="M259.716 249.306V274.222L234.369 248.824L259.716 249.306Z" fill="#8ACCA5"/>
<path d="M191.664 234.559C193.554 232.665 193.554 229.596 191.664 227.702C189.775 225.809 186.711 225.809 184.822 227.702C182.932 229.596 182.932 232.665 184.822 234.559C186.711 236.452 189.775 236.452 191.664 234.559Z" fill="white"/>
<path d="M209.187 232.259C209.799 229.653 208.186 227.043 205.585 226.43C202.983 225.817 200.379 227.434 199.767 230.04C199.156 232.647 200.769 235.256 203.37 235.869C205.971 236.482 208.576 234.866 209.187 232.259Z" fill="white"/>
<path d="M225.412 232.259C226.023 229.652 224.411 227.042 221.809 226.43C219.208 225.817 216.604 227.433 215.992 230.039C215.381 232.646 216.993 235.256 219.595 235.869C222.196 236.481 224.8 234.865 225.412 232.259Z" fill="white"/>
<path d="M241.702 231.917C242.13 229.274 240.339 226.784 237.701 226.355C235.064 225.926 232.578 227.721 232.15 230.364C231.722 233.007 233.513 235.497 236.151 235.926C238.788 236.355 241.274 234.56 241.702 231.917Z" fill="white"/>
<path d="M256.564 234.56C258.454 232.667 258.454 229.597 256.564 227.704C254.675 225.81 251.611 225.81 249.722 227.704C247.833 229.597 247.833 232.667 249.722 234.56C251.611 236.453 254.675 236.453 256.564 234.56Z" fill="white"/>
<path d="M178.451 318.869H8.54888C3.82747 318.869 0 322.705 0 327.436V462.282C0 467.013 3.82747 470.848 8.54888 470.848H178.451C183.173 470.848 187 467.013 187 462.282V327.436C187 322.705 183.173 318.869 178.451 318.869Z" fill="#8ACCA5"/>
<path d="M62.0699 448.586H51.3662C43.4156 448.586 36.9512 442.104 36.9512 434.141V423.028H40.944V434.141C40.944 439.898 45.6174 444.585 51.3662 444.585H62.0699V448.586V448.586Z" fill="white"/>
<path d="M135.637 448.586H125.18V444.585H135.637C141.382 444.585 146.059 439.902 146.059 434.141V422.644H150.052V434.141C150.052 442.108 143.584 448.586 135.637 448.586V448.586Z" fill="white"/>
<path d="M150.05 365.525H146.057V355.572C146.057 349.815 141.383 345.128 135.635 345.128H125.561V341.127H135.635C143.585 341.127 150.05 347.609 150.05 355.572V365.525V365.525Z" fill="white"/>
<path d="M40.9479 367.457H36.9551V355.576C36.9551 347.609 43.4235 341.131 51.3701 341.131H61.6866V345.132H51.3701C45.6252 345.132 40.9479 349.815 40.9479 355.576V367.457V367.457Z" fill="white"/>
<path d="M123.844 415.552C127.469 414.56 129.606 410.811 128.616 407.178C127.627 403.545 123.885 401.404 120.26 402.396C116.634 403.388 114.498 407.137 115.487 410.77C116.477 414.402 120.219 416.543 123.844 415.552Z" fill="#F7A594"/>
<path d="M64.0179 415.555C67.6433 414.564 69.78 410.815 68.7902 407.182C67.8004 403.549 64.059 401.408 60.4336 402.4C56.8081 403.392 54.6715 407.141 55.6613 410.773C56.651 414.406 60.3924 416.547 64.0179 415.555Z" fill="#F7A594"/>
<path d="M122.793 406.472C121.866 426.222 104.315 441.548 91.2566 440.823C78.1986 440.098 62.1529 423.404 63.0836 403.654C64.0105 383.904 78.1322 368.523 94.6198 369.303C111.108 370.083 123.724 386.721 122.793 406.472Z" fill="#F7A594"/>
<path d="M84.7233 427.582C84.2735 427.131 84.0154 426.798 83.9841 426.755C83.8473 426.578 83.8825 426.324 84.0584 426.19C84.2344 426.053 84.4847 426.092 84.6216 426.265C84.6451 426.296 87.1792 429.549 90.9765 429.866C93.409 430.07 95.8572 429.043 98.2427 426.81C98.407 426.657 98.6651 426.653 98.8137 426.829C98.9662 426.994 98.9584 427.249 98.7941 427.401C96.2287 429.796 93.5733 430.897 90.9022 430.67C87.9731 430.423 85.7948 428.655 84.7194 427.578L84.7233 427.582Z" fill="#803221"/>
<path d="M77.6368 403.74C77.629 405.249 78.2273 406.476 78.9704 406.479C79.7173 406.483 80.3274 405.265 80.3352 403.756C80.343 402.247 79.7447 401.021 79.0016 401.017C78.2547 401.013 77.6446 402.232 77.6368 403.74Z" fill="#0E0E0E"/>
<path d="M76.049 400.797C76.049 400.797 76.0255 400.797 76.0138 400.793C75.7948 400.75 75.6501 400.539 75.6931 400.319C76.1507 397.929 77.6798 397.047 78.9586 397.02C80.5112 396.984 81.8721 398.121 82.271 399.782C82.3218 399.998 82.1889 400.217 81.9738 400.268C81.7587 400.319 81.5397 400.186 81.4888 399.97C81.1799 398.681 80.1514 397.803 78.9781 397.827C78.0122 397.85 76.8507 398.556 76.4831 400.472C76.444 400.68 76.2524 400.817 76.0451 400.797H76.049Z" fill="#803221"/>
<path d="M105.551 403.74C105.543 405.249 106.141 406.476 106.884 406.479C107.631 406.483 108.241 405.265 108.249 403.756C108.257 402.247 107.659 401.021 106.916 401.017C106.169 401.013 105.559 402.232 105.551 403.74Z" fill="#0E0E0E"/>
<path d="M103.963 400.797C103.963 400.797 103.94 400.797 103.928 400.793C103.709 400.75 103.564 400.539 103.607 400.319C104.065 397.929 105.594 397.047 106.873 397.02C108.425 396.984 109.786 398.121 110.185 399.782C110.236 399.998 110.103 400.217 109.888 400.268C109.673 400.319 109.454 400.186 109.403 399.97C109.094 398.681 108.065 397.803 106.892 397.827C105.926 397.85 104.765 398.556 104.397 400.472C104.358 400.68 104.166 400.817 103.959 400.797H103.963Z" fill="#803221"/>
<path d="M90.9872 419.744C89.9977 419.744 89.0396 419.533 88.4804 418.859C87.1038 417.201 90.514 408.874 91.214 407.224C91.3 407.016 91.5386 406.918 91.7459 407.008C91.9531 407.095 92.0509 407.334 91.9609 407.541C90.3067 411.46 88.3279 417.401 89.1061 418.337C90.0173 419.431 93.0442 418.733 94.1314 418.373C94.3426 418.302 94.5733 418.416 94.6437 418.631C94.7141 418.843 94.6007 419.074 94.3856 419.145C94.1079 419.235 92.5163 419.744 90.9872 419.744V419.744Z" fill="#BD4A31"/>
<path d="M125.965 373.394C119.52 352.993 105.003 354.823 90.7913 357.762C80.819 359.824 73.7014 361.348 66.9241 357.206C66.2123 381.537 97.3888 391.389 116.95 382.901C110.674 391.827 114.674 406.985 122.12 411.907C132.097 404.497 141.428 380.369 125.961 373.39L125.965 373.394Z" fill="#0E0E0E"/>
<path d="M59.9208 374.844C66.3657 354.443 80.8824 356.273 95.094 359.212C105.066 361.273 112.184 362.798 118.961 358.656C119.673 382.987 88.4966 392.838 68.9351 384.351C75.2118 393.277 71.2111 408.435 63.7651 413.357C53.7888 405.946 44.4577 381.819 59.9247 374.84L59.9208 374.844Z" fill="#0E0E0E"/>
</svg>
