<svg xmlns="http://www.w3.org/2000/svg" xmlns:xlink="http://www.w3.org/1999/xlink" width="300" height="71" viewBox="0 0 300 71"><defs><clipPath id="clip-path"><rect id="Rectangle_1" data-name="Rectangle 1" width="300" height="71"></rect></clipPath></defs><g id="Group_1" data-name="Group 1" transform="translate(-78 -272)"><g id="Logo-300" transform="translate(78 272)" clip-path="url(#clip-path)"><g id="Group_620" data-name="Group 620" transform="translate(0 0.366)"><g id="Group_1-2" data-name="Group 1"><path id="Path_1" data-name="Path 1" d="M224,315.856v-7c.708-4.8,5.151-9.131,10-9,8.831-.26,51,0,51,0s9,.352,9,11v38H256s-2.169-1.442-1-3,16-24,16-24a3.855,3.855,0,0,0,0-5c-2.078-.909-2.1-1-6-1Z" transform="translate(-224 -300.222)" fill="#00984b"></path><circle id="Ellipse_1" data-name="Ellipse 1" cx="1.5" cy="1.5" r="1.5" transform="translate(30 45.634)" fill="#00984b"></circle></g><g id="Group_3" data-name="Group 3" transform="translate(0 20.713)"><g id="Group_2" data-name="Group 2"><path id="Path_2" data-name="Path 2" d="M0,15.584V8.375A9.629,9.629,0,0,1,9.74.117c8.831-.262,51.3,0,51.3,0s8.571.262,8.571,11.011V48.879H31.557s-2.078-.786-.909-2.359,16.1-24.381,16.1-24.381a4.975,4.975,0,0,0,0-5.768c-2.078-.918-1.818-.786-5.714-.786Z" transform="translate(69.606 48.879) rotate(180)" fill="#14323e"></path><path id="Path_3" data-name="Path 3" d="M1608.547,1234.964c-.066.9.374,1.355,1,2a2.408,2.408,0,0,0,2,1c3.49.1,3,1,3,1l-5,1-1-3v-2Z" transform="translate(-1586.547 -1205.043)" fill="#14323e"></path></g><circle id="Ellipse_2" data-name="Ellipse 2" cx="1.5" cy="1.5" r="1.5" transform="translate(36 -0.079)" fill="#14323e"></circle></g><path id="Path_4" data-name="Path 4" d="M1920.63,688.468s2.685-2.889,2-5-2.257-1.887-5-2-1.086-1-1-1,5,1,5,1l3,4Z" transform="translate(-1874.63 -665.834)" fill="#00984b"></path></g><path id="Path_1-2" data-name="Path 1" d="M21.3-27.55H2.2v4.65H14.75L2.2-4.65V0H21.3V-4.65H8.8L21.3-22.9ZM28.15-13.9C28.15-5.4,33.9.45,41.05.45A11.858,11.858,0,0,0,50.7-4.1V0h5.75V-27.55H50.7v4A11.727,11.727,0,0,0,41.15-28C33.9-28,28.15-22.4,28.15-13.9Zm22.55.1c0,5.95-4.05,9.3-8.35,9.3C38.1-4.5,34-7.95,34-13.9s4.1-9.15,8.35-9.15C46.65-23.05,50.7-19.7,50.7-13.8Zm21.7-.7c0-5.85,2.6-7.6,6.8-7.6h1.45V-28a8.974,8.974,0,0,0-8.25,4.45v-4H66.7V0h5.7ZM89.55-7.65C89.55-2.05,92.6,0,97.5,0H102V-4.75H98.5c-2.4,0-3.2-.85-3.2-2.9V-22.9H102v-4.65H95.3V-34.4H89.55v6.85H86.3v4.65h3.25Zm21.35,0c0,5.6,3.05,7.65,7.95,7.65h4.5V-4.75h-3.5c-2.4,0-3.2-.85-3.2-2.9V-22.9h6.7v-4.65h-6.7V-34.4H110.9v6.85h-3.25v4.65h3.25ZM142.95-23.2c4.25,0,7.6,2.7,7.7,6.95H135.4C136-20.6,139.1-23.2,142.95-23.2Zm12.9,15H149.7a6.67,6.67,0,0,1-6.5,3.85,7.578,7.578,0,0,1-7.85-7.3H156.4a17.584,17.584,0,0,0,.2-2.8c0-8.1-5.55-13.55-13.4-13.55-8.15,0-13.75,5.55-13.75,14.2S135.3.45,143.2.45C149.95.45,154.3-3.4,155.85-8.2Zm7.2-5.6c0,8.65,5.6,14.25,13.5,14.25,6.75,0,11.15-3.75,12.7-9.15H183.1c-1.05,2.85-3.15,4.35-6.55,4.35-4.6,0-7.65-3.4-7.65-9.45,0-6,3.05-9.4,7.65-9.4a6.438,6.438,0,0,1,6.55,4.35h6.15c-1.55-5.8-5.95-9.15-12.7-9.15C168.65-28,163.05-22.4,163.05-13.8ZM197.7,0h5.7V-15.4c0-5.05,2.75-7.65,6.95-7.65,4.15,0,6.9,2.6,6.9,7.65V0h5.65V-16.25c0-7.7-4.8-11.75-10.95-11.75a10.921,10.921,0,0,0-8.55,3.65V-37h-5.7Z" transform="translate(71 39)" fill="#14323e"></path></g><path id="Path_2-2" data-name="Path 2" d="M10.313-12.3H2.88v4.26H10.4A1.585,1.585,0,0,0,11.58-8.4a1.553,1.553,0,0,0,.24-1v-1.115a3.905,3.905,0,0,0-.141-1.433Q11.438-12.3,10.313-12.3Zm0,5.94H2.88v4.68h7.3a1.764,1.764,0,0,0,1.36-.4,1.7,1.7,0,0,0,.28-1.115V-4.926a2.03,2.03,0,0,0-.2-1.115A1.82,1.82,0,0,0,10.313-6.36ZM1,0V-13.98h9.82a2.759,2.759,0,0,1,2.32.859,4.53,4.53,0,0,1,.5,2.477v1.218a4.058,4.058,0,0,1-.2,1.418,1.7,1.7,0,0,1-1.2.9,1.658,1.658,0,0,1,1.24,1.138,7.865,7.865,0,0,1,.14,1.8,9.018,9.018,0,0,1-.3,2.935Q12.78,0,10.8,0ZM26.212-12.3H19.06v4.94h7.32a1.829,1.829,0,0,0,1.36-.418,1.7,1.7,0,0,0,.28-1.115v-1.235a4.3,4.3,0,0,0-.2-1.713Q27.518-12.3,26.212-12.3ZM30.324,0,27.74,0,22.12-5.68H19.06V0H17.18V-13.98h9.8a2.619,2.619,0,0,1,2.4.955A5.335,5.335,0,0,1,29.84-10.4v2.229A2.271,2.271,0,0,1,29.161-6.4a4.619,4.619,0,0,1-2.977.717h-.759l-.719,0ZM35.3-13.98V0H33.42V-13.98ZM52.92-7.1q0,3.86-1.9,5.52Q49.22,0,45.38,0h-6.5V-13.98l4.62-.06a23.669,23.669,0,0,1,4.78.36,5.635,5.635,0,0,1,3.38,1.92A7.407,7.407,0,0,1,52.92-7.1Zm-8.98-5.2H40.76V-1.68h4.46q3.08,0,4.34-1.056,1.42-1.2,1.42-4.184,0-3.387-1.92-4.563Q47.66-12.3,43.94-12.3ZM56.04-1.678V-12.3a1.652,1.652,0,0,1,.429-1.328,2.32,2.32,0,0,1,1.448-.35H67.8q1.258,0,1.618.48a3.781,3.781,0,0,1,.26,1.76v1.3l-1.88.3V-12.3H57.92V-1.68H67.8V-5.84H63.26V-7.7h6.42v6.02a1.638,1.638,0,0,1-.48,1.3A2.181,2.181,0,0,1,67.82,0h-9.9a2.442,2.442,0,0,1-1.44-.33A1.622,1.622,0,0,1,56.04-1.678Zm19.1-12.3V0H73.26V-13.98Zm5.1,0L90.78-2.82V-13.98h1.88V0L90.873-.013,80.6-10.861V0H78.72V-13.98Zm15.98,12.3V-12.3a1.652,1.652,0,0,1,.429-1.328,2.32,2.32,0,0,1,1.448-.35h9.886q1.258,0,1.618.48a3.781,3.781,0,0,1,.26,1.76v1.3l-1.88.3V-12.3H98.1V-1.68h9.88V-5.84h-4.54V-7.7h6.42v6.02a1.638,1.638,0,0,1-.48,1.3A2.181,2.181,0,0,1,108,0H98.1a2.442,2.442,0,0,1-1.44-.33A1.622,1.622,0,0,1,96.22-1.678Zm34.56-12.3v1.68H125.1V0h-1.88V-12.3h-5.68v-1.68Zm4.74,0v6h10v-6h1.88V0h-1.88V-6.2h-10V0h-1.88V-13.98Zm27.22,0v1.68h-9.9v4.26h5.84v1.68h-5.84v4.68h9.98V0H150.96V-13.98Zm8.12,12.3V-12.3a1.652,1.652,0,0,1,.429-1.328,2.32,2.32,0,0,1,1.448-.35h9.886q1.258,0,1.617.48a3.781,3.781,0,0,1,.26,1.76v1.3l-1.88.3V-12.3h-9.88V-1.68h9.88V-5.84h-4.54V-7.7h6.42v6.02a1.638,1.638,0,0,1-.48,1.3,2.181,2.181,0,0,1-1.38.38h-9.9a2.442,2.442,0,0,1-1.44-.33A1.622,1.622,0,0,1,170.86-1.678Zm24.78-12.3L202.78,0l-2.065,0L198.851-3.56h-7.778L189.2,0,187.16,0l7.16-13.98Zm2.375,8.74-3.059-6.077L191.911-5.24ZM207.5,0h-1.88V-13.98h9.82a2.622,2.622,0,0,1,2.4.958,5.351,5.351,0,0,1,.46,2.633v1.157q0,2.235-.759,2.933a3.069,3.069,0,0,1-2.116.618H207.5Zm7.152-12.3H207.5v4.94h7.32a1.846,1.846,0,0,0,1.36-.4,1.667,1.667,0,0,0,.28-1.1v-1.275a4.3,4.3,0,0,0-.2-1.713Q215.958-12.3,214.652-12.3Z" transform="translate(152.541 335)" fill="#14323e"></path></g></svg>