<svg width="138" height="38" viewBox="0 0 138 38" fill="none" xmlns="http://www.w3.org/2000/svg">
<path d="M0.00268555 8.35418V4.48947C0.187895 3.23473 0.826494 2.09137 1.7977 1.27562C2.7689 0.459868 4.00537 0.0282896 5.27324 0.06253C10.0519 -0.0781625 33.0329 0.06253 33.0329 0.06253C33.0329 0.06253 37.6709 0.203233 37.6709 5.96513V26.2032H17.0811C17.0811 26.2032 15.9567 25.7816 16.5892 24.9386C17.2218 24.0955 25.3014 11.8677 25.3014 11.8677C25.6253 11.4173 25.7996 10.8765 25.7996 10.3217C25.7996 9.76692 25.6253 9.22614 25.3014 8.77573C24.1769 8.28385 24.3176 8.35418 22.2094 8.35418H0.00268555Z" fill="#00984B"/>
<path d="M17.098 26.207C17.4877 26.207 17.8036 25.891 17.8036 25.5013C17.8036 25.1116 17.4877 24.7957 17.098 24.7957C16.7083 24.7957 16.3923 25.1116 16.3923 25.5013C16.3923 25.891 16.7083 26.207 17.098 26.207Z" fill="#00984B"/>
<path d="M37.6682 29.2243V33.1252C37.4873 34.3854 36.8512 35.5356 35.8802 36.3589C34.9092 37.1822 33.6704 37.6215 32.3977 37.5938C27.619 37.7356 4.63796 37.5938 4.63796 37.5938C4.63796 37.5938 -1.87385e-05 37.4521 -1.87385e-05 31.6355V11.2075H20.5919C20.5919 11.2075 21.7164 11.6329 21.0838 12.484C20.4512 13.3352 12.3717 25.6772 12.3717 25.6772C12.0475 26.133 11.8732 26.6784 11.8732 27.2378C11.8732 27.7972 12.0475 28.3426 12.3717 28.7984C13.4962 29.2952 13.3555 29.2237 15.4637 29.2237L37.6682 29.2243Z" fill="white"/>
<path d="M11.8789 27.3709C11.8613 27.6108 11.8947 27.8518 11.977 28.0779C12.0592 28.304 12.1884 28.5101 12.356 28.6826C12.5236 28.8552 12.7258 28.9903 12.9494 29.0791C13.173 29.1679 13.4128 29.2083 13.6532 29.1977C15.5417 29.2519 15.0931 29.6988 15.0931 29.6988L12.3529 29.8655L11.7468 28.2843V27.2833L11.8789 27.3709Z" fill="white"/>
<path d="M20.4701 12.7974C20.9032 12.7974 21.2542 12.4463 21.2542 12.0133C21.2542 11.5802 20.9032 11.2292 20.4701 11.2292C20.0371 11.2292 19.686 11.5802 19.686 12.0133C19.686 12.4463 20.0371 12.7974 20.4701 12.7974Z" fill="white"/>
<path d="M25.046 12.2887C25.046 12.2887 26.1282 10.9185 25.7576 9.77622C25.3869 8.63391 24.9318 8.40556 23.4475 8.34441C21.9632 8.28326 22.8057 7.80005 22.8522 7.80005C22.8988 7.80005 25.6715 8.23294 25.6715 8.23294L26.8923 10.464L25.046 12.2887Z" fill="#00984B"/>
<path d="M49.2137 8.02896H39.9117V10.2936H46.0237L39.9117 19.1815V21.4462H49.2137V19.1815H43.126L49.2137 10.2936V8.02896Z" fill="white"/>
<path d="M51.2032 14.6767C51.2032 18.8163 54.0035 21.6653 57.4856 21.6653C59.7259 21.6653 61.333 20.5939 62.1853 19.4494V21.4462H64.9856V8.02896H62.1853V9.97701C61.3574 8.88123 59.799 7.80981 57.5343 7.80981C54.0035 7.80981 51.2032 10.5371 51.2032 14.6767ZM62.1853 14.7254C62.1853 17.6231 60.2129 19.2546 58.1188 19.2546C56.049 19.2546 54.0522 17.5744 54.0522 14.6767C54.0522 11.779 56.049 10.2205 58.1188 10.2205C60.2129 10.2205 62.1853 11.852 62.1853 14.7254Z" fill="white"/>
<path d="M71.4077 14.3845C71.4077 11.5355 72.674 10.6832 74.7194 10.6832H75.4256V7.80981C73.5262 7.80981 72.1869 8.63773 71.4077 9.97701V8.02896H68.6318V21.4462H71.4077V14.3845Z" fill="white"/>
<path d="M78.4156 17.7205C78.4156 20.4478 79.901 21.4462 82.2873 21.4462H84.4789V19.1328H82.7743C81.6055 19.1328 81.2159 18.7189 81.2159 17.7205V10.2936H84.4789V8.02896H81.2159V4.69293H78.4156V8.02896H76.8328V10.2936H78.4156V17.7205Z" fill="white"/>
<path d="M87.4757 17.7205C87.4757 20.4478 88.9611 21.4462 91.3475 21.4462H93.539V19.1328H91.8345C90.6656 19.1328 90.276 18.7189 90.276 17.7205V10.2936H93.539V8.02896H90.276V4.69293H87.4757V8.02896H85.8929V10.2936H87.4757V17.7205Z" fill="white"/>
<path d="M101.747 10.1475C103.817 10.1475 105.448 11.4624 105.497 13.5322H98.0699C98.3621 11.4137 99.8719 10.1475 101.747 10.1475ZM108.029 17.4527H105.034C104.523 18.4997 103.573 19.3276 101.869 19.3276C99.8232 19.3276 98.2404 17.9884 98.0456 15.7725H108.297C108.37 15.3098 108.395 14.8715 108.395 14.4088C108.395 10.464 105.692 7.80981 101.869 7.80981C97.8995 7.80981 95.1722 10.5127 95.1722 14.7254C95.1722 18.938 98.0212 21.6653 101.869 21.6653C105.156 21.6653 107.274 19.7903 108.029 17.4527Z" fill="white"/>
<path d="M110.201 14.7254C110.201 18.938 112.928 21.6653 116.776 21.6653C120.063 21.6653 122.206 19.839 122.961 17.2091H119.966C119.454 18.5971 118.432 19.3276 116.776 19.3276C114.536 19.3276 113.05 17.6718 113.05 14.7254C113.05 11.8033 114.536 10.1475 116.776 10.1475C118.432 10.1475 119.503 10.9754 119.966 12.266H122.961C122.206 9.4413 120.063 7.80981 116.776 7.80981C112.928 7.80981 110.201 10.5371 110.201 14.7254Z" fill="white"/>
<path d="M125.727 21.4462H128.503V13.9462C128.503 11.4867 129.843 10.2205 131.888 10.2205C133.909 10.2205 135.248 11.4867 135.248 13.9462V21.4462H138V13.5322C138 9.78221 135.662 7.80981 132.667 7.80981C130.938 7.80981 129.429 8.46727 128.503 9.5874V3.4267H125.727V21.4462Z" fill="white"/>
<path d="M39.7505 32.3688V26.4656H41.8143C42.2255 26.4656 42.5647 26.5367 42.8318 26.6789C43.0989 26.8192 43.2978 27.0084 43.4284 27.2467C43.5591 27.4831 43.6244 27.7454 43.6244 28.0336C43.6244 28.2873 43.5793 28.4967 43.489 28.662C43.4006 28.8272 43.2834 28.9579 43.1373 29.054C42.9932 29.1501 42.8366 29.2212 42.6675 29.2673V29.3249C42.8481 29.3365 43.0297 29.3999 43.2123 29.5152C43.3948 29.6305 43.5476 29.7957 43.6706 30.0109C43.7936 30.2262 43.855 30.4894 43.855 30.8007C43.855 31.0967 43.7878 31.3628 43.6533 31.5992C43.5188 31.8355 43.3064 32.0229 43.0163 32.1612C42.7261 32.2996 42.3485 32.3688 41.8835 32.3688H39.7505ZM40.4653 31.7346H41.8835C42.3504 31.7346 42.6819 31.6443 42.8779 31.4637C43.0758 31.2811 43.1748 31.0601 43.1748 30.8007C43.1748 30.6009 43.1239 30.4164 43.022 30.2473C42.9202 30.0763 42.7751 29.9398 42.5868 29.838C42.3985 29.7342 42.1756 29.6823 41.9181 29.6823H40.4653V31.7346ZM40.4653 29.0597H41.7912C42.0065 29.0597 42.2005 29.0175 42.3735 28.9329C42.5483 28.8484 42.6867 28.7292 42.7886 28.5755C42.8923 28.4218 42.9442 28.2411 42.9442 28.0336C42.9442 27.7742 42.8539 27.5542 42.6733 27.3735C42.4926 27.191 42.2063 27.0997 41.8143 27.0997H40.4653V29.0597Z" fill="white"/>
<path d="M45.0296 32.3688V26.4656H47.0243C47.4854 26.4656 47.864 26.5444 48.1599 26.7019C48.4559 26.8576 48.6749 27.0718 48.8171 27.3447C48.9593 27.6176 49.0304 27.9279 49.0304 28.2757C49.0304 28.6235 48.9593 28.932 48.8171 29.201C48.6749 29.47 48.4568 29.6814 48.1628 29.8351C47.8688 29.9869 47.4931 30.0628 47.0358 30.0628H45.4216V29.4172H47.0127C47.3279 29.4172 47.5815 29.371 47.7737 29.2788C47.9678 29.1866 48.108 29.0559 48.1945 28.8868C48.2829 28.7158 48.3271 28.5121 48.3271 28.2757C48.3271 28.0394 48.2829 27.8328 48.1945 27.656C48.1061 27.4792 47.9649 27.3428 47.7708 27.2467C47.5767 27.1487 47.3202 27.0997 47.0012 27.0997H45.7445V32.3688H45.0296ZM47.8083 29.7169L49.261 32.3688H48.4309L47.0012 29.7169H47.8083Z" fill="white"/>
<path d="M50.9364 26.4656V32.3688H50.2216V26.4656H50.9364Z" fill="white"/>
<path d="M54.1914 32.3688H52.3697V26.4656H54.2721C54.8447 26.4656 55.3347 26.5838 55.7421 26.8201C56.1495 27.0545 56.4618 27.3918 56.6789 27.8318C56.896 28.27 57.0046 28.7946 57.0046 29.4056C57.0046 30.0205 56.8951 30.55 56.676 30.9938C56.4569 31.4358 56.138 31.7759 55.719 32.0142C55.3001 32.2506 54.7909 32.3688 54.1914 32.3688ZM53.0845 31.7346H54.1453C54.6333 31.7346 55.0378 31.6405 55.3587 31.4521C55.6797 31.2638 55.9189 30.9958 56.0765 30.648C56.234 30.3001 56.3128 29.886 56.3128 29.4056C56.3128 28.9291 56.235 28.5188 56.0794 28.1748C55.9237 27.829 55.6912 27.5638 55.3818 27.3793C55.0724 27.1929 54.6871 27.0997 54.226 27.0997H53.0845V31.7346Z" fill="white"/>
<path d="M62.2391 28.3103C62.1757 28.1162 62.0921 27.9423 61.9883 27.7886C61.8864 27.633 61.7644 27.5004 61.6222 27.3908C61.482 27.2813 61.3225 27.1977 61.1437 27.1401C60.965 27.0824 60.769 27.0536 60.5557 27.0536C60.206 27.0536 59.888 27.1439 59.6017 27.3245C59.3153 27.5052 59.0876 27.7713 58.9185 28.123C58.7494 28.4746 58.6649 28.906 58.6649 29.4172C58.6649 29.9283 58.7504 30.3597 58.9214 30.7114C59.0924 31.063 59.324 31.3292 59.6161 31.5098C59.9082 31.6904 60.2368 31.7807 60.6019 31.7807C60.9401 31.7807 61.2379 31.7087 61.4954 31.5646C61.7548 31.4185 61.9566 31.2129 62.1007 30.9477C62.2468 30.6806 62.3198 30.3664 62.3198 30.0052L62.5388 30.0513H60.7633V29.4172H63.0116V30.0513C63.0116 30.5375 62.9078 30.9602 62.7002 31.3196C62.4946 31.6789 62.2102 31.9575 61.8471 32.1555C61.4858 32.3515 61.0707 32.4495 60.6019 32.4495C60.0792 32.4495 59.6199 32.3265 59.2241 32.0805C58.8301 31.8345 58.5227 31.4848 58.3017 31.0313C58.0826 30.5778 57.9731 30.0398 57.9731 29.4172C57.9731 28.9502 58.0355 28.5303 58.1605 28.1576C58.2873 27.7828 58.466 27.4639 58.6966 27.2006C58.9272 26.9373 59.2 26.7356 59.5152 26.5953C59.8303 26.455 60.1772 26.3849 60.5557 26.3849C60.867 26.3849 61.1572 26.4319 61.4262 26.5261C61.6972 26.6183 61.9383 26.75 62.1497 26.921C62.363 27.0901 62.5408 27.2928 62.683 27.5292C62.8252 27.7636 62.9232 28.024 62.977 28.3103H62.2391Z" fill="white"/>
<path d="M64.9507 26.4656V32.3688H64.2359V26.4656H64.9507Z" fill="white"/>
<path d="M71.065 26.4656V32.3688H70.3732L67.1565 27.7338H67.0988V32.3688H66.384V26.4656H67.0758L70.3041 31.112H70.3617V26.4656H71.065Z" fill="white"/>
<path d="M76.5308 28.3103C76.4674 28.1162 76.3838 27.9423 76.28 27.7886C76.1782 27.633 76.0561 27.5004 75.9139 27.3908C75.7737 27.2813 75.6142 27.1977 75.4355 27.1401C75.2568 27.0824 75.0608 27.0536 74.8475 27.0536C74.4977 27.0536 74.1797 27.1439 73.8934 27.3245C73.6071 27.5052 73.3793 27.7713 73.2102 28.123C73.0411 28.4746 72.9566 28.906 72.9566 29.4172C72.9566 29.9283 73.0421 30.3597 73.2131 30.7114C73.3842 31.063 73.6157 31.3292 73.9078 31.5098C74.1999 31.6904 74.5285 31.7807 74.8936 31.7807C75.2318 31.7807 75.5296 31.7087 75.7871 31.5646C76.0465 31.4185 76.2483 31.2129 76.3924 30.9477C76.5385 30.6806 76.6115 30.3664 76.6115 30.0052L76.8306 30.0513H75.055V29.4172H77.3033V30.0513C77.3033 30.5375 77.1995 30.9602 76.992 31.3196C76.7864 31.6789 76.502 31.9575 76.1388 32.1555C75.7775 32.3515 75.3624 32.4495 74.8936 32.4495C74.3709 32.4495 73.9116 32.3265 73.5158 32.0805C73.1219 31.8345 72.8144 31.4848 72.5934 31.0313C72.3743 30.5778 72.2648 30.0398 72.2648 29.4172C72.2648 28.9502 72.3273 28.5303 72.4522 28.1576C72.579 27.7828 72.7577 27.4639 72.9883 27.2006C73.2189 26.9373 73.4918 26.7356 73.8069 26.5953C74.122 26.455 74.4689 26.3849 74.8475 26.3849C75.1588 26.3849 75.4489 26.4319 75.7179 26.5261C75.9889 26.6183 76.2301 26.75 76.4414 26.921C76.6547 27.0901 76.8325 27.2928 76.9747 27.5292C77.1169 27.7636 77.2149 28.024 77.2687 28.3103H76.5308Z" fill="white"/>
<path d="M80.4876 27.0997V26.4656H84.915V27.0997H83.0587V32.3688H82.3439V27.0997H80.4876Z" fill="white"/>
<path d="M86.0182 32.3688V26.4656H86.7331V29.0943H89.8807V26.4656H90.5955V32.3688H89.8807V29.7285H86.7331V32.3688H86.0182Z" fill="white"/>
<path d="M92.0266 32.3688V26.4656H95.5893V27.0997H92.7415V29.0943H95.4048V29.7285H92.7415V31.7346H95.6354V32.3688H92.0266Z" fill="white"/>
<path d="M103.196 28.3103C103.133 28.1162 103.049 27.9423 102.945 27.7886C102.843 27.633 102.721 27.5004 102.579 27.3908C102.439 27.2813 102.279 27.1977 102.101 27.1401C101.922 27.0824 101.726 27.0536 101.513 27.0536C101.163 27.0536 100.845 27.1439 100.559 27.3245C100.272 27.5052 100.045 27.7713 99.8754 28.123C99.7063 28.4746 99.6218 28.906 99.6218 29.4172C99.6218 29.9283 99.7073 30.3597 99.8783 30.7114C100.049 31.063 100.281 31.3292 100.573 31.5098C100.865 31.6904 101.194 31.7807 101.559 31.7807C101.897 31.7807 102.195 31.7087 102.452 31.5646C102.712 31.4185 102.913 31.2129 103.058 30.9477C103.204 30.6806 103.277 30.3664 103.277 30.0052L103.496 30.0513H101.72V29.4172H103.968V30.0513C103.968 30.5375 103.865 30.9602 103.657 31.3196C103.452 31.6789 103.167 31.9575 102.804 32.1555C102.443 32.3515 102.028 32.4495 101.559 32.4495C101.036 32.4495 100.577 32.3265 100.181 32.0805C99.787 31.8345 99.4796 31.4848 99.2586 31.0313C99.0395 30.5778 98.93 30.0398 98.93 29.4172C98.93 28.9502 98.9925 28.5303 99.1174 28.1576C99.2442 27.7828 99.4229 27.4639 99.6535 27.2006C99.8841 26.9373 100.157 26.7356 100.472 26.5953C100.787 26.455 101.134 26.3849 101.513 26.3849C101.824 26.3849 102.114 26.4319 102.383 26.5261C102.654 26.6183 102.895 26.75 103.107 26.921C103.32 27.0901 103.498 27.2928 103.64 27.5292C103.782 27.7636 103.88 28.024 103.934 28.3103H103.196Z" fill="white"/>
<path d="M105.253 32.3688H104.503L106.671 26.4656H107.409L109.576 32.3688H108.827L107.063 27.3995H107.017L105.253 32.3688ZM105.529 30.0628H108.55V30.697H105.529V30.0628Z" fill="white"/>
<path d="M110.496 32.3688V26.4656H112.49C112.953 26.4656 113.332 26.5492 113.626 26.7163C113.922 26.8816 114.141 27.1055 114.283 27.3879C114.425 27.6704 114.496 27.9856 114.496 28.3334C114.496 28.6812 114.425 28.9973 114.283 29.2817C114.143 29.5661 113.926 29.7928 113.632 29.9619C113.338 30.1291 112.961 30.2127 112.502 30.2127H111.072V29.5786H112.479C112.796 29.5786 113.05 29.5238 113.243 29.4143C113.435 29.3048 113.574 29.1568 113.661 28.9704C113.749 28.7821 113.793 28.5697 113.793 28.3334C113.793 28.097 113.749 27.8856 113.661 27.6992C113.574 27.5129 113.434 27.3668 113.24 27.2611C113.046 27.1535 112.788 27.0997 112.467 27.0997H111.211V32.3688H110.496Z" fill="white"/>
</svg>
