<svg width="18" height="18" viewBox="0 0 18 18" fill="none" xmlns="http://www.w3.org/2000/svg">
<path d="M9.87738 1.5C6.21738 1.5 3.25488 4.26749 3.25488 7.67999C3.25488 7.87499 3.26239 8.0625 3.28489 8.25C3.95239 7.815 4.75489 7.56752 5.62489 7.56752C7.90489 7.56752 9.74989 9.29249 9.74989 11.4225C9.74989 12.315 9.41989 13.14 8.86489 13.7925C9.19489 13.8375 9.53238 13.86 9.87738 13.86L13.0199 15.7275C13.5524 16.05 14.2199 15.615 14.1449 14.9925L13.8524 12.6225C15.4574 11.4975 16.4999 9.70499 16.4999 7.67999C16.4999 5.37749 15.1499 3.36751 13.1399 2.30251" stroke="#292D32" stroke-width="1.5" stroke-linecap="round" stroke-linejoin="round"/>
<path d="M3.285 8.24998C3.9525 7.81498 4.755 7.5675 5.625 7.5675C7.905 7.5675 9.75 9.29247 9.75 11.4225C9.75 12.315 9.42001 13.14 8.86501 13.7925C8.12251 14.6925 6.945 15.27 5.625 15.27L3.6675 16.4325C3.3375 16.635 2.9175 16.3575 2.9625 15.975L3.15 14.4975C2.145 13.8 1.5 12.6825 1.5 11.4225C1.5 11.1975 1.5225 10.98 1.56 10.77" stroke="#292D32" stroke-width="1.5" stroke-linecap="round" stroke-linejoin="round"/>
</svg>
