<svg width="16" height="18" viewBox="0 0 16 18" fill="none" xmlns="http://www.w3.org/2000/svg">
<path d="M11.2027 6.82495L9.72518 6.18745C9.60518 6.13495 9.50018 5.97745 9.50018 5.84245V3.59245C9.50018 2.88745 8.98268 2.05495 8.35268 1.73245C8.12768 1.61995 7.86518 1.61995 7.64018 1.73245C7.01018 2.05495 6.49268 2.89495 6.49268 3.59995V5.84995C6.49268 5.98495 6.38768 6.14245 6.26768 6.19495L2.08268 8.00245C1.61768 8.18995 1.24268 8.76745 1.24268 9.26995V10.2374C1.24268 10.8674 1.71518 11.1749 2.29268 10.9274L5.97518 9.33745C6.26018 9.20995 6.50018 9.36745 6.50018 9.68245V11.8199C6.50018 11.9924 6.40268 12.2324 6.28268 12.3524L4.58018 14.0624C4.40018 14.2424 4.31768 14.5874 4.40018 14.8349L4.73018 15.8324C4.86518 16.2674 5.36018 16.4774 5.76518 16.2674L7.51268 14.7974C7.77518 14.5724 8.21018 14.5724 8.47268 14.7974L10.2202 16.2674C10.6252 16.4699 11.1202 16.2674 11.2702 15.8324L11.6002 14.8349C11.6827 14.5949 11.6002 14.2424 11.4202 14.0624L9.71768 12.3524C9.59018 12.2324 9.49268 11.9924 9.49268 11.8199V9.68245C9.49268 9.36745 9.72518 9.21745 10.0177 9.33745L13.7002 10.9274C14.2777 11.1749 14.7502 10.8674 14.7502 10.2374V9.26995C14.7502 8.76745 14.3752 8.18995 13.9102 7.99495" stroke="#292D32" stroke-width="1.5" stroke-linecap="round" stroke-linejoin="round"/>
</svg>
