<svg width="16" height="18" viewBox="0 0 16 18" fill="none" xmlns="http://www.w3.org/2000/svg">
<path d="M9.50001 12H11.0949C11.9852 12 12.8296 12.3955 13.3995 13.0794L14.1998 14.0397C15.0139 15.0167 14.3192 16.5 13.0474 16.5H2.95257C1.68082 16.5 0.986083 15.0167 1.80024 14.0397L2.60047 13.0794C3.17045 12.3955 4.0148 12 4.90514 12H6.50001" stroke="#28303F" stroke-width="1.5" stroke-linecap="round" stroke-linejoin="round"/>
<path d="M8 4.5C8.82843 4.5 9.5 3.82843 9.5 3C9.5 2.17157 8.82843 1.5 8 1.5C7.17157 1.5 6.5 2.17157 6.5 3C6.5 3.82843 7.17157 4.5 8 4.5ZM8 4.5C9.65685 4.5 11 5.84315 11 7.5V9C11 9.41421 10.6642 9.75 10.25 9.75C9.83579 9.75 9.5 10.0858 9.5 10.5V12.75C9.5 13.5784 8.82843 14.25 8 14.25C7.17157 14.25 6.5 13.5784 6.5 12.75V10.5C6.5 10.0858 6.16421 9.75 5.75 9.75C5.33579 9.75 5 9.41421 5 9V7.5C5 5.84315 6.34315 4.5 8 4.5Z" stroke="#28303F" stroke-width="1.5" stroke-linejoin="round"/>
</svg>
