<svg width="18" height="18" viewBox="0 0 18 18" fill="none" xmlns="http://www.w3.org/2000/svg">
<path d="M11.265 2.25751C10.635 1.77751 9.855 1.5 9 1.5C6.93 1.5 5.25 3.18 5.25 5.25C5.25 7.32 6.93 9 9 9C11.07 9 12.75 7.32 12.75 5.25" stroke="#292D32" stroke-width="1.5" stroke-linecap="round" stroke-linejoin="round"/>
<path d="M2.55762 16.5C2.55762 13.5975 5.44514 11.25 9.00014 11.25" stroke="#292D32" stroke-width="1.5" stroke-linecap="round" stroke-linejoin="round"/>
<path d="M13.65 16.05C14.9755 16.05 16.05 14.9755 16.05 13.65C16.05 12.3245 14.9755 11.25 13.65 11.25C12.3245 11.25 11.25 12.3245 11.25 13.65C11.25 14.9755 12.3245 16.05 13.65 16.05Z" stroke="#292D32" stroke-width="1.5" stroke-linecap="round" stroke-linejoin="round"/>
<path d="M16.5 16.5L15.75 15.75" stroke="#292D32" stroke-width="1.5" stroke-linecap="round" stroke-linejoin="round"/>
</svg>
