<svg width="18" height="17" viewBox="0 0 18 17" fill="none" xmlns="http://www.w3.org/2000/svg">
<path d="M11.25 8.27477C11.25 7.13008 10.245 6.20605 9 6.20605C7.755 6.20605 6.75 7.13008 6.75 8.27477C6.75 9.41945 7.755 10.3435 9 10.3435C9.3075 10.3435 9.6075 10.2883 9.8775 10.178" stroke="#292D32" stroke-width="1.5" stroke-miterlimit="10" stroke-linecap="round" stroke-linejoin="round"/>
<path d="M5.16003 14.191L5.97753 14.6255C6.57003 14.9496 7.33503 14.7565 7.68753 14.2117L7.77003 14.0807C8.44503 12.9981 9.55503 12.9981 10.2375 14.0807L10.32 14.2117C10.6725 14.7565 11.4375 14.9496 12.03 14.6255L13.3275 13.9428C14.01 13.5842 14.2425 12.7774 13.8525 12.1568C13.17 11.0742 13.725 10.1915 15.0825 10.1915C15.8625 10.1915 16.5075 9.6054 16.5075 8.88135V7.66771C16.5075 6.95056 15.87 6.35753 15.0825 6.35753C14.325 6.35753 13.815 6.0817 13.635 5.64727C13.4925 5.30938 13.5525 4.86806 13.8525 4.39225C14.2425 3.76474 14.01 2.96484 13.3275 2.60626L12.72 2.28906" stroke="#292D32" stroke-width="1.5" stroke-miterlimit="10" stroke-linecap="round" stroke-linejoin="round"/>
<path d="M10.23 2.46823C9.555 3.55085 8.445 3.55085 7.7625 2.46823L7.68 2.33721C7.335 1.79245 6.57 1.59937 5.9775 1.92347L4.68 2.60614C3.9975 2.96472 3.765 3.77152 4.155 4.39903C4.8375 5.47476 4.2825 6.35741 2.925 6.35741C2.145 6.35741 1.5 6.94354 1.5 7.66759V8.88123C1.5 9.59839 2.1375 10.1914 2.925 10.1914C4.2825 10.1914 4.8375 11.0741 4.155 12.1567" stroke="#292D32" stroke-width="1.5" stroke-miterlimit="10" stroke-linecap="round" stroke-linejoin="round"/>
</svg>
