<svg width="180" height="46" viewBox="0 0 180 46" fill="none" xmlns="http://www.w3.org/2000/svg">
<g clip-path="url(#clip0_915_162400)">
<rect width="180" height="46" fill="#FCFCFC"/>
<path d="M18.2374 12.5584C18.2374 12.0264 18.6687 11.5951 19.2008 11.5951H25.8839C26.2496 11.5951 26.5462 11.8916 26.5462 12.2574V12.2574C26.5462 12.6232 26.2496 12.9197 25.8839 12.9197H20.706C20.1739 12.9197 19.7426 13.351 19.7426 13.883V18.0675C19.7426 18.4831 19.4057 18.8201 18.99 18.8201V18.8201C18.5744 18.8201 18.2374 18.4831 18.2374 18.0675V12.5584Z" fill="#090817"/>
<path d="M48.1007 12.5584C48.1007 12.0264 47.6694 11.5951 47.1374 11.5951H40.4543C40.0885 11.5951 39.792 11.8916 39.792 12.2574V12.2574C39.792 12.6232 40.0885 12.9197 40.4543 12.9197H45.6322C46.1642 12.9197 46.5955 13.351 46.5955 13.883V18.0675C46.5955 18.4831 46.9325 18.8201 47.3481 18.8201V18.8201C47.7638 18.8201 48.1007 18.4831 48.1007 18.0675V12.5584Z" fill="#090817"/>
<path d="M48.1007 34.9559C48.1007 35.4879 47.6694 35.9192 47.1374 35.9192H40.4543C40.0885 35.9192 39.792 35.6227 39.792 35.2569V35.2569C39.792 34.8911 40.0885 34.5946 40.4543 34.5946H45.6322C46.1642 34.5946 46.5955 34.1633 46.5955 33.6313V29.4468C46.5955 29.0312 46.9325 28.6942 47.3481 28.6942V28.6942C47.7638 28.6942 48.1007 29.0312 48.1007 29.4468V34.9559Z" fill="#090817"/>
<path d="M18.2374 34.9559C18.2374 35.4879 18.6687 35.9192 19.2008 35.9192H25.8839C26.2496 35.9192 26.5462 35.6227 26.5462 35.2569V35.2569C26.5462 34.8911 26.2496 34.5946 25.8839 34.5946H20.706C20.1739 34.5946 19.7426 34.1633 19.7426 33.6313V29.4468C19.7426 29.0312 19.4057 28.6942 18.99 28.6942V28.6942C18.5744 28.6942 18.2374 29.0312 18.2374 29.4468V34.9559Z" fill="#090817"/>
<rect x="21.1274" y="14.4851" width="3.01041" height="2.40833" fill="#090817"/>
<rect x="21.8499" y="14.9666" width="1.68583" height="1.445" fill="#92ACDF"/>
<rect x="21.1876" y="14.5453" width="2.88999" height="2.28791" stroke="#92ACDF" stroke-width="0.120416"/>
<rect x="21.1274" y="30.613" width="3.01041" height="2.40833" fill="#090817"/>
<rect x="21.8499" y="31.095" width="1.68583" height="1.445" fill="#92ACDF"/>
<rect x="21.1876" y="30.6732" width="2.88999" height="2.28791" stroke="#92ACDF" stroke-width="0.120416"/>
<rect x="42.2003" y="14.4851" width="3.01041" height="2.40833" fill="#090817"/>
<rect x="42.9229" y="14.9666" width="1.68583" height="1.445" fill="#92ACDF"/>
<rect x="42.2605" y="14.5453" width="2.88999" height="2.28791" stroke="#92ACDF" stroke-width="0.120416"/>
<rect x="42.2003" y="30.621" width="3.01041" height="2.40833" fill="#090817"/>
<rect x="42.9229" y="31.1025" width="1.68583" height="1.445" fill="#92ACDF"/>
<rect x="42.2605" y="30.6812" width="2.88999" height="2.28791" stroke="#92ACDF" stroke-width="0.120416"/>
<ellipse cx="33.2893" cy="23.0347" rx="6.98415" ry="6.74332" fill="#090817"/>
<circle cx="33.2637" cy="23.0572" r="6.14124" transform="rotate(1.34804 33.2637 23.0572)" fill="#B7C8EA"/>
<path d="M32.1131 18.624C31.4691 18.5314 30.8188 18.6014 30.2192 18.828C29.6195 19.0545 29.0889 19.4307 28.6739 19.9234C28.2589 20.4161 27.9722 21.0104 27.8389 21.654C27.7056 22.2976 27.7298 22.9709 27.9094 23.6148L28.6928 23.4134C28.5502 22.9023 28.531 22.3678 28.6368 21.8568C28.7426 21.3459 28.9702 20.8742 29.2997 20.483C29.6291 20.0919 30.0503 19.7933 30.5264 19.6134C31.0024 19.4336 31.5187 19.3779 32.0299 19.4515L32.1131 18.624Z" fill="white"/>
<line x1="16.672" y1="22.9745" x2="50.509" y2="22.9745" stroke="#090817" stroke-width="0.120416"/>
<path d="M63.7825 19.1448V19.4833C63.399 19.4945 63.1057 19.5397 62.9026 19.6186C62.7109 19.6863 62.5811 19.8217 62.5134 20.0247C62.4458 20.2165 62.4119 20.5211 62.4119 20.9385V29.4667C62.4119 29.8277 62.4401 30.1041 62.4965 30.2959C62.5642 30.4764 62.6827 30.5948 62.8519 30.6512C63.0211 30.7076 63.2636 30.7358 63.5795 30.7358H64.544C64.9839 30.7358 65.3675 30.6568 65.6946 30.4989C66.033 30.341 66.3263 30.1097 66.5745 29.8052C66.8227 29.5006 67.0257 29.1283 67.1837 28.6884C67.3416 28.2371 67.4544 27.7295 67.5221 27.1655H67.9113C67.8774 27.5377 67.8605 28.0228 67.8605 28.6207C67.8605 28.8688 67.8662 29.2242 67.8774 29.6867C67.9 30.1492 67.9339 30.6286 67.979 31.125C67.4037 31.1024 66.755 31.0912 66.033 31.0912C65.3111 31.0799 64.6681 31.0742 64.104 31.0742C63.8333 31.0742 63.4892 31.0742 63.0718 31.0742C62.6545 31.0742 62.1976 31.0799 61.7012 31.0912C61.2162 31.0912 60.7198 31.0968 60.2122 31.1081C59.7158 31.1081 59.242 31.1137 58.7908 31.125V30.7866C59.1631 30.764 59.4394 30.7189 59.6199 30.6512C59.8117 30.5835 59.9358 30.4482 59.9922 30.2451C60.0599 30.042 60.0937 29.7375 60.0937 29.3314V20.9385C60.0937 20.5211 60.0599 20.2165 59.9922 20.0247C59.9358 19.8217 59.8117 19.6863 59.6199 19.6186C59.4394 19.5397 59.1631 19.4945 58.7908 19.4833V19.1448C59.0728 19.1561 59.4338 19.1674 59.8738 19.1787C60.3137 19.19 60.7875 19.1956 61.2951 19.1956C61.7576 19.1956 62.2145 19.19 62.6657 19.1787C63.117 19.1674 63.4892 19.1561 63.7825 19.1448ZM76.9901 22.1906V29.2975C76.9901 29.8052 77.0747 30.1831 77.2439 30.4312C77.4132 30.6681 77.7121 30.7866 78.1408 30.7866V31.1419C77.7911 31.1081 77.4414 31.0912 77.0917 31.0912C76.6743 31.0912 76.2738 31.1081 75.8903 31.1419C75.518 31.1758 75.1739 31.2378 74.8581 31.3281V29.6359C74.5761 30.2564 74.1869 30.702 73.6905 30.9727C73.2054 31.2322 72.6809 31.3619 72.1168 31.3619C71.6769 31.3619 71.3046 31.2999 71.0001 31.1758C70.7068 31.063 70.4699 30.905 70.2894 30.702C70.0976 30.4876 69.9622 30.2056 69.8833 29.8559C69.8043 29.5062 69.7648 29.055 69.7648 28.5022V24.2212C69.7648 23.7135 69.6802 23.3413 69.511 23.1044C69.3531 22.8562 69.0541 22.7321 68.6142 22.7321V22.3768C68.9752 22.4106 69.3249 22.4275 69.6633 22.4275C70.0807 22.4275 70.4755 22.4106 70.8478 22.3768C71.2313 22.3317 71.581 22.2696 71.8969 22.1906V29.0945C71.8969 29.399 71.9194 29.6698 71.9646 29.9067C72.021 30.1436 72.1281 30.3353 72.2861 30.482C72.444 30.6174 72.6809 30.6851 72.9967 30.6851C73.3465 30.6851 73.6623 30.5835 73.9443 30.3805C74.2263 30.1774 74.4463 29.901 74.6043 29.5513C74.7735 29.2016 74.8581 28.8068 74.8581 28.3669V24.2212C74.8581 23.7135 74.7735 23.3413 74.6043 23.1044C74.4463 22.8562 74.1474 22.7321 73.7074 22.7321V22.3768C74.0684 22.4106 74.4181 22.4275 74.7565 22.4275C75.1739 22.4275 75.5688 22.4106 75.941 22.3768C76.3246 22.3317 76.6743 22.2696 76.9901 22.1906ZM83.2455 22.1399C83.6629 22.1399 84.0465 22.1906 84.3962 22.2922C84.7571 22.3824 85.0674 22.5121 85.3268 22.6814C85.5976 22.8506 85.8119 23.0649 85.9698 23.3244C86.1278 23.5725 86.2067 23.8489 86.2067 24.1535C86.2067 24.5258 86.0939 24.8247 85.8683 25.0503C85.6427 25.2759 85.3607 25.3887 85.0222 25.3887C84.6725 25.3887 84.3849 25.2872 84.1593 25.0842C83.9449 24.8811 83.8378 24.6104 83.8378 24.2719C83.8378 23.9448 83.9337 23.6741 84.1254 23.4597C84.3172 23.2454 84.5485 23.1044 84.8192 23.0367C84.7177 22.8901 84.5597 22.7716 84.3454 22.6814C84.1311 22.5798 83.8942 22.5291 83.6347 22.5291C83.2963 22.5291 82.9917 22.6193 82.721 22.7998C82.4502 22.969 82.2133 23.2285 82.0103 23.5782C81.8185 23.9166 81.6662 24.3396 81.5534 24.8473C81.4519 25.3436 81.4011 25.9189 81.4011 26.5732C81.4011 27.487 81.5083 28.2089 81.7226 28.7391C81.9482 29.2693 82.2359 29.6472 82.5856 29.8728C82.9353 30.0872 83.3076 30.1943 83.7024 30.1943C83.9393 30.1943 84.1931 30.1492 84.4638 30.059C84.7346 29.9687 84.9997 29.8164 85.2591 29.6021C85.5299 29.3878 85.7724 29.0832 85.9868 28.6884L86.3083 28.8068C86.1842 29.2016 85.9811 29.5965 85.6991 29.9913C85.4284 30.3861 85.073 30.7133 84.6331 30.9727C84.1931 31.2322 83.6573 31.3619 83.0256 31.3619C82.3036 31.3619 81.6493 31.1983 81.0627 30.8712C80.4761 30.5328 80.008 30.0251 79.6582 29.3483C79.3198 28.6714 79.1506 27.831 79.1506 26.827C79.1506 25.8343 79.3255 24.9939 79.6752 24.3058C80.0249 23.6064 80.5099 23.0705 81.1304 22.6983C81.7621 22.326 82.4672 22.1399 83.2455 22.1399ZM89.3568 18.0619C89.7629 18.0619 90.0957 18.1747 90.3552 18.4003C90.6146 18.6259 90.7444 18.9249 90.7444 19.2971C90.7444 19.6694 90.6146 19.9683 90.3552 20.194C90.0957 20.4196 89.7629 20.5324 89.3568 20.5324C88.9507 20.5324 88.6179 20.4196 88.3585 20.194C88.099 19.9683 87.9693 19.6694 87.9693 19.2971C87.9693 18.9249 88.099 18.6259 88.3585 18.4003C88.6179 18.1747 88.9507 18.0619 89.3568 18.0619ZM90.5413 22.1906V29.5513C90.5413 30.0251 90.6259 30.3466 90.7951 30.5158C90.9756 30.6851 91.2746 30.7697 91.6919 30.7697V31.125C91.4889 31.1137 91.1787 31.1024 90.7613 31.0912C90.3439 31.0686 89.9209 31.0573 89.4922 31.0573C89.0748 31.0573 88.6518 31.0686 88.2231 31.0912C87.7944 31.1024 87.4729 31.1137 87.2586 31.125V30.7697C87.676 30.7697 87.9693 30.6851 88.1385 30.5158C88.319 30.3466 88.4092 30.0251 88.4092 29.5513V24.2381C88.4092 23.7192 88.3246 23.3413 88.1554 23.1044C87.9975 22.8562 87.6986 22.7321 87.2586 22.7321V22.3768C87.6196 22.4106 87.9693 22.4275 88.3077 22.4275C88.7251 22.4275 89.1199 22.4106 89.4922 22.3768C89.8757 22.3317 90.2254 22.2696 90.5413 22.1906ZM100.569 17.8758V29.2806C100.569 29.7882 100.654 30.1661 100.823 30.4143C100.992 30.6512 101.291 30.7697 101.72 30.7697V31.125C101.37 31.0912 101.02 31.0742 100.671 31.0742C100.253 31.0742 99.8584 31.0912 99.4861 31.125C99.1138 31.1588 98.7641 31.2209 98.437 31.3111V19.9063C98.437 19.3987 98.3524 19.0264 98.1832 18.7895C98.0253 18.5413 97.7263 18.4172 97.2864 18.4172V18.0619C97.6473 18.0957 97.997 18.1127 98.3355 18.1127C98.7641 18.1127 99.1646 18.0957 99.5369 18.0619C99.9091 18.0168 100.253 17.9547 100.569 17.8758ZM96.5249 22.1399C97.0213 22.1399 97.4669 22.2358 97.8617 22.4275C98.2565 22.6193 98.5498 22.9408 98.7416 23.392L98.5385 23.5613C98.3806 23.2341 98.1663 22.9916 97.8955 22.8336C97.6248 22.6757 97.3202 22.5968 96.9818 22.5968C96.3726 22.5968 95.8819 22.9408 95.5096 23.6289C95.1487 24.3058 94.9682 25.3493 94.9682 26.7593C94.9682 27.7069 95.0415 28.474 95.1881 29.0606C95.3348 29.6359 95.5435 30.0533 95.8142 30.3128C96.0962 30.5722 96.429 30.702 96.8126 30.702C97.2187 30.702 97.5853 30.5384 97.9124 30.2113C98.2396 29.8728 98.4314 29.3934 98.4878 28.773L98.6062 29.2468C98.4596 29.9349 98.1832 30.4594 97.7771 30.8204C97.371 31.1814 96.8351 31.3619 96.1696 31.3619C95.4927 31.3619 94.8892 31.1983 94.359 30.8712C93.8401 30.5328 93.434 30.0251 93.1407 29.3483C92.8587 28.6602 92.7177 27.7915 92.7177 26.7424C92.7177 25.7159 92.8869 24.8642 93.2253 24.1873C93.5637 23.4992 94.0206 22.9859 94.5959 22.6475C95.1712 22.3091 95.8142 22.1399 96.5249 22.1399Z" fill="#090817"/>
<g clip-path="url(#clip1_915_162400)">
<path d="M152.182 22V25.8L146.182 30.4L140.182 25.8V22L146.182 26.6L152.182 22Z" fill="#090817"/>
</g>
</g>
<defs>
<clipPath id="clip0_915_162400">
<rect width="180" height="46" fill="white"/>
</clipPath>
<clipPath id="clip1_915_162400">
<rect width="40" height="18" fill="white" transform="translate(126.182 17)"/>
</clipPath>
</defs>
</svg>
