<svg width="22" height="22" viewBox="0 0 22 22" fill="none" xmlns="http://www.w3.org/2000/svg">
<path fill-rule="evenodd" clip-rule="evenodd" d="M0 11C0 17.0751 4.92487 22 11 22C17.0751 22 22 17.0751 22 11C22 4.92487 17.0751 0 11 0C4.92487 0 0 4.92487 0 11ZM11 20C6.02944 20 2 15.9706 2 11C2 6.02944 6.02944 2 11 2C15.9706 2 20 6.02944 20 11C20 15.9706 15.9706 20 11 20ZM11 12.0858L7.70711 8.79289C7.31658 8.40237 6.68342 8.40237 6.29289 8.79289C5.90237 9.18342 5.90237 9.81658 6.29289 10.2071L10.2929 14.2071C10.6834 14.5976 11.3166 14.5976 11.7071 14.2071L15.7071 10.2071C16.0976 9.81658 16.0976 9.18342 15.7071 8.79289C15.3166 8.40237 14.6834 8.40237 14.2929 8.79289L11 12.0858Z" fill="#C7C7C7"/>
</svg>
