<svg width="18" height="10" viewBox="0 0 18 10" fill="none" xmlns="http://www.w3.org/2000/svg">
<path fill-rule="evenodd" clip-rule="evenodd" d="M0.251051 0.251051C0.585786 -0.0836838 1.1285 -0.0836838 1.46323 0.251051L8.85714 7.64496L16.2511 0.251051C16.5858 -0.0836838 17.1285 -0.0836838 17.4632 0.251051C17.798 0.585786 17.798 1.1285 17.4632 1.46323L9.90151 9.02495C9.76836 9.16362 9.60889 9.27442 9.43237 9.35083C9.25079 9.42944 9.05502 9.47 8.85714 9.47C8.65927 9.47 8.4635 9.42944 8.28192 9.35083C8.1054 9.27442 7.94593 9.16362 7.81277 9.02495L0.251051 1.46323C-0.0836838 1.1285 -0.0836838 0.585786 0.251051 0.251051Z" fill="#14323E"/>
</svg>
