<svg width="22" height="22" viewBox="0 0 22 22" fill="none" xmlns="http://www.w3.org/2000/svg">
<path fill-rule="evenodd" clip-rule="evenodd" d="M22 11C22 17.0751 17.0751 22 11 22C4.92487 22 0 17.0751 0 11C0 4.92487 4.92487 0 11 0C17.0751 0 22 4.92487 22 11ZM11 20C15.9706 20 20 15.9706 20 11C20 6.02944 15.9706 2 11 2C6.02944 2 2 6.02944 2 11C2 15.9706 6.02944 20 11 20ZM11 12.0858L14.2929 8.79289C14.6834 8.40237 15.3166 8.40237 15.7071 8.79289C16.0976 9.18342 16.0976 9.81658 15.7071 10.2071L11.7071 14.2071C11.3166 14.5976 10.6834 14.5976 10.2929 14.2071L6.29289 10.2071C5.90237 9.81658 5.90237 9.18342 6.29289 8.79289C6.68342 8.40237 7.31658 8.40237 7.70711 8.79289L11 12.0858Z" fill="#4FB278"/>
</svg>
