<svg width="14" height="21" viewBox="0 0 14 21" fill="none" xmlns="http://www.w3.org/2000/svg">
<path fill-rule="evenodd" clip-rule="evenodd" d="M5.46447 1.3979C6.40215 0.502839 7.67392 0 9 0C10.3261 0 11.5979 0.50284 12.5355 1.3979C13.4732 2.29296 14 3.50692 14 4.77273V14.3182C14 16.0903 13.2625 17.7899 11.9497 19.0429C10.637 20.296 8.85651 21 7 21C5.14349 21 3.36301 20.296 2.05025 19.0429C0.737498 17.7899 0 16.0903 0 14.3182V6.59591C0 6.06873 0.447715 5.64136 1 5.64136C1.55228 5.64136 2 6.06873 2 6.59591V14.3182C2 15.584 2.52678 16.798 3.46447 17.693C4.40215 18.5881 5.67392 19.0909 7 19.0909C8.32608 19.0909 9.59785 18.5881 10.5355 17.693C11.4732 16.798 12 15.584 12 14.3182V4.77273C12 4.01324 11.6839 3.28487 11.1213 2.74783C10.5587 2.21079 9.79565 1.90909 9 1.90909C8.20435 1.90909 7.44129 2.21079 6.87868 2.74783C6.31607 3.28487 6 4.01324 6 4.77273V13.5374C6 13.6627 6.02587 13.7868 6.07612 13.9027C6.12638 14.0185 6.20004 14.1237 6.29289 14.2123C6.38575 14.301 6.49599 14.3713 6.61732 14.4192C6.73864 14.4672 6.86868 14.4919 7 14.4919C7.26522 14.4919 7.51957 14.3913 7.70711 14.2123C7.89464 14.0333 8 13.7905 8 13.5374V6.68182C8 6.15464 8.44772 5.72727 9 5.72727C9.55229 5.72727 10 6.15464 10 6.68182V13.5374C10 14.2968 9.68393 15.0252 9.12132 15.5623C8.55871 16.0993 7.79565 16.401 7 16.401C6.60603 16.401 6.21593 16.3269 5.85195 16.183C5.48798 16.0391 5.15726 15.8282 4.87868 15.5623C4.6001 15.2963 4.37913 14.9807 4.22836 14.6332C4.0776 14.2858 4 13.9134 4 13.5374V4.77273C4 3.50692 4.52678 2.29296 5.46447 1.3979Z" fill="#14323E"/>
</svg>
