<svg width="16" height="14" viewBox="0 0 16 14" fill="none" xmlns="http://www.w3.org/2000/svg">
<path d="M12.4 6.18799C10.41 6.18799 8.8 7.82314 8.8 9.84424C8.8 11.8653 10.4095 13.5005 12.4 13.5005C14.3905 13.5005 16 11.8658 16 9.84424C16 7.82264 14.39 6.18799 12.4 6.18799ZM13.6 10.2505H12.2438C12.11 10.2505 12 10.1388 12 10.0042V8.21924C12 7.9958 12.18 7.81299 12.4 7.81299C12.62 7.81299 12.8 7.9958 12.8 8.21924V9.43799H13.6C13.821 9.43799 14 9.61984 14 9.84424C14 10.0677 13.82 10.2505 13.6 10.2505ZM8.0025 9.43799H5.2C4.98 9.43799 4.8 9.25518 4.8 9.03174V7.81299H0V11.4692C0 12.1192 0.56025 12.688 1.2 12.688H9.005C8.3775 11.9161 8 10.9233 8 9.84424C8 9.70713 8.0125 9.57256 8.0025 9.43799ZM12.4 5.37549C12.5351 5.37549 12.668 5.38387 12.8 5.39598V4.15674C12.8 3.50674 12.24 2.93799 11.6 2.93799H9.6V1.71924C9.6 1.06949 9.04 0.500488 8.4 0.500488H4.4C3.76 0.500488 3.2 1.06949 3.2 1.71924V2.93799H1.2C0.56025 2.93799 0 3.50674 0 4.15674V7.00049H9.005C9.8125 6.00771 11.0325 5.37549 12.4 5.37549ZM8.4 2.93799H4.4V1.71924H8.4V2.93799Z" fill="#4FB278"/>
</svg>
