<svg width="14" height="15" viewBox="0 0 14 15" fill="none" xmlns="http://www.w3.org/2000/svg">
<path fill-rule="evenodd" clip-rule="evenodd" d="M7 1.75C3.96243 1.75 1.5 4.21243 1.5 7.25C1.5 10.2876 3.96243 12.75 7 12.75C10.0376 12.75 12.5 10.2876 12.5 7.25C12.5 4.21243 10.0376 1.75 7 1.75ZM0 7.25C0 3.38401 3.13401 0.25 7 0.25C10.866 0.25 14 3.38401 14 7.25C14 11.116 10.866 14.25 7 14.25C3.13401 14.25 0 11.116 0 7.25Z" fill="white"/>
<path fill-rule="evenodd" clip-rule="evenodd" d="M11.7803 2.46967C12.0732 2.76256 12.0732 3.23744 11.7803 3.53033L3.78033 11.5303C3.48744 11.8232 3.01256 11.8232 2.71967 11.5303C2.42678 11.2374 2.42678 10.7626 2.71967 10.4697L10.7197 2.46967C11.0126 2.17678 11.4874 2.17678 11.7803 2.46967Z" fill="white"/>
</svg>
