<svg width="16" height="13" viewBox="0 0 16 13" fill="none" xmlns="http://www.w3.org/2000/svg">
<path d="M1.14286 3.42857H14.8571V2.28571C14.8571 1.98261 14.7367 1.69192 14.5224 1.47759C14.3081 1.26327 14.0174 1.14286 13.7143 1.14286H2.28571C1.98261 1.14286 1.69192 1.26327 1.47759 1.47759C1.26326 1.69192 1.14286 1.98261 1.14286 2.28571V3.42857ZM1.14286 4.57143V10.2857C1.14286 10.5888 1.26326 10.8795 1.47759 11.0938C1.69192 11.3082 1.98261 11.4286 2.28571 11.4286H13.7143C14.0174 11.4286 14.3081 11.3082 14.5224 11.0938C14.7367 10.8795 14.8571 10.5888 14.8571 10.2857V4.57143H1.14286ZM2.28571 0H13.7143C14.3205 0 14.9019 0.240816 15.3305 0.66947C15.7592 1.09812 16 1.67951 16 2.28571V10.2857C16 10.8919 15.7592 11.4733 15.3305 11.902C14.9019 12.3306 14.3205 12.5714 13.7143 12.5714H2.28571C1.67951 12.5714 1.09812 12.3306 0.66947 11.902C0.240816 11.4733 0 10.8919 0 10.2857V2.28571C0 1.67951 0.240816 1.09812 0.66947 0.66947C1.09812 0.240816 1.67951 0 2.28571 0Z" fill="white"/>
</svg>
