<svg width="16" height="16" viewBox="0 0 16 16" fill="none" xmlns="http://www.w3.org/2000/svg">
<path d="M14.4 3.60039H12V2.00039C12 1.11799 11.2824 0.400391 10.4 0.400391H5.6C4.7176 0.400391 4 1.11799 4 2.00039V3.60039H1.6C0.7176 3.60039 0 4.31799 0 5.20039V7.60039H16V5.20039C16 4.31799 15.2824 3.60039 14.4 3.60039ZM5.6 2.00039H10.4V3.60039H5.6V2.00039ZM9.6 10.0004H6.4V8.40039H0V14.0004C0 14.8828 0.7176 15.6004 1.6 15.6004H14.4C15.2824 15.6004 16 14.8828 16 14.0004V8.40039H9.6V10.0004Z" fill="#4FB278"/>
</svg>
