<svg width="22" height="22" viewBox="0 0 22 22" fill="none" xmlns="http://www.w3.org/2000/svg">
<path d="M1.83398 10.082C1.83398 8.2487 2.75065 7.33203 4.58398 7.33203H9.16732V17.4154C9.16732 19.2487 10.084 20.1654 11.9173 20.1654H4.58398C2.75065 20.1654 1.83398 19.2487 1.83398 17.4154V13.7487" stroke="#DB6255" stroke-width="1.5" stroke-miterlimit="10" stroke-linecap="round" stroke-linejoin="round"/>
<path d="M9.26814 3.66797C9.1948 3.94297 9.16732 4.24547 9.16732 4.58464V7.33464H4.58398V5.5013C4.58398 4.49297 5.40898 3.66797 6.41732 3.66797H9.26814Z" stroke="#DB6255" stroke-width="1.5" stroke-miterlimit="10" stroke-linecap="round" stroke-linejoin="round"/>
<path d="M12.834 7.33203V11.9154" stroke="#DB6255" stroke-width="1.5" stroke-miterlimit="10" stroke-linecap="round" stroke-linejoin="round"/>
<path d="M16.5 7.33203V11.9154" stroke="#DB6255" stroke-width="1.5" stroke-miterlimit="10" stroke-linecap="round" stroke-linejoin="round"/>
<path d="M15.584 15.582H13.7507C13.2465 15.582 12.834 15.9945 12.834 16.4987V20.1654H16.5007V16.4987C16.5007 15.9945 16.0882 15.582 15.584 15.582Z" stroke="#DB6255" stroke-width="1.5" stroke-miterlimit="10" stroke-linecap="round" stroke-linejoin="round"/>
<path d="M5.5 11.918V15.5846" stroke="#DB6255" stroke-width="1.5" stroke-miterlimit="10" stroke-linecap="round" stroke-linejoin="round"/>
<path d="M9.16602 17.4154V4.58203C9.16602 2.7487 10.0827 1.83203 11.916 1.83203H17.416C19.2493 1.83203 20.166 2.7487 20.166 4.58203V17.4154C20.166 19.2487 19.2493 20.1654 17.416 20.1654H11.916C10.0827 20.1654 9.16602 19.2487 9.16602 17.4154Z" stroke="#DB6255" stroke-width="1.5" stroke-miterlimit="10" stroke-linecap="round" stroke-linejoin="round"/>
</svg>
