<svg width="16" height="17" viewBox="0 0 16 17" fill="none" xmlns="http://www.w3.org/2000/svg">
<path d="M11.8415 16.0533C11.4048 15.9837 10.9696 15.9091 10.5445 15.7799C9.66662 15.5138 8.84238 15.1244 8.04354 14.6811C6.51168 13.8343 5.12341 12.7506 3.9302 11.47C2.37516 9.80212 1.10855 7.94924 0.364579 5.77187C0.127247 5.07712 -0.0182242 4.367 0.00184084 3.62554C0.0187707 3.00854 0.188383 2.44578 0.597522 1.98397C1.07006 1.44119 1.57959 0.931766 2.12247 0.459338C2.847 -0.161424 3.63393 -0.155781 4.33401 0.493198C5.10934 1.2124 5.8646 1.95669 6.5697 2.74644C7.08512 3.32425 7.07383 4.1419 6.57127 4.73633C6.19034 5.18685 5.75926 5.58815 5.33256 5.99604C5.23569 6.09009 5.22753 6.16 5.28491 6.2782C5.68276 7.08739 6.23863 7.78308 6.84497 8.43927C7.58393 9.2403 8.3975 9.95292 9.33523 10.5151C9.46941 10.5956 9.61457 10.6574 9.74625 10.7411C9.85316 10.8088 9.92213 10.7988 10.0143 10.7069C10.4093 10.3128 10.7868 9.90119 11.2057 9.5325C11.8791 8.94121 12.7259 8.94466 13.3755 9.57043C14.0891 10.2577 14.7893 10.9578 15.4761 11.671C16.1501 12.373 16.1733 13.2198 15.53 13.9452C15.0741 14.4591 14.5838 14.9447 14.0878 15.4203C13.7216 15.7715 13.2655 15.9649 12.7604 16.0339C12.735 16.0391 12.71 16.0458 12.6855 16.0539L11.8415 16.0533ZM12.228 15.2322C12.8407 15.235 13.3175 15.0582 13.6906 14.6481C14.0521 14.2503 14.4408 13.8797 14.8168 13.4963C14.8944 13.4189 14.9623 13.3324 15.019 13.2386C15.1811 12.9652 15.1792 12.6927 14.9986 12.431C14.9225 12.3252 14.8371 12.2265 14.7434 12.1359C14.1383 11.5315 13.5191 10.9411 12.9275 10.3241C12.3945 9.76858 11.9913 9.92627 11.5919 10.3295C11.2069 10.7184 10.8196 11.1051 10.43 11.4895C10.1836 11.7328 9.9074 11.7864 9.60109 11.629C9.28162 11.4647 8.95807 11.3064 8.65646 11.1085C7.68461 10.4671 6.80328 9.69807 6.03609 8.82207C5.40185 8.10475 4.82561 7.34698 4.43716 6.46349C4.25438 6.04933 4.29357 5.82078 4.62119 5.5104C5.03347 5.11913 5.44355 4.72661 5.82949 4.30806C6.18031 3.92871 6.19034 3.55782 5.82949 3.18756C5.14508 2.48591 4.44625 1.79805 3.75181 1.10644C3.64523 0.997358 3.50915 0.921742 3.36023 0.888855C3.04483 0.821449 2.80217 0.95971 2.58961 1.17102C2.19249 1.56396 1.79798 1.95857 1.40608 2.35486C1.30162 2.45675 1.20849 2.56965 1.12831 2.69157C0.805697 3.20104 0.805697 3.76066 0.884076 4.32562C0.984088 5.05925 1.23427 5.75055 1.52741 6.42618C2.23471 8.05646 3.24956 9.48516 4.44719 10.7841C5.99001 12.4604 7.80684 13.7587 9.90489 14.6557C10.667 14.9814 11.4571 15.2009 12.228 15.2322Z" fill="white"/>
</svg>
