<svg width="27" height="27" viewBox="0 0 27 27" fill="none" xmlns="http://www.w3.org/2000/svg">
<path d="M19.9856 26.9989C19.2485 26.8819 18.5141 26.7564 17.7966 26.5392C16.315 26.0915 14.9239 25.4366 13.5756 24.691C10.9902 23.267 8.64711 21.4443 6.63326 19.2906C4.00871 16.4855 1.87098 13.3693 0.615324 9.7073C0.214763 8.53885 -0.0307582 7.34456 0.00310691 6.09754C0.0316806 5.05985 0.317947 4.11338 1.00848 3.33669C1.80601 2.42384 2.66598 1.56707 3.58223 0.772528C4.80507 -0.271487 6.13322 -0.261997 7.3148 0.829474C8.62336 2.03906 9.89807 3.29082 11.0881 4.61904C11.958 5.59082 11.939 6.96597 11.0908 7.96569C10.4478 8.72339 9.72028 9.39831 9.00011 10.0843C8.83661 10.2425 8.82285 10.3601 8.91968 10.5589C9.59117 11.9198 10.5293 13.0898 11.5527 14.1934C12.7999 15.5406 14.173 16.7391 15.7557 17.6845C15.9821 17.82 16.2271 17.9239 16.4494 18.0647C16.6298 18.1786 16.7462 18.1617 16.9018 18.0072C17.5685 17.3444 18.2056 16.6521 18.9125 16.032C20.0491 15.0376 21.4783 15.0434 22.5747 16.0958C23.7791 17.2516 24.9608 18.4292 26.12 19.6286C27.2576 20.8092 27.2968 22.2334 26.211 23.4535C25.4416 24.3177 24.614 25.1345 23.7769 25.9344C23.1589 26.5249 22.389 26.8503 21.5366 26.9663C21.4938 26.975 21.4515 26.9862 21.4101 27L19.9856 26.9989ZM20.6381 25.618C21.672 25.6227 22.4768 25.3254 23.1065 24.6357C23.7166 23.9666 24.3728 23.3433 25.0072 22.6984C25.1382 22.5683 25.2528 22.4228 25.3485 22.265C25.6221 21.8052 25.6189 21.347 25.3141 20.9067C25.1856 20.7289 25.0415 20.5629 24.8834 20.4106C23.8621 19.394 22.8171 18.4011 21.8186 17.3634C20.919 16.4291 20.2386 16.6943 19.5644 17.3724C18.9147 18.0266 18.261 18.6769 17.6034 19.3233C17.1875 19.7325 16.7214 19.8227 16.2044 19.558C15.6652 19.2817 15.1191 19.0154 14.6101 18.6827C12.9698 17.6039 11.4823 16.3105 10.1875 14.8372C9.11705 13.6308 8.14449 12.3564 7.48888 10.8705C7.18039 10.1739 7.24654 9.78956 7.79949 9.26755C8.49531 8.6095 9.18743 7.94935 9.8388 7.24543C10.4309 6.60742 10.4478 5.98364 9.8388 5.36093C8.68369 4.18087 7.50423 3.02402 6.33218 1.86084C6.1523 1.67739 5.92261 1.55021 5.67128 1.4949C5.13896 1.38154 4.72941 1.61407 4.37065 1.96946C3.7004 2.63031 3.03456 3.29398 2.37314 3.96047C2.19683 4.13184 2.03965 4.32171 1.90431 4.52677C1.35983 5.3836 1.35983 6.32479 1.49211 7.27495C1.66091 8.50879 2.08317 9.67145 2.57791 10.8077C3.77166 13.5496 5.48449 15.9524 7.50582 18.1369C10.1097 20.9563 13.1761 23.1398 16.7171 24.6483C18.0035 25.1962 19.3369 25.5653 20.6381 25.618Z" fill="#4FB278"/>
</svg>
