<svg width="16" height="16" viewBox="0 0 16 16" fill="none" xmlns="http://www.w3.org/2000/svg">
<path d="M13.6563 2.34238C12.9142 1.59863 12.0324 1.00883 11.0617 0.60685C10.0909 0.204874 9.05034 -0.00135607 7.99967 6.71011e-06C3.58155 6.71011e-06 0 3.58156 0 7.99967C0 10.2087 0.895888 12.2091 2.34371 13.657C3.08583 14.4007 3.96759 14.9905 4.93833 15.3925C5.90907 15.7945 6.94966 16.0007 8.00033 15.9993C12.4184 15.9993 16 12.4178 16 7.99967C16 5.79062 15.1041 3.7902 13.6563 2.34238ZM12.6284 12.6258C12.0213 13.2344 11.2999 13.7171 10.5057 14.0461C9.71144 14.3751 8.86002 14.5439 8.00033 14.5429C4.38545 14.5429 1.45515 11.6126 1.45515 7.99767C1.45407 7.13799 1.62288 6.28657 1.95188 5.49233C2.28088 4.69809 2.76358 3.97669 3.37225 3.36959C3.97921 2.76091 4.70049 2.2782 5.49462 1.9492C6.28875 1.6202 7.14008 1.45139 7.99967 1.45249C11.6139 1.45249 14.5442 4.38279 14.5442 7.99701C14.5453 8.8566 14.3765 9.70794 14.0475 10.5021C13.7185 11.2962 13.2358 12.0175 12.6271 12.6244L12.6284 12.6258Z" fill="#FF4444"/>
<path d="M9.02833 8.00082L11.598 5.43114C11.7248 5.29298 11.7933 5.1112 11.7892 4.92374C11.7851 4.73628 11.7088 4.55764 11.5762 4.4251C11.4436 4.29256 11.2649 4.21637 11.0774 4.21242C10.89 4.20848 10.7082 4.27709 10.5701 4.40394L10.5708 4.40327L8.00112 6.97295L5.43144 4.40327C5.29328 4.27652 5.1115 4.20802 4.92404 4.21209C4.73658 4.21615 4.55794 4.29246 4.4254 4.42509C4.29286 4.55771 4.21666 4.7364 4.21272 4.92386C4.20878 5.11132 4.27739 5.29306 4.40424 5.43114L4.40357 5.43048L6.97325 8.00016L4.40357 10.5698C4.33127 10.6362 4.27314 10.7164 4.23268 10.8058C4.19222 10.8952 4.17027 10.9919 4.16814 11.09C4.16601 11.188 4.18376 11.2856 4.22031 11.3766C4.25685 11.4677 4.31145 11.5504 4.38081 11.6198C4.45016 11.6892 4.53285 11.7438 4.62388 11.7804C4.71491 11.8171 4.81241 11.8349 4.9105 11.8328C5.0086 11.8307 5.10526 11.8088 5.19467 11.7684C5.28409 11.728 5.3644 11.67 5.43078 11.5977L5.43144 11.597L8.00112 9.02736L10.5708 11.597C10.6371 11.6693 10.7174 11.7275 10.8068 11.7679C10.8962 11.8084 10.9928 11.8303 11.0909 11.8325C11.189 11.8346 11.2865 11.8169 11.3776 11.7803C11.4686 11.7438 11.5514 11.6892 11.6208 11.6198C11.6902 11.5504 11.7448 11.4678 11.7814 11.3767C11.818 11.2857 11.8358 11.1882 11.8338 11.0901C11.8317 10.992 11.8098 10.8953 11.7694 10.8059C11.729 10.7165 11.6709 10.6362 11.5987 10.5698L11.598 10.5692L9.02833 8.00082Z" fill="#FF4444"/>
</svg>
