<svg width="18" height="14" viewBox="0 0 18 14" fill="none" xmlns="http://www.w3.org/2000/svg">
<path d="M0.000703982 8.93524C0.0841081 8.52766 0.18546 8.12572 0.37831 7.75334C0.748879 7.02109 1.35224 6.43275 2.09355 6.0808C2.21179 6.02379 2.23643 5.9995 2.11678 5.90482C1.19229 5.1847 0.752397 4.2344 0.803424 3.06376C0.867473 1.58551 2.07806 0.258602 3.54837 0.0400315C5.03697 -0.181706 6.43866 0.558828 7.05873 1.89453C7.16149 2.11557 7.15833 2.11064 6.94682 2.24157C5.54409 3.10811 4.86489 4.37307 4.93527 6.0178C4.97046 6.80691 5.24812 7.52632 5.7306 8.15669C5.82632 8.28199 5.82456 8.34957 5.70034 8.4527C5.05923 8.98075 4.58555 9.68392 4.33701 10.4765C4.29162 10.6173 4.22581 10.6683 4.0773 10.668C2.8836 10.6623 1.69002 10.6623 0.496554 10.668C0.26816 10.668 0.100296 10.5856 0 10.3772L0.000703982 8.93524Z" fill="#4FB278"/>
<path d="M10.8655 8.45516C10.9085 8.51711 10.982 8.52872 11.0415 8.56075C12.2549 9.20485 12.9387 10.2058 13.0826 11.5757C13.1178 11.9093 13.1034 12.2423 13.1044 12.5753C13.1044 12.9533 12.9358 13.1198 12.5544 13.1201C11.3839 13.1217 10.2135 13.1217 9.0433 13.1201H5.48015C5.0304 13.1201 4.8819 12.9684 4.87838 12.519C4.87275 11.9273 4.86712 11.3356 5.0568 10.7644C5.38795 9.76553 6.02034 9.02535 6.96137 8.5516L7.1419 8.46079C6.08862 7.67275 5.59347 6.63375 5.73001 5.33711C5.82362 4.45719 6.24029 3.72933 6.93286 3.16795C8.27437 2.08073 10.2669 2.24298 11.4279 3.51428C12.6476 4.84964 12.6269 7.22082 10.8655 8.45516Z" fill="#4FB278"/>
<path d="M15.7038 10.6648C15.113 10.6648 14.5218 10.6602 13.9312 10.668C13.7725 10.6701 13.6944 10.6268 13.6427 10.4659C13.3929 9.67368 12.9178 8.97131 12.2755 8.44461C12.1699 8.35662 12.1505 8.29608 12.2403 8.17536C13.7116 6.17443 13.1429 3.45058 10.9948 2.22117C10.8474 2.13705 10.8446 2.06032 10.909 1.93044C11.5104 0.717923 12.4768 0.055525 13.8387 0.00237826C15.391 -0.0585117 16.8349 1.05581 17.1249 2.65514C17.3614 3.95987 16.9331 5.039 15.9094 5.88019C15.7528 6.00901 15.7517 6.00021 15.9322 6.09735C17.2568 6.80832 17.9624 7.90575 17.9969 9.4185C18.0026 9.67015 17.999 9.92181 17.9969 10.1735C17.9948 10.4962 17.8343 10.662 17.5123 10.6637C16.9084 10.6669 16.306 10.6648 15.7038 10.6648Z" fill="#4FB278"/>
</svg>
