<svg width="36" height="36" viewBox="0 0 36 36" fill="none" xmlns="http://www.w3.org/2000/svg">
<rect width="35.9959" height="36" rx="5" fill="#4FB278"/>
<path d="M18.005 10.0012C20.1235 10.0012 22.2422 10.0012 24.3611 10.0012C25.1815 10.0012 25.8194 10.5275 25.9752 11.3298C25.991 11.4227 25.9978 11.5168 25.9955 11.6109C25.9955 14.4506 25.9955 17.2904 25.9955 20.1303C25.9955 21.0404 25.2919 21.7381 24.3771 21.7391C22.2973 21.7415 20.2174 21.7415 18.1374 21.7391C18.0052 21.7347 17.8761 21.7794 17.7749 21.8644C16.5737 22.8309 15.3704 23.7944 14.165 24.755C14.0266 24.8661 13.8829 24.9465 13.6981 24.9348C13.4057 24.9164 13.1956 24.6937 13.1946 24.3802C13.1919 23.5759 13.1946 22.7715 13.1946 21.9675C13.1946 21.7404 13.1946 21.7401 12.9671 21.7401C12.5003 21.7401 12.0354 21.7427 11.5695 21.7401C10.7121 21.733 10.0022 21.0247 10.0022 20.1654C9.99928 17.3034 9.99928 14.4414 10.0022 11.5793C10.0045 11.1607 10.1723 10.7601 10.4689 10.4649C10.7656 10.1697 11.167 10.0038 11.5855 10.0036C13.7242 9.99979 15.8641 9.99901 18.005 10.0012ZM14.3001 23.2094C14.3614 23.2024 14.3971 23.1567 14.4388 23.1233C15.3879 22.3653 16.3396 21.609 17.2827 20.8453C17.44 20.7131 17.6402 20.6431 17.8456 20.6486C19.9757 20.6532 22.1055 20.6541 24.2351 20.6512C24.7126 20.6512 24.9077 20.4595 24.9077 19.9889C24.9077 17.2435 24.9077 14.4979 24.9077 11.752C24.9077 11.2851 24.7126 11.089 24.2524 11.089H11.7399C11.2857 11.089 11.086 11.2868 11.086 11.7357C11.086 14.4924 11.086 17.2492 11.086 20.006C11.086 20.4488 11.2861 20.6506 11.7253 20.6512C12.3519 20.6512 12.9788 20.6512 13.6054 20.6512C14.099 20.6512 14.2807 20.8307 14.2807 21.3182C14.2807 21.8948 14.2807 22.4717 14.2807 23.0486C14.282 23.1017 14.264 23.1583 14.3001 23.2094Z" fill="white"/>
<path d="M18.0067 14.2612C19.4157 14.2612 20.8246 14.2612 22.2332 14.2612C22.59 14.2612 22.8208 14.506 22.8001 14.8518C22.7917 14.9774 22.7392 15.096 22.6518 15.1866C22.5644 15.2773 22.4478 15.3341 22.3226 15.347C22.2839 15.3503 22.2449 15.3493 22.2062 15.3493C19.3996 15.3493 16.5932 15.3493 13.7868 15.3493C13.4263 15.3493 13.1919 15.1289 13.1942 14.7988C13.1966 14.4986 13.414 14.2702 13.7151 14.2632C13.9702 14.2569 14.2253 14.2612 14.4821 14.2612H18.0067Z" fill="white"/>
<path d="M15.8588 17.4774C15.1488 17.4774 14.4391 17.4794 13.7292 17.4774C13.6004 17.4778 13.4757 17.432 13.3778 17.3483C13.2799 17.2646 13.2152 17.1485 13.1956 17.0212C13.1586 16.7378 13.3097 16.4897 13.5721 16.4136C13.6365 16.3973 13.7028 16.3898 13.7692 16.3916C15.1665 16.3903 16.564 16.3903 17.9617 16.3916C18.3112 16.3916 18.5406 16.6121 18.5393 16.9389C18.5393 17.26 18.3038 17.4784 17.954 17.4791C17.2559 17.48 16.5575 17.4794 15.8588 17.4774Z" fill="white"/>
</svg>
