<svg width="16" height="16" viewBox="0 0 16 16" fill="none" xmlns="http://www.w3.org/2000/svg">
<path d="M0 2.35355C0 1.82311 0.210714 1.31441 0.585786 0.939333C0.960859 0.56426 1.46957 0.353546 2 0.353546L14 0.353546C14.5304 0.353546 15.0391 0.56426 15.4142 0.939333C15.7893 1.31441 16 1.82311 16 2.35355V10.3535C16 10.884 15.7893 11.3927 15.4142 11.7678C15.0391 12.1428 14.5304 12.3535 14 12.3535H4.414C4.14881 12.3536 3.89449 12.459 3.707 12.6465L0.854 15.4995C0.784131 15.5696 0.695051 15.6173 0.598036 15.6367C0.501021 15.6561 0.400432 15.6463 0.308999 15.6085C0.217567 15.5707 0.139402 15.5067 0.0843973 15.4244C0.0293926 15.3422 2.10149e-05 15.2455 0 15.1465L0 2.35355ZM5 6.35355C5 6.08833 4.89464 5.83398 4.70711 5.64644C4.51957 5.4589 4.26522 5.35355 4 5.35355C3.73478 5.35355 3.48043 5.4589 3.29289 5.64644C3.10536 5.83398 3 6.08833 3 6.35355C3 6.61876 3.10536 6.87312 3.29289 7.06065C3.48043 7.24819 3.73478 7.35355 4 7.35355C4.26522 7.35355 4.51957 7.24819 4.70711 7.06065C4.89464 6.87312 5 6.61876 5 6.35355ZM9 6.35355C9 6.08833 8.89464 5.83398 8.70711 5.64644C8.51957 5.4589 8.26522 5.35355 8 5.35355C7.73478 5.35355 7.48043 5.4589 7.29289 5.64644C7.10536 5.83398 7 6.08833 7 6.35355C7 6.61876 7.10536 6.87312 7.29289 7.06065C7.48043 7.24819 7.73478 7.35355 8 7.35355C8.26522 7.35355 8.51957 7.24819 8.70711 7.06065C8.89464 6.87312 9 6.61876 9 6.35355ZM12 7.35355C12.2652 7.35355 12.5196 7.24819 12.7071 7.06065C12.8946 6.87312 13 6.61876 13 6.35355C13 6.08833 12.8946 5.83398 12.7071 5.64644C12.5196 5.4589 12.2652 5.35355 12 5.35355C11.7348 5.35355 11.4804 5.4589 11.2929 5.64644C11.1054 5.83398 11 6.08833 11 6.35355C11 6.61876 11.1054 6.87312 11.2929 7.06065C11.4804 7.24819 11.7348 7.35355 12 7.35355Z" fill="#4FB278"/>
</svg>
