<svg width="16" height="16" viewBox="0 0 16 16" fill="none" xmlns="http://www.w3.org/2000/svg">
<path d="M15.9972 14.9788C15.9619 15.0651 15.9328 15.1552 15.8896 15.2375C15.6706 15.6545 15.3281 15.891 14.8528 15.8945C13.4013 15.9001 11.95 15.8945 10.4987 15.8995C10.3545 15.8995 10.311 15.8525 10.311 15.7118C10.314 12.5696 10.314 9.42763 10.311 6.28588C10.311 6.13541 10.3639 6.11226 10.4987 6.14072C11.9935 6.45648 13.4887 6.76932 14.9842 7.07924C15.5136 7.18905 15.858 7.49157 16 8.01776L15.9972 14.9788ZM12.994 9.87948C13.1504 9.87948 13.3068 9.88323 13.4616 9.87948C13.7579 9.87103 13.9869 9.65517 13.986 9.39113C13.985 9.1271 13.7538 8.90748 13.4579 8.90279C13.1515 8.89758 12.845 8.89758 12.5385 8.90279C12.2347 8.90748 12.0157 9.11771 12.0157 9.38988C12.0157 9.65392 12.245 9.86853 12.5416 9.87697C12.6911 9.88135 12.8419 9.87729 12.9927 9.87729L12.994 9.87948ZM12.9986 11.8779C13.1491 11.8779 13.2999 11.8807 13.4504 11.8779C13.7554 11.871 13.991 11.6527 13.986 11.3846C13.981 11.1164 13.752 10.9075 13.4541 10.9031C13.1563 10.8987 12.8513 10.8984 12.55 10.9031C12.2347 10.9078 12.011 11.1174 12.0154 11.3949C12.0195 11.6602 12.2481 11.8701 12.5472 11.8779C12.6958 11.8795 12.8466 11.8763 12.9974 11.8763L12.9986 11.8779ZM12.9855 13.8744C13.1466 13.8744 13.3077 13.8788 13.4688 13.8744C13.757 13.8647 13.9797 13.6555 13.986 13.3945C13.9922 13.1336 13.7613 12.9065 13.4676 12.9006C13.156 12.8943 12.8443 12.8943 12.5325 12.9006C12.2306 12.9075 12.0094 13.1252 12.016 13.3945C12.022 13.6548 12.245 13.8638 12.5335 13.8744C12.6827 13.8785 12.8335 13.8744 12.9855 13.8744Z" fill="#4FB278"/>
<path d="M0.000104276 8.17199C0.000104276 5.85697 0.000104276 3.54133 0.000104276 1.22506C0.000104276 0.536814 0.45341 0.0478449 1.13665 0.00248306C1.38161 -0.0134718 1.62218 0.0512862 1.86307 0.0875756C3.35844 0.311569 4.8534 0.537961 6.34794 0.766751C7.10846 0.882502 7.8696 0.993248 8.62886 1.11557C9.29396 1.22256 9.69252 1.69495 9.69252 2.37319C9.69398 6.81176 9.69502 11.2504 9.69565 15.6892C9.69565 15.8381 9.66061 15.9001 9.49574 15.8985C8.66859 15.891 7.84123 15.891 7.01367 15.8985C6.85099 15.8985 6.81126 15.8422 6.81189 15.6908C6.81689 14.619 6.79531 13.5466 6.82096 12.4751C6.83848 11.7496 6.27787 11.2072 5.58117 11.2359C5.07187 11.2572 4.56131 11.2388 4.05138 11.2406C3.34968 11.2431 2.86259 11.728 2.86259 12.4294C2.86071 13.5119 2.86071 14.5942 2.86259 15.6764C2.86259 15.8954 2.86259 15.8954 2.64986 15.8954C2.00458 15.8954 1.35929 15.8954 0.714006 15.8954C0.281973 15.8954 0.00291989 15.6138 0.00260705 15.1818C0.000521453 12.8451 -0.000312844 10.5085 0.000104276 8.17199ZM3.17574 3.70276C3.34687 3.70276 3.51987 3.70714 3.68943 3.70276C3.81285 3.70152 3.93082 3.65171 4.01778 3.56411C4.10473 3.47651 4.15367 3.35818 4.154 3.23475C4.15537 3.17231 4.14439 3.11021 4.12169 3.05202C4.099 2.99384 4.06504 2.94071 4.02176 2.89568C3.97848 2.85065 3.92673 2.81462 3.86948 2.78965C3.81224 2.76468 3.75062 2.75125 3.68818 2.75016C3.34593 2.74359 3.00337 2.74265 2.66112 2.75016C2.38989 2.7561 2.19937 2.96602 2.20125 3.23631C2.20312 3.5066 2.38676 3.69243 2.66175 3.7015C2.83318 3.70745 3.00587 3.70276 3.17574 3.70276ZM3.18106 5.70087C3.35219 5.70087 3.52519 5.70556 3.69475 5.70087C3.81817 5.69824 3.93558 5.64708 4.02154 5.55848C4.10751 5.46988 4.15509 5.35098 4.154 5.22754C4.15556 4.97946 3.96285 4.75828 3.71414 4.75046C3.35625 4.74013 2.99774 4.73951 2.64016 4.75046C2.37988 4.75859 2.19749 4.97508 2.20219 5.24037C2.20594 5.50002 2.38739 5.68898 2.65268 5.6993C2.82787 5.70587 3.00587 5.70055 3.18106 5.70087ZM3.17856 7.69866H3.66284C3.67817 7.69866 3.69412 7.69866 3.70945 7.6971C3.82964 7.69048 3.94278 7.63823 4.02574 7.55102C4.10871 7.46381 4.15526 7.34821 4.15587 7.22784C4.15838 6.97976 3.96629 6.75639 3.7179 6.74857C3.36032 6.73762 3.00181 6.73762 2.64423 6.74857C2.38332 6.75639 2.2 6.97131 2.20281 7.23629C2.20594 7.49626 2.38645 7.68677 2.65111 7.69741C2.82568 7.70429 3.00212 7.69866 3.17856 7.69866ZM3.17574 9.6974C3.34687 9.6974 3.51987 9.70178 3.68943 9.6974C3.81285 9.69616 3.93082 9.64635 4.01778 9.55875C4.10473 9.47115 4.15367 9.35282 4.154 9.22939C4.15532 9.16696 4.14432 9.10488 4.12161 9.04671C4.0989 8.98855 4.06494 8.93543 4.02166 8.89041C3.97839 8.8454 3.92666 8.80936 3.86943 8.78437C3.8122 8.75939 3.75061 8.74594 3.68818 8.7448C3.34593 8.73823 3.00337 8.7376 2.66112 8.7448C2.38958 8.75074 2.19937 8.96035 2.20125 9.23095C2.20312 9.50156 2.38676 9.68676 2.66206 9.69583C2.83318 9.70209 3.00587 9.6974 3.17574 9.6974ZM6.50968 3.70244C6.68112 3.70244 6.85381 3.70682 7.02368 3.70244C7.1469 3.69918 7.26414 3.64862 7.3511 3.56126C7.43805 3.47389 7.48806 3.35642 7.49075 3.23318C7.49159 3.10895 7.44419 2.98924 7.35852 2.89926C7.27286 2.80928 7.15562 2.75605 7.0315 2.75078C6.67862 2.74296 6.32542 2.74234 5.97285 2.75078C5.72258 2.75704 5.52392 2.97572 5.52079 3.22192C5.5212 3.34512 5.56881 3.46347 5.65383 3.55262C5.73885 3.64178 5.85482 3.69495 5.97785 3.70119C6.15523 3.70745 6.33199 3.70244 6.50968 3.70244ZM6.50968 5.70087C6.68112 5.70087 6.85381 5.70525 7.02368 5.70087C7.14726 5.69808 7.265 5.64774 7.35241 5.56034C7.43982 5.47293 7.49015 5.35519 7.49294 5.23161C7.49364 5.10784 7.44647 4.9886 7.36129 4.89881C7.2761 4.80902 7.15951 4.75564 7.03588 4.74983C6.683 4.7417 6.33011 4.7417 5.97723 4.74983C5.72696 4.75578 5.5283 4.9732 5.52424 5.21909C5.52435 5.34189 5.57138 5.46 5.6557 5.54926C5.74002 5.63853 5.85526 5.6922 5.97785 5.6993C6.1543 5.70556 6.33105 5.70055 6.50749 5.70087H6.50968ZM6.50968 7.69929C6.68081 7.69929 6.85381 7.70336 7.02337 7.69929C7.14667 7.69631 7.264 7.64556 7.35061 7.55776C7.43723 7.46995 7.48637 7.35194 7.48767 7.22861C7.48896 7.10527 7.44232 6.98626 7.35757 6.89664C7.27282 6.80703 7.15659 6.75383 7.03338 6.74825C6.68049 6.74043 6.3273 6.73981 5.97473 6.74825C5.72445 6.75451 5.5258 6.97287 5.52236 7.21908C5.5229 7.34191 5.57036 7.45989 5.65504 7.54887C5.73972 7.63785 5.8552 7.6911 5.97785 7.69772C6.15492 7.70398 6.33168 7.69898 6.50968 7.69929ZM6.50593 9.69709C6.68237 9.69709 6.85912 9.70209 7.03525 9.69709C7.15586 9.69122 7.26981 9.64005 7.35431 9.5538C7.43882 9.46756 7.48766 9.35259 7.49106 9.23189C7.49888 8.99163 7.29835 8.75637 7.05309 8.74855C6.69019 8.7376 6.32636 8.7376 5.96346 8.74855C5.71663 8.75606 5.51704 8.98788 5.5233 9.2297C5.52661 9.34983 5.57485 9.46435 5.65848 9.55065C5.74212 9.63695 5.85507 9.68875 5.97504 9.69583C6.15117 9.7024 6.32792 9.69709 6.50436 9.69709H6.50593Z" fill="#4FB278"/>
</svg>
