<svg width="14" height="15" viewBox="0 0 14 15" fill="none" xmlns="http://www.w3.org/2000/svg">
<path d="M1.87381 0C0.838932 0 0 0.816778 0 1.82432V3.85135C0 4.8589 0.838932 5.67568 1.87381 5.67568H9.78543C10.8203 5.67568 11.6592 4.8589 11.6592 3.85135V1.82432C11.6592 0.816778 10.8203 0 9.78543 0H1.87381ZM1.2492 1.82432C1.2492 1.48848 1.52885 1.21622 1.87381 1.21622H9.78543C10.1304 1.21622 10.41 1.48848 10.41 1.82432V3.85135C10.41 4.1872 10.1304 4.45946 9.78543 4.45946H1.87381C1.52885 4.45946 1.2492 4.1872 1.2492 3.85135V1.82432ZM3.91417 10.5405C3.59221 10.5405 3.33121 10.8128 3.33121 11.1486C3.33121 11.4845 3.59221 11.7568 3.91417 11.7568H7.74507C8.06703 11.7568 8.32803 11.4845 8.32803 11.1486C8.32803 10.8128 8.06703 10.5405 7.74507 10.5405H3.91417ZM11.1203 10.9016L11.0599 10.9698C10.8382 11.1857 10.4912 11.2053 10.2466 11.0286L10.1766 10.9698L8.511 9.34816C8.28922 9.13232 8.26907 8.79446 8.45053 8.55641L8.511 8.48822L10.1766 6.86659C10.4205 6.62911 10.8159 6.62911 11.0599 6.86659C11.2816 7.08243 11.3018 7.4203 11.1203 7.65835L11.0599 7.72654L10.461 8.31105L11.7098 8.31065C12.2488 8.31065 12.6921 7.91181 12.7454 7.40076L12.7508 7.29713V5.47278C12.7508 5.13692 13.0304 4.86467 13.3754 4.86467C13.6916 4.86467 13.9529 5.09344 13.9943 5.39026L14 5.47278V7.29713C14 8.48295 13.0492 9.45259 11.8493 9.52273L11.7098 9.52687L10.4618 9.52727L11.0599 10.1098C11.2816 10.3257 11.3018 10.6635 11.1203 10.9016ZM11.6592 13.1757V11.5329L11.6487 11.5431C11.3108 11.8721 10.8489 12.0056 10.41 11.9441V13.1757C10.41 13.5115 10.1304 13.7838 9.78543 13.7838H1.87381C1.52885 13.7838 1.2492 13.5115 1.2492 13.1757V9.12162C1.2492 8.78578 1.52885 8.51351 1.87381 8.51351H7.5556C7.60307 8.358 7.67836 8.20873 7.78163 8.07324L7.79995 8.04924L7.90047 7.93589L8.55638 7.2973H1.87381C0.838932 7.2973 0 8.11411 0 9.12162V13.1757C0 14.1832 0.838932 15 1.87381 15H9.78543C10.8203 15 11.6592 14.1832 11.6592 13.1757Z" fill="#14323E"/>
</svg>
