<svg width="16" height="11" viewBox="0 0 16 11" fill="none" xmlns="http://www.w3.org/2000/svg">
<path d="M5.54743 3.95254C5.49435 3.89933 5.43129 3.85711 5.36187 3.8283C5.29244 3.79949 5.21802 3.78467 5.14286 3.78467C5.06769 3.78467 4.99327 3.79949 4.92385 3.8283C4.85442 3.85711 4.79137 3.89933 4.73829 3.95254L4 4.69197L3.26171 3.95254C3.20859 3.89942 3.14551 3.85727 3.0761 3.82852C3.00668 3.79977 2.93228 3.78497 2.85714 3.78497C2.78201 3.78497 2.70761 3.79977 2.63819 3.82852C2.56877 3.85727 2.5057 3.89942 2.45257 3.95254C2.39944 4.00567 2.3573 4.06875 2.32855 4.13816C2.29979 4.20758 2.28499 4.28198 2.28499 4.35712C2.28499 4.43225 2.29979 4.50665 2.32855 4.57607C2.3573 4.64549 2.39944 4.70856 2.45257 4.76169L3.192 5.49997L2.45257 6.23826C2.39944 6.29139 2.3573 6.35446 2.32855 6.42388C2.29979 6.49329 2.28499 6.56769 2.28499 6.64283C2.28499 6.71797 2.29979 6.79237 2.32855 6.86178C2.3573 6.9312 2.39944 6.99427 2.45257 7.0474C2.55987 7.1547 2.7054 7.21498 2.85714 7.21498C2.93228 7.21498 3.00668 7.20018 3.0761 7.17143C3.14551 7.14268 3.20859 7.10053 3.26171 7.0474L4 6.30797L4.73829 7.0474C4.79141 7.10053 4.85449 7.14268 4.9239 7.17143C4.99332 7.20018 5.06772 7.21498 5.14286 7.21498C5.21799 7.21498 5.29239 7.20018 5.36181 7.17143C5.43123 7.14268 5.4943 7.10053 5.54743 7.0474C5.60056 6.99427 5.6427 6.9312 5.67146 6.86178C5.70021 6.79237 5.71501 6.71797 5.71501 6.64283C5.71501 6.56769 5.70021 6.49329 5.67146 6.42388C5.6427 6.35446 5.60056 6.29139 5.54743 6.23826L4.808 5.49997L5.54743 4.76169C5.60064 4.70861 5.64286 4.64555 5.67167 4.57613C5.70048 4.5067 5.71531 4.43228 5.71531 4.35712C5.71531 4.28195 5.70048 4.20753 5.67167 4.13811C5.64286 4.06868 5.60064 4.00563 5.54743 3.95254ZM9.30971 3.95254C9.36284 3.89942 9.42592 3.85727 9.49533 3.82852C9.56475 3.79977 9.63915 3.78497 9.71429 3.78497C9.78942 3.78497 9.86382 3.79977 9.93324 3.82852C10.0027 3.85727 10.0657 3.89942 10.1189 3.95254C10.172 4.00567 10.2141 4.06875 10.2429 4.13816C10.2716 4.20758 10.2864 4.28198 10.2864 4.35712C10.2864 4.43225 10.2716 4.50665 10.2429 4.57607C10.2141 4.64549 10.172 4.70856 10.1189 4.76169L9.37943 5.49997L10.1189 6.23826C10.2262 6.34556 10.2864 6.49109 10.2864 6.64283C10.2864 6.79457 10.2262 6.9401 10.1189 7.0474C10.0116 7.1547 9.86603 7.21498 9.71429 7.21498C9.56254 7.21498 9.41701 7.1547 9.30971 7.0474L8.57143 6.30797L7.83314 7.0474C7.78001 7.10053 7.71694 7.14268 7.64752 7.17143C7.57811 7.20018 7.50371 7.21498 7.42857 7.21498C7.35344 7.21498 7.27904 7.20018 7.20962 7.17143C7.1402 7.14268 7.07713 7.10053 7.024 7.0474C6.97087 6.99427 6.92873 6.9312 6.89997 6.86178C6.87122 6.79237 6.85642 6.71797 6.85642 6.64283C6.85642 6.56769 6.87122 6.49329 6.89997 6.42388C6.92873 6.35446 6.97087 6.29139 7.024 6.23826L7.76343 5.49997L7.024 4.76169C6.97087 4.70856 6.92873 4.64549 6.89997 4.57607C6.87122 4.50665 6.85642 4.43225 6.85642 4.35712C6.85642 4.28198 6.87122 4.20758 6.89997 4.13816C6.92873 4.06875 6.97087 4.00567 7.024 3.95254C7.07713 3.89942 7.1402 3.85727 7.20962 3.82852C7.27904 3.79977 7.35344 3.78497 7.42857 3.78497C7.50371 3.78497 7.57811 3.79977 7.64752 3.82852C7.71694 3.85727 7.78001 3.89942 7.83314 3.95254L8.57143 4.69197L9.30971 3.95254ZM12 6.0714C11.8484 6.0714 11.7031 6.13161 11.5959 6.23877C11.4888 6.34593 11.4286 6.49128 11.4286 6.64283C11.4286 6.79438 11.4888 6.93973 11.5959 7.04689C11.7031 7.15406 11.8484 7.21426 12 7.21426H13.1429C13.2944 7.21426 13.4398 7.15406 13.5469 7.04689C13.6541 6.93973 13.7143 6.79438 13.7143 6.64283C13.7143 6.49128 13.6541 6.34593 13.5469 6.23877C13.4398 6.13161 13.2944 6.0714 13.1429 6.0714H12ZM2.85714 0.357117C2.09938 0.357117 1.37266 0.658136 0.836838 1.19395C0.30102 1.72977 0 2.4565 0 3.21426V7.78569C0 8.16089 0.0739022 8.53242 0.217487 8.87907C0.361072 9.22571 0.571528 9.54068 0.836838 9.80599C1.37266 10.3418 2.09938 10.6428 2.85714 10.6428H13.1429C13.5181 10.6428 13.8896 10.5689 14.2362 10.4253C14.5829 10.2818 14.8979 10.0713 15.1632 9.80599C15.4285 9.54068 15.6389 9.22571 15.7825 8.87907C15.9261 8.53242 16 8.16089 16 7.78569V3.21426C16 2.4565 15.699 1.72977 15.1632 1.19395C14.6273 0.658136 13.9006 0.357117 13.1429 0.357117H2.85714ZM1.14286 3.21426C1.14286 2.7596 1.32347 2.32357 1.64496 2.00208C1.96645 1.68059 2.40249 1.49997 2.85714 1.49997H13.1429C13.5975 1.49997 14.0336 1.68059 14.355 2.00208C14.6765 2.32357 14.8571 2.7596 14.8571 3.21426V7.78569C14.8571 8.24034 14.6765 8.67638 14.355 8.99787C14.0336 9.31936 13.5975 9.49997 13.1429 9.49997H2.85714C2.40249 9.49997 1.96645 9.31936 1.64496 8.99787C1.32347 8.67638 1.14286 8.24034 1.14286 7.78569V3.21426Z" fill="#14984B"/>
</svg>
