<svg width="38" height="39" viewBox="0 0 38 39" fill="none" xmlns="http://www.w3.org/2000/svg">
<circle cx="19" cy="19.5" r="19" fill="#AFE2FF"/>
<path d="M6.00103 22.521C6.12257 21.9271 6.27026 21.3413 6.5513 20.7987C7.09132 19.7316 7.97058 18.8742 9.05087 18.3613C9.22318 18.2782 9.25908 18.2428 9.08471 18.1049C7.73749 17.0555 7.09645 15.6706 7.17081 13.9647C7.26414 11.8105 9.0283 9.87679 11.1709 9.55828C13.3402 9.23515 15.3829 10.3143 16.2865 12.2608C16.4362 12.5829 16.4316 12.5757 16.1234 12.7665C14.0792 14.0293 13.0895 15.8727 13.192 18.2695C13.2433 19.4194 13.6479 20.4678 14.351 21.3864C14.4905 21.569 14.488 21.6675 14.3069 21.8178C13.3727 22.5873 12.6824 23.612 12.3202 24.767C12.254 24.9722 12.1581 25.0466 11.9417 25.046C10.2022 25.0378 8.46281 25.0378 6.72361 25.046C6.39078 25.046 6.14616 24.926 6 24.6224L6.00103 22.521Z" fill="#0CA5FC"/>
<path d="M21.8339 21.8214C21.8964 21.9117 22.0036 21.9286 22.0903 21.9753C23.8586 22.9139 24.855 24.3726 25.0648 26.3689C25.116 26.8551 25.095 27.3403 25.0965 27.8255C25.0965 28.3764 24.8509 28.619 24.295 28.6195C22.5893 28.6219 20.8838 28.6219 19.1784 28.6195H13.9859C13.3305 28.6195 13.1141 28.3985 13.109 27.7435C13.1008 26.8813 13.0926 26.0191 13.369 25.1866C13.8516 23.731 14.7731 22.6524 16.1445 21.962L16.4076 21.8296C14.8726 20.6812 14.1511 19.1671 14.3501 17.2776C14.4865 15.9953 15.0937 14.9346 16.1029 14.1165C18.0579 12.5322 20.9615 12.7686 22.6534 14.6212C24.4309 16.5672 24.4006 20.0227 21.8339 21.8214Z" fill="#0CA5FC"/>
<path d="M28.8847 25.0415C28.0236 25.0415 27.1621 25.0348 26.3015 25.0461C26.0702 25.0492 25.9564 24.9861 25.881 24.7517C25.517 23.5972 24.8247 22.5736 23.8886 21.8061C23.7348 21.6778 23.7066 21.5896 23.8373 21.4137C25.9815 18.4978 25.1528 14.5284 22.0224 12.7368C21.8075 12.6143 21.8034 12.5024 21.8973 12.3132C22.7737 10.5462 24.182 9.58091 26.1666 9.50347C28.4288 9.41473 30.5329 11.0386 30.9555 13.3693C31.3001 15.2706 30.676 16.8432 29.1842 18.069C28.956 18.2568 28.9544 18.2439 29.2175 18.3855C31.1478 19.4216 32.1761 21.0208 32.2263 23.2253C32.2345 23.592 32.2294 23.9588 32.2263 24.3255C32.2233 24.7958 31.9894 25.0374 31.5202 25.04C30.6401 25.0446 29.7621 25.0415 28.8847 25.0415Z" fill="#0CA5FC"/>
</svg>
