<svg width="38" height="39" viewBox="0 0 38 39" fill="none" xmlns="http://www.w3.org/2000/svg">
<circle cx="19" cy="19.5" r="19" fill="#FFC6C6"/>
<path d="M28.0095 27.363C27.9697 27.4602 27.9369 27.5616 27.8883 27.6542C27.6418 28.1237 27.2561 28.3899 26.7212 28.3938C25.087 28.4002 23.4532 28.3938 21.8193 28.3995C21.657 28.3995 21.608 28.3466 21.608 28.1881C21.6113 24.6507 21.6113 21.1135 21.608 17.5766C21.608 17.4072 21.6676 17.3811 21.8193 17.4132C23.5021 17.7686 25.1854 18.1208 26.8691 18.4697C27.465 18.5934 27.8528 18.9339 28.0127 19.5263L28.0095 27.363ZM24.6284 21.6222C24.8045 21.6222 24.9806 21.6264 25.155 21.6222C25.4885 21.6127 25.7463 21.3697 25.7452 21.0724C25.7442 20.7752 25.4839 20.528 25.1507 20.5227C24.8058 20.5168 24.4608 20.5168 24.1156 20.5227C23.7737 20.528 23.5271 20.7646 23.5271 21.071C23.5271 21.3683 23.7853 21.6099 24.1192 21.6194C24.2875 21.6243 24.4573 21.6198 24.627 21.6198L24.6284 21.6222ZM24.6337 23.872C24.8031 23.872 24.9729 23.8752 25.1423 23.872C25.4857 23.8643 25.7509 23.6184 25.7452 23.3166C25.7396 23.0148 25.4818 22.7795 25.1465 22.7746C24.8112 22.7697 24.4678 22.7693 24.1287 22.7746C23.7737 22.7799 23.5218 23.0158 23.5268 23.3282C23.5314 23.6269 23.7888 23.8632 24.1255 23.872C24.2928 23.8738 24.4626 23.8703 24.6323 23.8703L24.6337 23.872ZM24.6189 26.1197C24.8003 26.1197 24.9817 26.1246 25.1631 26.1197C25.4874 26.1088 25.7382 25.8732 25.7452 25.5795C25.7523 25.2857 25.4924 25.03 25.1617 25.0233C24.8109 25.0163 24.46 25.0163 24.109 25.0233C23.7691 25.0311 23.5201 25.2762 23.5275 25.5795C23.5342 25.8725 23.7853 26.1077 24.11 26.1197C24.278 26.1243 24.4478 26.1197 24.6189 26.1197Z" fill="#FF4444"/>
<path d="M10.0001 19.6999C10.0001 17.0937 10.0001 14.4868 10.0001 11.8792C10.0001 11.1043 10.5104 10.5539 11.2796 10.5028C11.5554 10.4848 11.8262 10.5577 12.0974 10.5986C13.7809 10.8508 15.4639 11.1056 17.1465 11.3632C18.0026 11.4935 18.8595 11.6182 19.7143 11.7559C20.4631 11.8763 20.9117 12.4082 20.9117 13.1717C20.9134 18.1686 20.9146 23.1656 20.9153 28.1628C20.9153 28.3304 20.8758 28.4002 20.6902 28.3984C19.759 28.3899 18.8276 28.3899 17.8959 28.3984C17.7128 28.3984 17.6681 28.335 17.6688 28.1645C17.6744 26.9579 17.6501 25.7506 17.679 24.5444C17.6987 23.7276 17.0676 23.1169 16.2832 23.1493C15.7099 23.1733 15.1351 23.1525 14.561 23.1546C13.771 23.1574 13.2227 23.7033 13.2227 24.4929C13.2206 25.7115 13.2206 26.93 13.2227 28.1483C13.2227 28.3949 13.2227 28.3949 12.9832 28.3949C12.2567 28.3949 11.5303 28.3949 10.8038 28.3949C10.3174 28.3949 10.0033 28.0779 10.0029 27.5915C10.0006 24.9609 9.99965 22.3304 10.0001 19.6999ZM13.5752 14.6685C13.7679 14.6685 13.9626 14.6735 14.1535 14.6685C14.2925 14.6671 14.4253 14.6111 14.5232 14.5124C14.6211 14.4138 14.6762 14.2806 14.6765 14.1416C14.6781 14.0714 14.6657 14.0014 14.6402 13.9359C14.6146 13.8704 14.5764 13.8106 14.5277 13.7599C14.4789 13.7092 14.4207 13.6687 14.3562 13.6406C14.2918 13.6124 14.2224 13.5973 14.1521 13.5961C13.7668 13.5887 13.3812 13.5876 12.9959 13.5961C12.6905 13.6028 12.476 13.8391 12.4781 14.1434C12.4803 14.4477 12.687 14.6569 12.9966 14.6671C13.1896 14.6738 13.384 14.6685 13.5752 14.6685ZM13.5812 16.918C13.7739 16.918 13.9686 16.9233 14.1595 16.918C14.2985 16.915 14.4306 16.8574 14.5274 16.7577C14.6242 16.6579 14.6778 16.5241 14.6765 16.3851C14.6783 16.1058 14.4613 15.8568 14.1813 15.848C13.7784 15.8364 13.3748 15.8357 12.9723 15.848C12.6792 15.8572 12.4739 16.1009 12.4792 16.3996C12.4834 16.6919 12.6877 16.9046 12.9864 16.9162C13.1836 16.9236 13.384 16.9176 13.5812 16.918ZM13.5784 19.1671H14.1236C14.1408 19.1671 14.1588 19.1671 14.1761 19.1653C14.3114 19.1579 14.4387 19.0991 14.5321 19.0009C14.6255 18.9027 14.6779 18.7725 14.6786 18.637C14.6815 18.3577 14.4652 18.1063 14.1856 18.0975C13.783 18.0851 13.3794 18.0851 12.9768 18.0975C12.6831 18.1063 12.4767 18.3482 12.4799 18.6465C12.4834 18.9392 12.6866 19.1537 12.9846 19.1657C13.1811 19.1734 13.3798 19.1671 13.5784 19.1671ZM13.5752 21.4172C13.7679 21.4172 13.9626 21.4222 14.1535 21.4172C14.2925 21.4159 14.4253 21.3598 14.5232 21.2612C14.6211 21.1625 14.6762 21.0293 14.6765 20.8904C14.678 20.8201 14.6656 20.7502 14.6401 20.6847C14.6145 20.6192 14.5763 20.5594 14.5276 20.5087C14.4788 20.4581 14.4206 20.4175 14.3562 20.3894C14.2917 20.3612 14.2224 20.3461 14.1521 20.3448C13.7668 20.3374 13.3812 20.3367 12.9959 20.3448C12.6902 20.3515 12.476 20.5875 12.4781 20.8921C12.4803 21.1968 12.687 21.4053 12.9969 21.4155C13.1896 21.4225 13.384 21.4172 13.5752 21.4172ZM17.3285 14.6682C17.5215 14.6682 17.7159 14.6731 17.9072 14.6682C18.0459 14.6645 18.1779 14.6076 18.2758 14.5092C18.3737 14.4109 18.43 14.2786 18.433 14.1399C18.434 14 18.3806 13.8653 18.2842 13.764C18.1877 13.6627 18.0557 13.6027 17.916 13.5968C17.5187 13.588 17.1211 13.5873 16.7242 13.5968C16.4424 13.6038 16.2188 13.85 16.2153 14.1272C16.2157 14.2659 16.2693 14.3991 16.365 14.4995C16.4607 14.5999 16.5913 14.6597 16.7298 14.6668C16.9295 14.6738 17.1285 14.6682 17.3285 14.6682ZM17.3285 16.918C17.5215 16.918 17.7159 16.9229 17.9072 16.918C18.0463 16.9148 18.1789 16.8582 18.2773 16.7598C18.3757 16.6614 18.4323 16.5288 18.4355 16.3897C18.4363 16.2504 18.3832 16.1161 18.2873 16.015C18.1914 15.914 18.0601 15.8539 17.9209 15.8473C17.5237 15.8382 17.1264 15.8382 16.7291 15.8473C16.4474 15.854 16.2237 16.0988 16.2191 16.3756C16.2193 16.5138 16.2722 16.6468 16.3671 16.7473C16.4621 16.8478 16.5918 16.9082 16.7298 16.9162C16.9284 16.9233 17.1274 16.9176 17.3261 16.918H17.3285ZM17.3285 19.1678C17.5212 19.1678 17.7159 19.1724 17.9068 19.1678C18.0457 19.1644 18.1777 19.1073 18.2753 19.0085C18.3728 18.9096 18.4281 18.7767 18.4295 18.6379C18.431 18.499 18.3785 18.3651 18.2831 18.2642C18.1877 18.1633 18.0568 18.1034 17.9181 18.0971C17.5208 18.0883 17.1232 18.0876 16.7263 18.0971C16.4445 18.1042 16.2209 18.35 16.217 18.6272C16.2176 18.7655 16.2711 18.8983 16.3664 18.9984C16.4617 19.0986 16.5917 19.1586 16.7298 19.166C16.9292 19.1731 17.1281 19.1674 17.3285 19.1678ZM17.3243 21.4169C17.5229 21.4169 17.7219 21.4225 17.9202 21.4169C18.056 21.4103 18.1843 21.3527 18.2794 21.2556C18.3746 21.1585 18.4295 21.0291 18.4334 20.8932C18.4422 20.6227 18.2164 20.3578 17.9403 20.349C17.5318 20.3367 17.1222 20.3367 16.7136 20.349C16.4357 20.3575 16.211 20.6185 16.2181 20.8907C16.2218 21.026 16.2761 21.1549 16.3703 21.252C16.4644 21.3492 16.5916 21.4075 16.7266 21.4155C16.9249 21.4229 17.1239 21.4169 17.3226 21.4169H17.3243Z" fill="#FF4444"/>
</svg>
