<svg width="16" height="16" viewBox="0 0 16 16" fill="none" xmlns="http://www.w3.org/2000/svg">
<path d="M9.58535 0H15.0816C15.1056 0.00938525 15.1294 0.0197091 15.1538 0.0284687C15.7204 0.23338 15.9985 0.62975 15.9985 1.23635C15.9985 3.51947 15.9985 5.80321 15.9985 8.08758C16.0034 8.19152 15.997 8.29568 15.9794 8.39824C15.8543 8.96823 15.385 9.34489 14.7859 9.34552C13.1736 9.34802 11.5612 9.34802 9.94887 9.34552C9.12611 9.34552 8.63965 8.85874 8.63965 8.03503C8.63965 5.7932 8.63965 3.55117 8.63965 1.30893C8.63902 0.605349 8.92089 0.216174 9.58535 0Z" fill="#4FB278"/>
<path d="M0 15.0818V7.5883C0.169557 6.93509 0.688238 6.64383 1.16875 6.6432C2.83304 6.6407 4.49732 6.6407 6.16161 6.6432C6.31718 6.64242 6.47135 6.67247 6.61524 6.73163C6.75912 6.79079 6.88984 6.87789 6.99986 6.98788C7.10988 7.09787 7.19701 7.22858 7.2562 7.37245C7.3154 7.51631 7.3455 7.67049 7.34475 7.82606C7.34955 10.1561 7.34955 12.4861 7.34475 14.8162C7.34475 15.4885 6.82326 15.9975 6.15129 15.9981C4.49201 16 2.83283 16 1.17376 15.9981C1.08547 16.0012 0.997132 15.9937 0.910664 15.9756C0.42921 15.8586 0.145781 15.5407 0 15.0818Z" fill="#4FB278"/>
<path d="M6.40061 0C7.06633 0.215861 7.34694 0.603471 7.34694 1.30893C7.34694 2.22973 7.34694 3.15031 7.34694 4.07069C7.346 4.85155 6.84797 5.34959 6.06776 5.34959C4.48168 5.34959 2.89561 5.34959 1.30953 5.34959C0.604398 5.34959 0.2218 5.07179 0 4.40356V0.907241C0.138899 0.442149 0.440681 0.139736 0.905346 0H6.40061Z" fill="#4FB278"/>
<path d="M12.3179 15.9993C11.4964 15.9993 10.6748 15.9993 9.85304 15.9993C9.15292 15.9993 8.64206 15.491 8.63987 14.7893C8.63632 13.8117 8.63632 12.834 8.63987 11.8561C8.64206 11.1584 9.15698 10.641 9.85367 10.6397C11.4971 10.6368 13.1404 10.6368 14.7836 10.6397C15.495 10.6397 15.9968 11.1503 15.9978 11.8642C15.9978 12.8419 15.9978 13.8197 15.9978 14.7974C15.9978 15.4938 15.4938 15.9981 14.799 15.9993C13.9716 16.0006 13.1446 16.0006 12.3179 15.9993Z" fill="#4FB278"/>
</svg>
