<svg width="16" height="17" viewBox="0 0 16 17" fill="none" xmlns="http://www.w3.org/2000/svg">
<path fill-rule="evenodd" clip-rule="evenodd" d="M0.8 10.1C1.24183 10.1 1.6 10.4582 1.6 10.9V14.1C1.6 14.3122 1.68429 14.5157 1.83431 14.6657C1.98434 14.8157 2.18783 14.9 2.4 14.9H13.6C13.8122 14.9 14.0157 14.8157 14.1657 14.6657C14.3157 14.5157 14.4 14.3122 14.4 14.1V10.9C14.4 10.4582 14.7582 10.1 15.2 10.1C15.6418 10.1 16 10.4582 16 10.9V14.1C16 14.7365 15.7471 15.347 15.2971 15.7971C14.847 16.2471 14.2365 16.5 13.6 16.5H2.4C1.76348 16.5 1.15303 16.2471 0.702944 15.7971C0.252856 15.347 0 14.7365 0 14.1V10.9C0 10.4582 0.358172 10.1 0.8 10.1Z" fill="white"/>
<path fill-rule="evenodd" clip-rule="evenodd" d="M3.43427 6.33432C3.74669 6.0219 4.25322 6.0219 4.56564 6.33432L7.99995 9.76864L11.4343 6.33432C11.7467 6.0219 12.2532 6.0219 12.5656 6.33432C12.8781 6.64674 12.8781 7.15327 12.5656 7.46569L8.56564 11.4657C8.25322 11.7781 7.74669 11.7781 7.43427 11.4657L3.43427 7.46569C3.12185 7.15327 3.12185 6.64674 3.43427 6.33432Z" fill="white"/>
<path fill-rule="evenodd" clip-rule="evenodd" d="M7.99995 0.5C8.44178 0.5 8.79995 0.858172 8.79995 1.3V10.9C8.79995 11.3418 8.44178 11.7 7.99995 11.7C7.55812 11.7 7.19995 11.3418 7.19995 10.9V1.3C7.19995 0.858172 7.55812 0.5 7.99995 0.5Z" fill="white"/>
</svg>
