<svg width="18" height="23" viewBox="0 0 18 23" fill="none" xmlns="http://www.w3.org/2000/svg">
<path d="M14.6 8.20007H16.2C16.4122 8.20007 16.6157 8.28435 16.7657 8.43438C16.9157 8.58441 17 8.78789 17 9.00007V21.0001C17 21.2122 16.9157 21.4157 16.7657 21.5658C16.6157 21.7158 16.4122 21.8001 16.2 21.8001H1.8C1.58783 21.8001 1.38434 21.7158 1.23431 21.5658C1.08429 21.4157 1 21.2122 1 21.0001V9.00007C1 8.78789 1.08429 8.58441 1.23431 8.43438C1.38434 8.28435 1.58783 8.20007 1.8 8.20007H3.4" stroke="#4FB278" stroke-width="1.71429" stroke-linecap="round" stroke-linejoin="round"/>
<path d="M9 12.2V1" stroke="#4FB278" stroke-width="1.71429" stroke-linecap="round" stroke-linejoin="round"/>
<path d="M5.7998 4.2L8.9998 1L12.1998 4.2" stroke="#4FB278" stroke-width="1.71429" stroke-linecap="round" stroke-linejoin="round"/>
</svg>
