<svg width="32" height="32" viewBox="0 0 32 32" fill="none" xmlns="http://www.w3.org/2000/svg">
<path d="M28.6639 15.995L31.538 13.1822C32.3948 12.3711 31.9953 10.9298 30.8715 10.661L26.9559 9.66164L28.0597 5.78571C28.3716 4.67084 27.3204 3.61927 26.2059 3.93127L22.3312 5.03546L21.3322 1.11853C21.0679 0.0123403 19.6104 -0.392222 18.8119 0.451777L16 3.34815L13.1882 0.45184C12.3988 -0.382597 10.9353 -0.000284791 10.6679 1.11859L9.66889 5.03552L5.7942 3.93134C4.67938 3.61921 3.62851 4.67115 3.94038 5.78577L5.0442 9.66171L1.12856 10.6611C0.00431037 10.9299 -0.394378 12.3715 0.461999 13.1822L3.33607 15.995L0.461999 18.8078C-0.394753 19.6188 0.00474799 21.0602 1.1285 21.3289L5.04413 22.3283L3.94032 26.2043C3.62838 27.3191 4.67963 28.3707 5.79414 28.0587L9.66877 26.9545L10.6678 30.8714C10.9452 32.0324 12.3988 32.3726 13.1881 31.5382L16 28.6631L18.8119 31.5382C19.5931 32.3812 21.061 32.0061 21.3322 30.8714L22.3312 26.9545L26.2058 28.0587C27.3206 28.3708 28.3715 27.3189 28.0596 26.2043L26.9558 22.3283L30.8714 21.3289C31.9956 21.0601 32.3943 19.6185 31.5379 18.8078L28.6639 15.995Z" fill="#4FB278"/>
</svg>
