<svg width="16" height="16" viewBox="0 0 16 16" fill="none" xmlns="http://www.w3.org/2000/svg">
<path d="M0 2.57287C0.0897208 2.19554 0.253844 1.86104 0.545202 1.59438C0.864203 1.29531 1.28621 1.13072 1.72345 1.13483C3.98012 1.13108 6.237 1.13108 8.49409 1.13483C8.86548 1.13483 9.13245 1.37711 9.14621 1.7113C9.15902 2.02985 8.92425 2.27151 8.55724 2.31371C8.47412 2.32156 8.39062 2.32469 8.30714 2.32309C6.17073 2.32288 4.03379 2.32277 1.89633 2.32277C1.81349 2.32277 1.7297 2.32277 1.64624 2.32871C1.52366 2.34033 1.40882 2.39383 1.32108 2.48021C1.23333 2.56659 1.17803 2.68057 1.16449 2.80295C1.16043 2.84422 1.16074 2.88611 1.16074 2.928V14.2069C1.15629 14.2901 1.16634 14.3734 1.19044 14.4532C1.22411 14.5583 1.28918 14.6505 1.37689 14.7174C1.4646 14.7843 1.57072 14.8227 1.68094 14.8274C1.81067 14.8337 1.94103 14.8302 2.07108 14.8302C5.34709 14.8302 8.62309 14.8302 11.8991 14.8302C12.2408 14.8302 12.4524 14.6846 12.5171 14.3995C12.5317 14.3178 12.5371 14.2347 12.5334 14.1519C12.5334 12.3318 12.5334 10.5118 12.5334 8.6917C12.528 8.59302 12.5385 8.49411 12.5647 8.39878C12.655 8.12274 12.9145 7.96112 13.2099 7.99801C13.4737 8.03177 13.6885 8.26717 13.7045 8.54165C13.7079 8.60417 13.7063 8.6667 13.7063 8.72922C13.7063 10.5336 13.6882 12.3384 13.7138 14.1422C13.7276 15.0825 13.1239 15.8115 12.3352 15.9738C12.3203 15.9785 12.306 15.9847 12.2924 15.9922H1.40427C1.15418 15.921 0.911276 15.8359 0.696821 15.6796C0.321682 15.4064 0.111917 15.0291 0 14.5883V2.57287Z" fill="white"/>
<path d="M13.9183 3.05176e-05C14.7404 0.0453598 15.4501 0.472706 15.8165 1.35616C16.1691 2.21023 16.0081 3.00583 15.3954 3.70359C15.3472 3.7583 15.2944 3.80863 15.2431 3.8599C12.8097 6.2933 10.3768 8.72712 7.94448 11.1614C7.80587 11.3024 7.63525 11.408 7.44711 11.469C6.3961 11.8153 5.34603 12.1645 4.29689 12.5165C4.17017 12.5645 4.03398 12.582 3.89924 12.5678C3.75382 12.5469 3.62213 12.4705 3.53175 12.3546C3.44137 12.2388 3.39931 12.0925 3.41438 11.9463C3.42647 11.859 3.44742 11.7731 3.4769 11.69C3.83297 10.6202 4.19216 9.5517 4.54729 8.48161C4.59768 8.32799 4.68407 8.18865 4.79926 8.07521C7.25996 5.61763 9.7192 3.15839 12.177 0.697477C12.624 0.251374 13.153 0.00659545 13.9183 3.05176e-05ZM14.8164 2.18115C14.7942 1.77288 14.5976 1.44776 14.193 1.26456C13.8048 1.08918 13.3665 1.18016 13.0339 1.51247C10.6015 3.94087 8.1703 6.37021 5.74023 8.80048C5.68077 8.85853 5.63616 8.93006 5.61019 9.009C5.40105 9.64048 5.18909 10.271 4.98058 10.9025C4.96714 10.9428 4.92275 10.9963 4.97026 11.0291C4.99371 11.0457 5.04904 11.0232 5.08718 11.0107C5.69365 10.8087 6.29888 10.6043 6.9066 10.4051C7.03504 10.3643 7.1515 10.2926 7.24579 10.1963C9.63354 7.80522 12.0224 5.41506 14.4125 3.02584C14.4678 2.97082 14.5225 2.91517 14.5732 2.85578C14.731 2.6704 14.8045 2.45282 14.8148 2.18115H14.8164Z" fill="white"/>
</svg>
