<svg width="120" height="15" viewBox="0 0 120 15" fill="none" xmlns="http://www.w3.org/2000/svg">
<path d="M66.6 7.275C67.6828 6.55714 68.4419 5.37857 68.4419 4.28571C68.4419 1.86429 66.4884 0 63.9767 0H57V15H64.8586C67.1916 15 69 13.1786 69 10.9393C69 9.31071 68.04 7.91786 66.6 7.275V7.275ZM60.3488 2.67857H63.6977C64.6242 2.67857 65.3721 3.39643 65.3721 4.28571C65.3721 5.175 64.6242 5.89286 63.6977 5.89286H60.3488V2.67857ZM64.2558 12.3214H60.3488V9.10714H64.2558C65.1823 9.10714 65.9302 9.825 65.9302 10.7143C65.9302 11.6036 65.1823 12.3214 64.2558 12.3214Z" fill="#14323E"/>
<path d="M11.3763 14.831H15.2985L9.79448 0H5.50398L0 14.831H3.87879L4.7889 12.2113H10.4662L11.3763 14.831ZM9.51278 9.42253H5.76401L7.62756 3.99296L9.51278 9.42253Z" fill="#14323E"/>
<path d="M16.2368 8.91549C16.2368 12.6338 18.5988 15 21.5458 15C23.3443 15 24.6228 14.1972 25.2946 13.162V14.831H29V3.04225H25.2946V4.71127C24.6445 3.67606 23.366 2.87324 21.5675 2.87324C18.5988 2.87324 16.2368 5.19718 16.2368 8.91549ZM25.2946 8.93662C25.2946 10.8169 24.0594 11.8521 22.6509 11.8521C21.2641 11.8521 20.0073 10.7958 20.0073 8.91549C20.0073 7.03521 21.2641 6.02113 22.6509 6.02113C24.0594 6.02113 25.2946 7.05634 25.2946 8.93662Z" fill="#14323E"/>
<path fill-rule="evenodd" clip-rule="evenodd" d="M103.571 12.6C103.571 12.4143 103.658 12.2363 103.812 12.105C103.966 11.9737 104.175 11.9 104.393 11.9H119.179C119.396 11.9 119.605 11.9737 119.759 12.105C119.913 12.2363 120 12.4143 120 12.6C120 12.7857 119.913 12.9637 119.759 13.095C119.605 13.2263 119.396 13.3 119.179 13.3H104.393C104.175 13.3 103.966 13.2263 103.812 13.095C103.658 12.9637 103.571 12.7857 103.571 12.6ZM103.571 7C103.571 6.81435 103.658 6.6363 103.812 6.50503C103.966 6.37375 104.175 6.3 104.393 6.3H119.179C119.396 6.3 119.605 6.37375 119.759 6.50503C119.913 6.6363 120 6.81435 120 7C120 7.18565 119.913 7.3637 119.759 7.49497C119.605 7.62625 119.396 7.7 119.179 7.7H104.393C104.175 7.7 103.966 7.62625 103.812 7.49497C103.658 7.3637 103.571 7.18565 103.571 7ZM103.571 1.4C103.571 1.21435 103.658 1.0363 103.812 0.905025C103.966 0.77375 104.175 0.7 104.393 0.7H119.179C119.396 0.7 119.605 0.77375 119.759 0.905025C119.913 1.0363 120 1.21435 120 1.4C120 1.58565 119.913 1.7637 119.759 1.89497C119.605 2.02625 119.396 2.1 119.179 2.1H104.393C104.175 2.1 103.966 2.02625 103.812 1.89497C103.658 1.7637 103.571 1.58565 103.571 1.4ZM98.6429 2.8C99.0786 2.8 99.4964 2.6525 99.8045 2.38995C100.113 2.1274 100.286 1.7713 100.286 1.4C100.286 1.0287 100.113 0.672601 99.8045 0.41005C99.4964 0.1475 99.0786 0 98.6429 0C98.2071 0 97.7893 0.1475 97.4812 0.41005C97.1731 0.672601 97 1.0287 97 1.4C97 1.7713 97.1731 2.1274 97.4812 2.38995C97.7893 2.6525 98.2071 2.8 98.6429 2.8V2.8ZM98.6429 8.4C99.0786 8.4 99.4964 8.2525 99.8045 7.98995C100.113 7.7274 100.286 7.3713 100.286 7C100.286 6.6287 100.113 6.2726 99.8045 6.01005C99.4964 5.7475 99.0786 5.6 98.6429 5.6C98.2071 5.6 97.7893 5.7475 97.4812 6.01005C97.1731 6.2726 97 6.6287 97 7C97 7.3713 97.1731 7.7274 97.4812 7.98995C97.7893 8.2525 98.2071 8.4 98.6429 8.4V8.4ZM98.6429 14C99.0786 14 99.4964 13.8525 99.8045 13.5899C100.113 13.3274 100.286 12.9713 100.286 12.6C100.286 12.2287 100.113 11.8726 99.8045 11.6101C99.4964 11.3475 99.0786 11.2 98.6429 11.2C98.2071 11.2 97.7893 11.3475 97.4812 11.6101C97.1731 11.8726 97 12.2287 97 12.6C97 12.9713 97.1731 13.3274 97.4812 13.5899C97.7893 13.8525 98.2071 14 98.6429 14V14Z" fill="#14323E"/>
</svg>
