<svg width="16" height="13" viewBox="0 0 16 13" fill="none" xmlns="http://www.w3.org/2000/svg">
<path d="M14.8571 0.785645H1.14286C0.839753 0.785645 0.549062 0.906052 0.334735 1.12038C0.120408 1.33471 0 1.6254 0 1.9285V11.0714C0 11.3745 0.120408 11.6652 0.334735 11.8795C0.549062 12.0938 0.839753 12.2142 1.14286 12.2142H14.8571C15.1602 12.2142 15.4509 12.0938 15.6653 11.8795C15.8796 11.6652 16 11.3745 16 11.0714V1.9285C16 1.6254 15.8796 1.33471 15.6653 1.12038C15.4509 0.906052 15.1602 0.785645 14.8571 0.785645ZM13.6 1.9285L8 5.80279L2.4 1.9285H13.6ZM1.14286 11.0714V2.4485L7.67429 6.9685C7.76994 7.03486 7.88358 7.07042 8 7.07042C8.11642 7.07042 8.23006 7.03486 8.32571 6.9685L14.8571 2.4485V11.0714H1.14286Z" fill="#14984B"/>
</svg>
