<svg width="18" height="14" viewBox="0 0 18 14" fill="none" xmlns="http://www.w3.org/2000/svg">
<path d="M16.8991 0.527657C16.8255 0.520078 16.7514 0.520078 16.6779 0.527657H1.56895C1.47211 0.529149 1.37592 0.543669 1.28296 0.570825L9.08024 8.33573L16.8991 0.527657Z" fill="#4FB278"/>
<path d="M17.6977 1.27783L9.84106 9.10209C9.63885 9.30309 9.36533 9.41592 9.08022 9.41592C8.7951 9.41592 8.52158 9.30309 8.31937 9.10209L0.532889 1.33719C0.508952 1.42517 0.49626 1.51582 0.495117 1.60699V12.3991C0.495117 12.6853 0.608819 12.9598 0.81121 13.1622C1.0136 13.3646 1.2881 13.4783 1.57433 13.4783H16.6832C16.9695 13.4783 17.244 13.3646 17.4464 13.1622C17.6487 12.9598 17.7624 12.6853 17.7624 12.3991V1.60699C17.7581 1.49457 17.7363 1.38351 17.6977 1.27783ZM2.31358 12.3991H1.56353V11.6274L5.48645 7.73689L6.2473 8.49773L2.31358 12.3991ZM16.6724 12.3991H15.917L11.9833 8.49773L12.7441 7.73689L16.667 11.6274L16.6724 12.3991Z" fill="#4FB278"/>
</svg>
