<svg width="16" height="16" viewBox="0 0 16 16" fill="none" xmlns="http://www.w3.org/2000/svg">
<path d="M1.70667 7.616C1.70667 8 1.728 8.36267 1.77067 8.72533H0V10.0907H2.06933C3.02933 13.184 5.80267 15.1893 9.152 15.1893C12.352 15.1893 14.912 13.5893 16 10.7307H13.696C12.8853 12.4373 11.328 13.44 9.152 13.44C6.848 13.44 4.97067 12.2027 4.13867 10.0907H9.152V8.72533H3.79733C3.73333 8.36267 3.712 8 3.712 7.616C3.712 7.25333 3.73333 6.912 3.776 6.57067H9.152V5.22667H4.11733C4.88533 3.05067 6.784 1.77067 9.152 1.77067C11.328 1.77067 12.8853 2.77333 13.696 4.50133H16C14.912 1.62133 12.352 0 9.152 0C5.76 0 2.98667 2.06933 2.048 5.22667H0V6.57067H1.77067C1.728 6.912 1.70667 7.25333 1.70667 7.616Z" fill="#14323E"/>
</svg>
