<svg width="44" height="54" viewBox="0 0 44 54" fill="none" xmlns="http://www.w3.org/2000/svg">
<path d="M25.6667 14.3438V0H2.75C1.22604 0 0 1.12852 0 2.53125V51.4688C0 52.8715 1.22604 54 2.75 54H41.25C42.774 54 44 52.8715 44 51.4688V16.875H28.4167C26.9042 16.875 25.6667 15.7359 25.6667 14.3438ZM33.1352 37.1261H25.6667V45.5636C25.6667 46.4959 24.8463 47.2511 23.8333 47.2511H20.1667C19.1537 47.2511 18.3333 46.4959 18.3333 45.5636V37.1261H10.8648C9.22854 37.1261 8.41156 35.3025 9.57344 34.2404L20.6216 24.1471C21.3835 23.4499 22.6142 23.4499 23.3761 24.1471L34.4243 34.2404C35.5873 35.3025 34.7715 37.1261 33.1352 37.1261ZM43.1979 11.0742L31.9802 0.738281C31.4646 0.263672 30.7656 0 30.0323 0H29.3333V13.5H44V12.8566C44 12.1922 43.7135 11.5488 43.1979 11.0742Z" fill="#4FB278"/>
</svg>
