<svg width="14" height="17" viewBox="0 0 14 17" fill="none" xmlns="http://www.w3.org/2000/svg">
<path d="M14 4.25H9.33333V0L14 4.25ZM9.33333 5.3125H14V15.4062C14 16.2865 13.2165 17 12.25 17H1.75C0.78349 17 0 16.2861 0 15.4062V1.59375C0 0.713535 0.78349 0 1.75 0H8.16667L8.16681 4.25C8.16667 4.8377 8.68802 5.3125 9.33333 5.3125ZM2.33333 2.92188C2.33333 3.0673 2.46568 3.1875 2.625 3.1875H5.54167C5.70208 3.1875 5.83333 3.0673 5.83333 2.92188V2.39062C5.83333 2.24553 5.70208 2.125 5.54167 2.125H2.625C2.46568 2.125 2.33333 2.24553 2.33333 2.39062V2.92188ZM2.625 5.3125H5.54167C5.70208 5.3125 5.83333 5.19297 5.83333 5.04688V4.51562C5.83333 4.36953 5.70208 4.25 5.54167 4.25H2.625C2.46568 4.25 2.33333 4.36953 2.33333 4.51562V5.04688C2.33333 5.19297 2.46568 5.3125 2.625 5.3125ZM7.20052 10.5187L6.96719 10.4656C6.13594 10.2332 6.15417 10.0971 6.18333 9.97754C6.23346 9.71816 6.78818 9.65484 7.28693 9.72437C7.49087 9.75239 7.71458 9.81773 7.92823 9.8852C8.30703 10.0045 8.72411 9.82085 8.85609 9.47547C8.98826 9.12883 8.78715 8.75032 8.40656 8.62979C8.14337 8.54731 7.92859 8.49439 7.7299 8.45471V8.23438C7.7299 7.86814 7.40348 7.57031 7.00073 7.57031C6.59797 7.57031 6.27156 7.86811 6.27156 8.23438V8.43333C5.45417 8.59297 4.87812 9.05781 4.74687 9.75176C4.47686 11.1742 5.95693 11.5696 6.58875 11.7386L6.80065 11.7947C7.86815 12.0728 7.85065 12.1662 7.81856 12.3352C7.76843 12.5946 7.21372 12.659 6.71351 12.5884C6.46056 12.5542 6.1371 12.4483 5.85091 12.3549L5.68797 12.301C5.30844 12.1817 4.89209 12.3612 4.75756 12.7067C4.62368 13.0524 4.82249 13.4319 5.20235 13.5544L5.35788 13.6042C5.64072 13.6968 5.95507 13.7898 6.27153 13.8536V14.0781C6.27153 14.4444 6.59794 14.7422 7.00069 14.7422C7.40345 14.7422 7.72986 14.4444 7.72986 14.0781V13.8705C8.54507 13.7113 9.12293 13.2552 9.25491 12.5613C9.52656 11.123 8.01354 10.7279 7.20052 10.5187Z" fill="#4FB278"/>
</svg>
