<svg width="10" height="12" viewBox="0 0 10 12" fill="none" xmlns="http://www.w3.org/2000/svg">
<path fill-rule="evenodd" clip-rule="evenodd" d="M0 0.6C0 0.268629 0.265476 0 0.592957 0H8.81431C9.03965 8.55088e-05 9.26052 0.0651332 9.45065 0.187526C9.64078 0.309919 9.79251 0.484591 9.88807 0.691087C9.98363 0.89758 10.0191 1.12735 9.99026 1.3535C9.96143 1.57965 9.86953 1.7928 9.72531 1.968L7.88731 4.2L9.72524 6.43191C9.86945 6.60711 9.96143 6.82035 9.99026 7.0465C10.0191 7.27265 9.98363 7.50242 9.88807 7.70891C9.79251 7.91541 9.64078 8.09008 9.45065 8.21247C9.26052 8.33487 9.03987 8.39991 8.81453 8.4H1.18591V11.4C1.18591 11.7314 0.920438 12 0.592957 12C0.265476 12 0 11.7314 0 11.4V0.6ZM1.18591 7.2H8.81409L6.65995 4.58409C6.47672 4.36159 6.47672 4.03841 6.65995 3.81591L8.81409 1.2L1.18591 1.2V7.2Z" fill="#14323E"/>
</svg>
