<svg width="18" height="12" viewBox="0 0 18 12" fill="none" xmlns="http://www.w3.org/2000/svg">
<path fill-rule="evenodd" clip-rule="evenodd" d="M1.80815 5.68388C1.74769 5.75251 1.71429 5.84086 1.71429 5.93242C1.71429 6.02398 1.74769 6.11234 1.80815 6.18096C2.42848 6.84791 3.43158 7.81564 4.67421 8.61283C5.92492 9.4152 7.36025 10.0077 8.85714 10.0077C10.354 10.0077 11.7894 9.4152 13.0401 8.61283C14.2827 7.81564 15.2858 6.84789 15.9061 6.18095C15.9666 6.11233 16 6.02397 16 5.93242C16 5.84087 15.9666 5.75252 15.9061 5.6839C15.2858 5.01695 14.2827 4.04921 13.0401 3.25201C11.7894 2.44965 10.354 1.85711 8.85714 1.85711C7.36025 1.85711 5.92492 2.44965 4.67421 3.25201C3.43158 4.0492 2.42848 5.01694 1.80815 5.68388ZM3.74856 1.80912C5.15521 0.90671 6.91365 0.142822 8.85714 0.142822C10.8006 0.142822 12.5591 0.90671 13.9657 1.80912C15.3768 2.7144 16.4925 3.79648 17.1674 4.52278L17.1758 4.53189L17.1758 4.53195C17.5224 4.91604 17.7143 5.41504 17.7143 5.93242C17.7143 6.44981 17.5224 6.94881 17.1758 7.3329L17.1674 7.34213L17.1674 7.34207C16.4925 8.06836 15.3768 9.15045 13.9657 10.0557C12.5591 10.9581 10.8006 11.722 8.85714 11.722C6.91365 11.722 5.15521 10.9581 3.74856 10.0557C2.33744 9.15045 1.22181 8.06836 0.54693 7.34207L0.538465 7.33296L0.538532 7.3329C0.191883 6.94881 0 6.44981 0 5.93242C0 5.41504 0.191883 4.91604 0.538532 4.53195L0.546864 4.52272L0.54693 4.52278C1.22181 3.79648 2.33744 2.7144 3.74856 1.80912Z" fill="#4FB278"/>
<path fill-rule="evenodd" clip-rule="evenodd" d="M8.85719 4.32326C7.96851 4.32326 7.2481 5.04368 7.2481 5.93235C7.2481 6.82102 7.96851 7.54144 8.85719 7.54144C9.74586 7.54144 10.4663 6.82102 10.4663 5.93235C10.4663 5.04368 9.74586 4.32326 8.85719 4.32326ZM5.53381 5.93235C5.53381 4.0969 7.02174 2.60898 8.85719 2.60898C10.6926 2.60898 12.1806 4.0969 12.1806 5.93235C12.1806 7.7678 10.6926 9.25572 8.85719 9.25572C7.02174 9.25572 5.53381 7.7678 5.53381 5.93235Z" fill="#4FB278"/>
</svg>
