<svg width="14" height="14" viewBox="0 0 14 14" fill="none" xmlns="http://www.w3.org/2000/svg">
<path d="M13.2664 0.733614C12.288 -0.24458 10.702 -0.244531 9.72379 0.733719L1.35872 9.09913C1.07429 9.38359 0.874371 9.74133 0.781201 10.1327L0.0142862 13.3534C-0.0279379 13.5308 0.0248632 13.7173 0.153775 13.8463C0.282695 13.9751 0.469259 14.028 0.646611 13.9857L3.86749 13.2189C4.25893 13.1257 4.61683 12.9257 4.90135 12.6412L13.2664 4.27572C14.2445 3.29755 14.2445 1.71173 13.2664 0.733614ZM10.4663 1.47609C11.0344 0.907895 11.9557 0.907867 12.5239 1.47602C13.092 2.04414 13.0921 2.96522 12.5239 3.53336L11.9 4.15732L9.84244 2.09994L10.4663 1.47609ZM9.10002 2.84239L11.1576 4.89978L4.15884 11.8988C4.01173 12.0459 3.82668 12.1493 3.62429 12.1975L1.23334 12.7667L1.80265 10.3758C1.85082 10.1736 1.95418 9.98856 2.10123 9.8415L9.10002 2.84239Z" fill="#4F656E"/>
</svg>
