<svg width="16" height="14" viewBox="0 0 16 14" fill="none" xmlns="http://www.w3.org/2000/svg">
<path d="M16 2.56939V12.2806C15.9559 12.4192 15.9196 12.5621 15.8464 12.6873C15.5523 13.1988 15.1033 13.4432 14.5201 13.4432C10.176 13.4444 5.83173 13.4444 1.48723 13.4432C1.45594 13.4432 1.42465 13.4432 1.39337 13.4432C0.605559 13.415 0.00140791 12.7965 0.00109504 12.0093C-0.000365015 8.95006 -0.000365015 5.89082 0.00109504 2.83158C0.00109504 2.17142 0.442241 1.61764 1.08425 1.45808C1.24135 1.42168 1.40232 1.40466 1.56357 1.4074C3.16608 1.4074 4.7686 1.4074 6.37112 1.4074C6.48626 1.4074 6.57699 1.40927 6.59514 1.24658C6.67242 0.552949 7.27594 0.0157519 7.97739 0.000108422C8.31898 -0.00407876 8.65095 0.113134 8.91418 0.330866C9.1774 0.548597 9.35478 0.852706 9.41472 1.18901C9.45101 1.40614 9.45101 1.40802 9.67722 1.40802H14.5001C14.9356 1.40802 15.3176 1.54068 15.6264 1.85949C15.8188 2.06036 15.9271 2.30533 16 2.56939ZM11.3013 7.05532C11.9205 7.05532 12.5397 7.0572 13.1588 7.05532C13.6907 7.05313 14.0793 6.67581 14.0915 6.148C14.099 5.82532 14.099 5.50265 14.0915 5.17998C14.0799 4.66812 13.7057 4.27641 13.1907 4.27266C11.9315 4.26202 10.6722 4.26202 9.41284 4.27266C8.9354 4.27579 8.57122 4.61243 8.50959 5.08205C8.4636 5.43372 8.47423 5.78976 8.49707 6.14174C8.53524 6.72556 8.90787 7.05626 9.49043 7.0572C10.0928 7.05657 10.6964 7.05595 11.3013 7.05532ZM6.09861 5.42464C6.10037 5.18078 6.05356 4.93901 5.96093 4.71343C5.86829 4.48784 5.73168 4.28295 5.55905 4.1107C5.38642 3.93845 5.18123 3.80228 4.95544 3.71014C4.72965 3.618 4.48778 3.57173 4.24392 3.57402C3.20144 3.57402 2.38454 4.3953 2.38986 5.44091C2.39361 6.47338 3.21552 7.28684 4.25237 7.2834C4.49618 7.2845 4.73778 7.23707 4.96309 7.14389C5.1884 7.05071 5.39292 6.91364 5.56474 6.74065C5.73656 6.56767 5.87225 6.36223 5.96391 6.13629C6.05556 5.91036 6.10135 5.66845 6.09861 5.42464V5.42464ZM6.56948 10.2569H6.56354C6.56354 10.0126 6.57292 9.76759 6.56166 9.52386C6.52599 8.74544 5.8333 8.06182 5.05488 8.04461C4.51424 8.03293 3.97329 8.03293 3.43202 8.04461C2.69396 8.05994 1.98813 8.69789 1.93651 9.43157C1.89834 9.97502 1.92274 10.5232 1.92305 11.0694C1.92305 11.1993 1.99846 11.2719 2.1283 11.2766C2.26346 11.2816 2.39903 11.2826 2.53503 11.2797C2.75028 11.275 2.81254 11.2121 2.81348 10.9962C2.81505 10.5751 2.81348 10.1537 2.81348 9.73223C2.81536 9.23665 3.11477 8.93598 3.61224 8.93285C4.03336 8.92993 4.45469 8.92993 4.87623 8.93285C5.37369 8.93598 5.67217 9.23665 5.67405 9.73255C5.67405 10.159 5.67405 10.5854 5.67405 11.0122C5.67405 11.2052 5.74382 11.2731 5.93811 11.2791C6.06326 11.283 6.18841 11.283 6.31355 11.2791C6.50347 11.2731 6.56385 11.214 6.5676 11.0213C6.57292 10.7666 6.56948 10.5119 6.56948 10.2569V10.2569ZM11.0682 7.79432C10.3092 7.79432 9.55019 7.79432 8.79117 7.79432C8.58123 7.79432 8.49864 7.87692 8.48956 8.08529C8.48612 8.16319 8.48956 8.24172 8.48956 8.31931C8.48956 8.63625 8.55933 8.70665 8.8722 8.70665H13.2536C13.3004 8.70864 13.3472 8.70749 13.3938 8.7032C13.5362 8.68475 13.6225 8.61153 13.6222 8.45823C13.6222 8.34372 13.6244 8.22952 13.6222 8.11407C13.62 7.85658 13.5565 7.79307 13.2974 7.79307C12.5547 7.7939 11.8116 7.79432 11.0682 7.79432ZM10.2391 10.3401C10.7278 10.3401 11.2162 10.342 11.7049 10.3401C11.9089 10.3401 11.9843 10.2607 11.9899 10.0554C11.9931 9.93591 11.9956 9.81577 11.9884 9.69688C11.9781 9.53012 11.8961 9.44971 11.73 9.4494C10.7369 9.44752 9.74407 9.44752 8.75143 9.4494C8.5828 9.4494 8.50614 9.52386 8.49238 9.69531C8.48362 9.80357 8.48706 9.91432 8.48894 10.0226C8.49332 10.2682 8.56309 10.3401 8.80462 10.3411C9.28269 10.3433 9.76107 10.342 10.2391 10.3414V10.3401ZM7.99867 1.87545C8.11695 1.8785 8.23168 1.83483 8.31799 1.7539C8.40431 1.67297 8.45527 1.5613 8.45984 1.44306C8.46735 1.19871 8.25585 0.985961 8.00524 0.986274C7.88699 0.986712 7.77355 1.03311 7.68889 1.11567C7.60423 1.19823 7.55499 1.31047 7.55158 1.42867C7.55272 1.54686 7.6002 1.65989 7.68381 1.74344C7.76742 1.82699 7.88048 1.87439 7.99867 1.87545Z" fill="#4FB278"/>
<path d="M11.3069 5.18061C11.8741 5.18061 12.4414 5.1853 13.0083 5.1778C13.1647 5.17561 13.2076 5.23536 13.201 5.3796C13.1908 5.57188 13.1908 5.76456 13.201 5.95684C13.211 6.11922 13.1406 6.16302 12.9911 6.16208C12.2577 6.15802 11.5237 6.16208 10.79 6.16208C10.3949 6.16208 9.9991 6.15802 9.60395 6.16208C9.45346 6.16427 9.38494 6.11797 9.39652 5.9559C9.40888 5.76369 9.40888 5.57087 9.39652 5.37866C9.38619 5.21628 9.45158 5.17592 9.60458 5.1778C10.1724 5.18499 10.7397 5.18061 11.3069 5.18061Z" fill="#4FB278"/>
<path d="M4.23983 6.38797C3.98454 6.38491 3.7408 6.2811 3.56171 6.09914C3.38262 5.91718 3.28269 5.67181 3.2837 5.41651C3.29183 4.89871 3.73204 4.46444 4.24859 4.46789C4.50028 4.47343 4.73973 4.5776 4.91537 4.75797C5.091 4.93834 5.18878 5.18048 5.18763 5.43223C5.18648 5.68398 5.0865 5.92522 4.90923 6.10397C4.73195 6.28273 4.49156 6.38472 4.23983 6.38797V6.38797Z" fill="#4FB278"/>
</svg>
