<svg width="16" height="20" viewBox="0 0 16 20" fill="none" xmlns="http://www.w3.org/2000/svg">
<path d="M7.99998 19.5C6.55649 18.363 5.21849 17.1165 3.99999 15.7736C2.17142 13.7568 1.00445e-06 10.7533 1.00445e-06 7.89115C-0.00079202 6.42945 0.468009 5.00039 1.34708 3.78481C2.22614 2.56924 3.47596 1.6218 4.93835 1.0624C6.40074 0.503004 8.00998 0.356789 9.5624 0.642263C11.1148 0.927737 12.5406 1.63207 13.6594 2.66612C14.4043 3.35089 14.9946 4.16528 15.3964 5.06215C15.7982 5.95903 16.0033 6.92058 16 7.89115C16 10.7533 13.8285 13.7568 12 15.7736C10.7815 17.1165 9.44347 18.363 7.99998 19.5ZM7.99998 4.7251C7.09067 4.7251 6.2186 5.05867 5.57562 5.65242C4.93264 6.24617 4.57142 7.05146 4.57142 7.89115C4.57142 8.73084 4.93264 9.53614 5.57562 10.1299C6.2186 10.7236 7.09067 11.0572 7.99998 11.0572C8.90929 11.0572 9.78136 10.7236 10.4243 10.1299C11.0673 9.53614 11.4285 8.73084 11.4285 7.89115C11.4285 7.05146 11.0673 6.24617 10.4243 5.65242C9.78136 5.05867 8.90929 4.7251 7.99998 4.7251Z" fill="#4FB278"/>
</svg>
