<svg width="11" height="14" viewBox="0 0 11 14" fill="none" xmlns="http://www.w3.org/2000/svg">
<path d="M5.5 0C7.01876 0 8.25 1.2536 8.25 2.8V4.2H9.96875C10.5383 4.2 11 4.6701 11 5.25V12.95C11 13.5299 10.5383 14 9.96875 14H1.03125C0.461704 14 0 13.5299 0 12.95V5.25C0 4.6701 0.461704 4.2 1.03125 4.2H2.75V2.8C2.75 1.2536 3.98122 0 5.5 0ZM5.50007 8.05C4.93054 8.05 4.46882 8.52012 4.46882 9.1C4.46882 9.67988 4.93054 10.15 5.50007 10.15C6.06966 10.15 6.53132 9.67988 6.53132 9.1C6.53132 8.52012 6.06966 8.05 5.50007 8.05ZM5.5 1.4C4.74059 1.4 4.125 2.0268 4.125 2.8V4.2H6.875V2.8C6.875 2.0268 6.25941 1.4 5.5 1.4Z" fill="#8A999F"/>
</svg>
