<svg width="16" height="4" viewBox="0 0 16 4" fill="none" xmlns="http://www.w3.org/2000/svg">
<path d="M3.5 1.75C3.5 2.7165 2.7165 3.5 1.75 3.5C0.7835 3.5 0 2.7165 0 1.75C0 0.7835 0.7835 0 1.75 0C2.7165 0 3.5 0.7835 3.5 1.75ZM9.5 1.75C9.5 2.7165 8.7165 3.5 7.75 3.5C6.7835 3.5 6 2.7165 6 1.75C6 0.7835 6.7835 0 7.75 0C8.7165 0 9.5 0.7835 9.5 1.75ZM13.75 3.5C14.7165 3.5 15.5 2.7165 15.5 1.75C15.5 0.7835 14.7165 0 13.75 0C12.7835 0 12 0.7835 12 1.75C12 2.7165 12.7835 3.5 13.75 3.5Z" fill="#4FB278"/>
</svg>
