<svg width="22" height="22" viewBox="0 0 22 22" fill="none" xmlns="http://www.w3.org/2000/svg">
<path d="M1.83398 9.89084C1.83398 7.20501 3.07149 5.74751 5.53733 5.53667C5.75733 5.50917 5.98649 5.5 6.22483 5.5H12.0915C15.0157 5.5 16.4823 6.96667 16.4823 9.89084V13.5575C16.4823 13.7958 16.4732 14.025 16.4457 14.245C16.2348 16.72 14.7773 17.9483 12.0915 17.9483H11.7248C11.4957 17.9483 11.2756 18.0583 11.1381 18.2417L10.0382 19.7083C9.55233 20.3592 8.76398 20.3592 8.27815 19.7083L7.17814 18.2417C7.05897 18.0858 6.79315 17.9483 6.59149 17.9483H6.22483C3.30066 17.9483 1.83398 17.2242 1.83398 13.5575" stroke="#DB6255" stroke-width="1.5" stroke-miterlimit="10" stroke-linecap="round" stroke-linejoin="round"/>
<path d="M20.1488 6.22483C20.1488 3.30066 18.6821 1.83398 15.7579 1.83398H9.89128C7.20544 1.83398 5.74794 3.07149 5.53711 5.53733C5.75711 5.50983 5.98628 5.50065 6.22461 5.50065H12.0913C15.0154 5.50065 16.4821 6.96733 16.4821 9.89149V13.5582C16.4821 13.7965 16.4729 14.0257 16.4454 14.2457C18.9113 14.0348 20.1488 12.5865 20.1488 9.89149" stroke="#DB6255" stroke-width="1.5" stroke-miterlimit="10" stroke-linecap="round" stroke-linejoin="round"/>
<path d="M12.3702 12.1458H12.3785" stroke="#DB6255" stroke-width="2" stroke-linecap="round" stroke-linejoin="round"/>
<path d="M9.16319 12.1458H9.17144" stroke="#DB6255" stroke-width="2" stroke-linecap="round" stroke-linejoin="round"/>
<path d="M5.95421 12.1458H5.96246" stroke="#DB6255" stroke-width="2" stroke-linecap="round" stroke-linejoin="round"/>
</svg>
