<svg width="16" height="15" viewBox="0 0 16 15" fill="none" xmlns="http://www.w3.org/2000/svg">
<path d="M8.00501 0.00123511C10.1235 0.00123511 12.2422 0.00123511 14.3611 0.00123511C15.1815 0.00123511 15.8194 0.527466 15.9752 1.32982C15.991 1.42265 15.9978 1.5168 15.9955 1.61094C15.9955 4.45063 15.9955 7.29043 15.9955 10.1303C15.9955 11.0404 15.2919 11.7381 14.3771 11.7391C12.2973 11.7415 10.2174 11.7415 8.1374 11.7391C8.00525 11.7347 7.87615 11.7794 7.77491 11.8644C6.57372 12.8309 5.37041 13.7944 4.16499 14.755C4.0266 14.8661 3.88287 14.9465 3.69812 14.9348C3.40566 14.9164 3.19557 14.6937 3.19457 14.3802C3.1919 13.5759 3.19457 12.7715 3.19457 11.9675C3.19457 11.7404 3.19457 11.7401 2.96713 11.7401C2.50026 11.7401 2.03539 11.7427 1.56952 11.7401C0.712146 11.733 0.00216762 11.0247 0.00216762 10.1654C-0.000722539 7.30344 -0.000722539 4.44141 0.00216762 1.57926C0.00445794 1.16074 0.172255 0.760125 0.468916 0.464901C0.765577 0.169677 1.167 0.00382747 1.58553 0.00356946C3.72424 -0.000209976 5.86407 -0.000988085 8.00501 0.00123511ZM4.30005 13.2094C4.36141 13.2024 4.3971 13.1567 4.43878 13.1233C5.38786 12.3653 6.33961 11.609 7.28269 10.8453C7.43997 10.7131 7.64023 10.6431 7.84561 10.6486C9.97565 10.6532 12.1055 10.6541 14.2351 10.6512C14.7126 10.6512 14.9077 10.4595 14.9077 9.98895C14.9077 7.24352 14.9077 4.49787 14.9077 1.752C14.9077 1.28513 14.7126 1.08905 14.2524 1.08905H1.73993C1.28573 1.08905 1.08598 1.2868 1.08598 1.73566C1.08598 4.49243 1.08598 7.24919 1.08598 10.006C1.08598 10.4488 1.28606 10.6506 1.72526 10.6512C2.35187 10.6512 2.97881 10.6512 3.60542 10.6512C4.09897 10.6512 4.28071 10.8307 4.28071 11.3182C4.28071 11.8948 4.28071 12.4717 4.28071 13.0486C4.28204 13.1017 4.26404 13.1583 4.30005 13.2094Z" fill="white"/>
<path d="M8.00667 4.26111C9.41574 4.26111 10.8246 4.26111 12.2332 4.26111C12.59 4.26111 12.8208 4.50588 12.8001 4.85169C12.7917 4.97731 12.7392 5.09591 12.6518 5.18654C12.5644 5.27716 12.4478 5.33396 12.3226 5.3469C12.2839 5.35024 12.2449 5.34924 12.2062 5.34924C9.39962 5.34924 6.59317 5.34924 3.78682 5.34924C3.42633 5.34924 3.1919 5.12881 3.19423 4.79867C3.19657 4.49854 3.41399 4.27011 3.71513 4.26311C3.97024 4.25677 4.22535 4.26111 4.48213 4.26111H8.00667Z" fill="white"/>
<path d="M5.85877 7.47818C5.14879 7.47818 4.43915 7.48018 3.72917 7.47818C3.60036 7.47857 3.47568 7.43274 3.37778 7.34904C3.27987 7.26533 3.21524 7.14929 3.1956 7.02198C3.15859 6.73852 3.30965 6.49042 3.5721 6.41438C3.63647 6.398 3.70279 6.3906 3.76919 6.39237C5.16646 6.39104 6.56396 6.39104 7.96169 6.39237C8.31117 6.39237 8.54061 6.6128 8.53927 6.93961C8.53927 7.26075 8.30384 7.47918 7.95402 7.47985C7.25593 7.48073 6.55752 7.48018 5.85877 7.47818Z" fill="white"/>
</svg>
