<svg width="16" height="12" viewBox="0 0 16 12" fill="none" xmlns="http://www.w3.org/2000/svg">
<path d="M15.5288 0.993559C14.559 0.589336 13.5885 0.435547 12.6186 0.435547C9.53935 0.435298 6.4604 1.98437 3.3812 1.98437C2.60896 1.98437 1.83722 1.88698 1.06498 1.6435C0.978235 1.61617 0.891236 1.60325 0.806237 1.60325C0.375994 1.60325 0 1.93418 0 2.39356V10.2758C0 10.5896 0.180747 10.887 0.470993 11.0077C1.44073 11.4122 2.41121 11.566 3.3812 11.566C6.4604 11.566 9.5396 10.0169 12.6188 10.0169C13.391 10.0169 14.1628 10.1143 14.935 10.3578C15.0218 10.3851 15.1088 10.398 15.1938 10.398C15.624 10.398 16 10.0671 16 9.60772V1.72573C15.9998 1.4117 15.819 1.11455 15.5288 0.993559ZM7.99988 8.38586C6.89514 8.38586 5.99991 7.31778 5.99991 6.00076C5.99991 4.6835 6.89539 3.61567 7.99988 3.61567C9.10436 3.61567 9.99984 4.6835 9.99984 6.00076C9.99984 7.31828 9.10411 8.38586 7.99988 8.38586Z" fill="#4FB278"/>
</svg>
