<svg width="16" height="18" viewBox="0 0 16 18" fill="none" xmlns="http://www.w3.org/2000/svg">
<path d="M15.8197 11.3543L14.1538 9.67407V7.44828C14.1519 5.91011 13.5846 4.42728 12.5616 3.28654C11.5386 2.1458 10.1326 1.42816 8.61539 1.27241V0H7.38462V1.27241C5.86743 1.42816 4.46139 2.1458 3.43838 3.28654C2.41537 4.42728 1.84806 5.91011 1.84615 7.44828V9.67407L0.180308 11.3543C0.0648927 11.4706 3.48538e-05 11.6285 0 11.7931V13.6552C0 13.8198 0.064835 13.9777 0.180242 14.0941C0.295649 14.2105 0.452174 14.2759 0.615385 14.2759H4.92308V14.8966C4.92308 15.7196 5.24725 16.509 5.82429 17.091C6.40132 17.673 7.18395 18 8 18C8.81605 18 9.59868 17.673 10.1757 17.091C10.7527 16.509 11.0769 15.7196 11.0769 14.8966V14.2759H15.3846C15.5478 14.2759 15.7044 14.2105 15.8198 14.0941C15.9352 13.9777 16 13.8198 16 13.6552V11.7931C16 11.6285 15.9351 11.4706 15.8197 11.3543ZM9.84615 14.8966C9.84615 15.3904 9.65165 15.864 9.30543 16.2132C8.95921 16.5624 8.48963 16.7586 8 16.7586C7.51037 16.7586 7.04079 16.5624 6.69457 16.2132C6.34835 15.864 6.15385 15.3904 6.15385 14.8966V14.2759H9.84615V14.8966Z" fill="#14323E"/>
</svg>
