<svg width="14" height="17" viewBox="0 0 14 17" fill="none" xmlns="http://www.w3.org/2000/svg">
<path d="M11.5045 4.99065V4.15888C11.5045 1.86567 9.63882 0 7.34561 0C5.05241 0 3.18673 1.86567 3.18673 4.15888V6.65421H2.35496C1.43751 6.65421 0.691406 7.40031 0.691406 8.31776V14.972C0.691406 15.8894 1.43751 16.6355 2.35496 16.6355H12.3363C13.2537 16.6355 13.9998 15.8894 13.9998 14.972V8.31776C13.9998 7.40031 13.2537 6.65421 12.3363 6.65421H4.85029V4.15888C4.85029 2.78312 5.96985 1.66355 7.34561 1.66355C8.72137 1.66355 9.84094 2.78312 9.84094 4.15888V4.99065H11.5045Z" fill="#4F656E"/>
</svg>
