<svg width="14" height="17" viewBox="0 0 14 17" fill="none" xmlns="http://www.w3.org/2000/svg">
<path d="M13.3084 8.31776C13.3084 7.40031 12.5623 6.65421 11.6449 6.65421H10.8131V4.15888C10.8131 1.86567 8.94741 0 6.65421 0C4.361 0 2.49533 1.86567 2.49533 4.15888V6.65421H1.66355C0.746103 6.65421 0 7.40031 0 8.31776V14.972C0 15.8894 0.746103 16.6355 1.66355 16.6355H11.6449C12.5623 16.6355 13.3084 15.8894 13.3084 14.972V8.31776ZM4.15888 4.15888C4.15888 2.78312 5.27845 1.66355 6.65421 1.66355C8.02996 1.66355 9.14953 2.78312 9.14953 4.15888V6.65421H4.15888V4.15888Z" fill="#4F656E"/>
</svg>
