<svg width="14" height="15" viewBox="0 0 14 15" fill="none" xmlns="http://www.w3.org/2000/svg">
<path d="M13.2664 1.23361C12.288 0.25542 10.702 0.255469 9.72379 1.23372L1.35872 9.59913C1.07429 9.88359 0.874371 10.2413 0.781201 10.6327L0.0142862 13.8534C-0.0279379 14.0308 0.0248632 14.2173 0.153775 14.3463C0.282695 14.4751 0.469259 14.528 0.646611 14.4857L3.86749 13.7189C4.25893 13.6257 4.61683 13.4257 4.90135 13.1412L13.2664 4.77572C14.2445 3.79755 14.2445 2.21173 13.2664 1.23361ZM10.4663 1.97609C11.0344 1.40789 11.9557 1.40787 12.5239 1.97602C13.092 2.54414 13.0921 3.46522 12.5239 4.03336L11.9 4.65732L9.84244 2.59994L10.4663 1.97609ZM9.10002 3.34239L11.1576 5.39978L4.15884 12.3988C4.01173 12.5459 3.82668 12.6493 3.62429 12.6975L1.23334 13.2667L1.80265 10.8758C1.85082 10.6736 1.95418 10.4886 2.10123 10.3415L9.10002 3.34239Z" fill="#14323E"/>
</svg>
