<svg width="18" height="18" viewBox="0 0 18 18" fill="none" xmlns="http://www.w3.org/2000/svg">
<path fill-rule="evenodd" clip-rule="evenodd" d="M13.4335 1.71429C13.3837 1.71429 13.3344 1.72424 13.2885 1.74357C13.2425 1.76289 13.2009 1.7912 13.1661 1.82682L13.1579 1.83519L3.17299 11.7715L2.09343 15.6271L5.94902 14.5476L15.8854 4.56269L15.8894 4.55873C15.9244 4.52396 15.9523 4.4826 15.9713 4.43702C15.9902 4.39144 16 4.34255 16 4.29318C16 4.2438 15.9902 4.19491 15.9713 4.14934C15.9523 4.10376 15.9244 4.06239 15.8894 4.02762L15.8852 4.02344L13.7009 1.82684C13.6661 1.79122 13.6245 1.76289 13.5786 1.74357C13.5327 1.72424 13.4834 1.71429 13.4335 1.71429ZM12.6236 0.163479C12.88 0.055581 13.1553 0 13.4335 0C13.7117 0 13.9871 0.055581 14.2435 0.163479C14.4987 0.270857 14.7299 0.427894 14.9239 0.625445L17.0966 2.81048C17.0974 2.8113 17.0982 2.81213 17.0991 2.81295C17.2936 3.00657 17.4481 3.23666 17.5537 3.49006C17.6597 3.74454 17.7143 4.01749 17.7143 4.29318C17.7143 4.56886 17.6597 4.84181 17.5537 5.09629C17.4481 5.34977 17.2935 5.57993 17.0989 5.77359C17.0981 5.77435 17.0974 5.77512 17.0966 5.77588L7.00498 15.9167C6.90065 16.0216 6.77096 16.0976 6.62853 16.1375L1.08827 17.6888C0.79008 17.7723 0.470036 17.6884 0.251072 17.4695C0.032107 17.2505 -0.0517289 16.9305 0.0317655 16.6323L1.58304 11.092C1.62292 10.9496 1.69898 10.8199 1.80382 10.7156L11.945 0.623618C12.1386 0.426926 12.3692 0.270525 12.6236 0.163479Z" fill="#4FB278"/>
</svg>
