<svg width="22" height="22" viewBox="0 0 22 22" fill="none" xmlns="http://www.w3.org/2000/svg">
<path d="M16.5002 6.56399C16.4452 6.55482 16.3811 6.55482 16.3261 6.56399C15.0611 6.51815 14.0527 5.48232 14.0527 4.19899C14.0527 2.88815 15.1069 1.83398 16.4177 1.83398C17.7286 1.83398 18.7827 2.89732 18.7827 4.19899C18.7736 5.48232 17.7652 6.51815 16.5002 6.56399Z" stroke="#DB6255" stroke-width="1.5" stroke-linecap="round" stroke-linejoin="round"/>
<path d="M15.5558 13.2375C16.8117 13.4483 18.1958 13.2283 19.1675 12.5775C20.46 11.7158 20.46 10.3041 19.1675 9.44247C18.1867 8.79163 16.7842 8.57163 15.5283 8.79163" stroke="#DB6255" stroke-width="1.5" stroke-linecap="round" stroke-linejoin="round"/>
<path d="M5.47244 6.56399C5.52744 6.55482 5.59161 6.55482 5.64661 6.56399C6.91161 6.51815 7.91994 5.48232 7.91994 4.19899C7.91994 2.88815 6.86578 1.83398 5.55494 1.83398C4.24411 1.83398 3.18994 2.89732 3.18994 4.19899C3.19911 5.48232 4.20744 6.51815 5.47244 6.56399Z" stroke="#DB6255" stroke-width="1.5" stroke-linecap="round" stroke-linejoin="round"/>
<path d="M6.41649 13.2375C5.16066 13.4483 3.77649 13.2283 2.80482 12.5775C1.51232 11.7158 1.51232 10.3041 2.80482 9.44247C3.78566 8.79163 5.18815 8.57163 6.44399 8.79163" stroke="#DB6255" stroke-width="1.5" stroke-linecap="round" stroke-linejoin="round"/>
<path d="M11.0002 13.4116C10.9452 13.4025 10.8811 13.4025 10.8261 13.4116C9.56107 13.3658 8.55273 12.33 8.55273 11.0466C8.55273 9.73581 9.6069 8.68164 10.9177 8.68164C12.2286 8.68164 13.2827 9.74498 13.2827 11.0466C13.2736 12.33 12.2652 13.375 11.0002 13.4116Z" stroke="#DB6255" stroke-width="1.5" stroke-linecap="round" stroke-linejoin="round"/>
<path d="M13.6677 16.2991C12.2102 15.3274 9.79932 15.3274 8.33266 16.2991C7.04016 17.1607 7.04016 18.5724 8.33266 19.4341C9.79932 20.4149 12.201 20.4149 13.6677 19.4341" stroke="#DB6255" stroke-width="1.5" stroke-linecap="round" stroke-linejoin="round"/>
</svg>
