<svg width="17" height="16" viewBox="0 0 17 16" fill="none" xmlns="http://www.w3.org/2000/svg">
<path d="M11.1625 11.3699L12.5402 9.99217C12.7258 9.80891 12.9606 9.68346 13.2161 9.63105C13.4715 9.57864 13.7368 9.60153 13.9795 9.69694L15.6586 10.3674C15.9039 10.4669 16.1142 10.6369 16.2631 10.8558C16.412 11.0747 16.4927 11.3328 16.4951 11.5975V14.6729C16.4937 14.8529 16.4558 15.0309 16.3838 15.1959C16.3118 15.361 16.2072 15.5098 16.0761 15.6333C15.9451 15.7569 15.7905 15.8526 15.6215 15.9148C15.4525 15.977 15.2726 16.0044 15.0928 15.9953C3.32648 15.2633 0.952309 5.29919 0.503308 1.48576C0.482465 1.29849 0.501509 1.10894 0.559186 0.929559C0.616864 0.750181 0.711867 0.585048 0.837947 0.445024C0.964028 0.304999 1.11833 0.193257 1.29069 0.117147C1.46306 0.0410379 1.64959 0.00228676 1.83801 0.00344311H4.8088C5.0739 0.0042278 5.3327 0.0843047 5.55192 0.233374C5.77114 0.382444 5.94075 0.593688 6.03893 0.839938L6.70936 2.51908C6.80793 2.76084 6.83307 3.02629 6.78166 3.28226C6.73025 3.53824 6.60455 3.77339 6.42028 3.95834L5.04252 5.3361C5.04252 5.3361 5.83596 10.7057 11.1625 11.3699Z" fill="#4FB278"/>
</svg>
