<svg width="36" height="37" viewBox="0 0 36 37" fill="none" xmlns="http://www.w3.org/2000/svg">
<rect width="35.9975" height="36.0539" rx="5" fill="#4FB278"/>
<path d="M21.8415 26.0533C21.4048 25.9837 20.9696 25.9091 20.5445 25.7799C19.6666 25.5138 18.8424 25.1244 18.0435 24.6811C16.5117 23.8343 15.1234 22.7506 13.9302 21.47C12.3752 19.8021 11.1086 17.9492 10.3646 15.7719C10.1272 15.0771 9.98178 14.367 10.0018 13.6255C10.0188 13.0085 10.1884 12.4458 10.5975 11.984C11.0701 11.4412 11.5796 10.9318 12.1225 10.4593C12.847 9.83858 13.6339 9.84422 14.334 10.4932C15.1093 11.2124 15.8646 11.9567 16.5697 12.7464C17.0851 13.3242 17.0738 14.1419 16.5713 14.7363C16.1903 15.1868 15.7593 15.5882 15.3326 15.996C15.2357 16.0901 15.2275 16.16 15.2849 16.2782C15.6828 17.0874 16.2386 17.7831 16.845 18.4393C17.5839 19.2403 18.3975 19.9529 19.3352 20.5151C19.4694 20.5956 19.6146 20.6574 19.7462 20.7411C19.8532 20.8088 19.9221 20.7988 20.0143 20.7069C20.4093 20.3128 20.7868 19.9012 21.2057 19.5325C21.8791 18.9412 22.7259 18.9447 23.3755 19.5704C24.0891 20.2577 24.7893 20.9578 25.4761 21.671C26.1501 22.373 26.1733 23.2198 25.53 23.9452C25.0741 24.4591 24.5838 24.9447 24.0878 25.4203C23.7216 25.7715 23.2655 25.9649 22.7604 26.0339C22.735 26.0391 22.71 26.0458 22.6855 26.0539L21.8415 26.0533ZM22.228 25.2322C22.8407 25.235 23.3175 25.0582 23.6906 24.6481C24.0521 24.2503 24.4408 23.8797 24.8168 23.4963C24.8944 23.4189 24.9623 23.3324 25.019 23.2386C25.1811 22.9652 25.1792 22.6927 24.9986 22.431C24.9225 22.3252 24.8371 22.2265 24.7434 22.1359C24.1383 21.5315 23.5191 20.9411 22.9275 20.3241C22.3945 19.7686 21.9913 19.9263 21.5919 20.3295C21.2069 20.7184 20.8196 21.1051 20.43 21.4895C20.1836 21.7328 19.9074 21.7864 19.6011 21.629C19.2816 21.4647 18.9581 21.3064 18.6565 21.1085C17.6846 20.4671 16.8033 19.6981 16.0361 18.8221C15.4019 18.1047 14.8256 17.347 14.4372 16.4635C14.2544 16.0493 14.2936 15.8208 14.6212 15.5104C15.0335 15.1191 15.4435 14.7266 15.8295 14.3081C16.1803 13.9287 16.1903 13.5578 15.8295 13.1876C15.1451 12.4859 14.4463 11.7981 13.7518 11.1064C13.6452 10.9974 13.5091 10.9217 13.3602 10.8889C13.0448 10.8214 12.8022 10.9597 12.5896 11.171C12.1925 11.564 11.798 11.9586 11.4061 12.3549C11.3016 12.4568 11.2085 12.5696 11.1283 12.6916C10.8057 13.201 10.8057 13.7607 10.8841 14.3256C10.9841 15.0592 11.2343 15.7506 11.5274 16.4262C12.2347 18.0565 13.2496 19.4852 14.4472 20.7841C15.99 22.4604 17.8068 23.7587 19.9049 24.6557C20.667 24.9814 21.4571 25.2009 22.228 25.2322Z" fill="white"/>
</svg>
