<svg width="16" height="17" viewBox="0 0 16 17" fill="none" xmlns="http://www.w3.org/2000/svg">
<path d="M11.8415 16.0533C11.4048 15.9837 10.9696 15.9091 10.5445 15.7799C9.66662 15.5137 8.84238 15.1243 8.04354 14.681C6.51168 13.8343 5.12341 12.7506 3.9302 11.47C2.37516 9.80209 1.10855 7.94921 0.364579 5.77184C0.127247 5.07709 -0.0182242 4.36697 0.00184084 3.62551C0.0187707 3.00851 0.188383 2.44575 0.597522 1.98394C1.07006 1.44116 1.57959 0.931735 2.12247 0.459308C2.847 -0.161454 3.63393 -0.155811 4.33401 0.493167C5.10934 1.21237 5.8646 1.95666 6.5697 2.74641C7.08512 3.32422 7.07383 4.14187 6.57127 4.7363C6.19034 5.18682 5.75926 5.58812 5.33256 5.996C5.23569 6.09006 5.22753 6.15997 5.28491 6.27817C5.68276 7.08735 6.23863 7.78305 6.84497 8.43924C7.58393 9.24027 8.3975 9.95289 9.33523 10.515C9.46941 10.5956 9.61457 10.6574 9.74625 10.7411C9.85316 10.8088 9.92213 10.7988 10.0143 10.7069C10.4093 10.3128 10.7868 9.90116 11.2057 9.53247C11.8791 8.94118 12.7259 8.94462 13.3755 9.5704C14.0891 10.2576 14.7893 10.9578 15.4761 11.671C16.1501 12.3729 16.1733 13.2197 15.53 13.9452C15.0741 14.4591 14.5838 14.9447 14.0878 15.4203C13.7216 15.7714 13.2655 15.9649 12.7604 16.0339C12.735 16.039 12.71 16.0457 12.6855 16.0539L11.8415 16.0533ZM12.228 15.2322C12.8407 15.235 13.3175 15.0582 13.6906 14.6481C14.0521 14.2503 14.4408 13.8797 14.8168 13.4963C14.8944 13.4189 14.9623 13.3323 15.019 13.2385C15.1811 12.9652 15.1792 12.6927 14.9986 12.4309C14.9225 12.3252 14.8371 12.2265 14.7434 12.1359C14.1383 11.5314 13.5191 10.9411 12.9275 10.3241C12.3945 9.76855 11.9913 9.92624 11.5919 10.3294C11.2069 10.7184 10.8196 11.1051 10.43 11.4894C10.1836 11.7327 9.9074 11.7863 9.60109 11.629C9.28162 11.4647 8.95807 11.3063 8.65646 11.1085C7.68461 10.4671 6.80328 9.69804 6.03609 8.82204C5.40185 8.10472 4.82561 7.34695 4.43716 6.46346C4.25438 6.0493 4.29357 5.82075 4.62119 5.51037C5.03347 5.1191 5.44355 4.72658 5.82949 4.30803C6.18031 3.92868 6.19034 3.55779 5.82949 3.18753C5.14508 2.48588 4.44625 1.79802 3.75181 1.10641C3.64523 0.997328 3.50915 0.921712 3.36023 0.888825C3.04483 0.821419 2.80217 0.95968 2.58961 1.17099C2.19249 1.56393 1.79798 1.95854 1.40608 2.35483C1.30162 2.45672 1.20849 2.56962 1.12831 2.69154C0.805697 3.20101 0.805697 3.76063 0.884076 4.32559C0.984088 5.05922 1.23427 5.75052 1.52741 6.42615C2.23471 8.05643 3.24956 9.48513 4.44719 10.784C5.99001 12.4604 7.80684 13.7587 9.90489 14.6556C10.667 14.9814 11.4571 15.2008 12.228 15.2322Z" fill="white"/>
</svg>
