<svg width="16" height="17" viewBox="0 0 16 17" fill="none" xmlns="http://www.w3.org/2000/svg">
<path d="M7.1613 11.2957V10.299C7.1613 9.49536 7.15763 8.69137 7.1613 7.8877C7.1653 7.31404 7.59463 6.90404 8.16129 6.92104C8.65763 6.93538 9.06129 7.36971 9.06596 7.91104C9.0724 8.51526 9.0724 9.11948 9.06596 9.7237C9.06596 9.86436 9.08996 9.90203 9.24229 9.86736C9.51129 9.8067 9.77362 9.85003 9.99895 10.0244C10.074 10.0824 10.1243 10.0964 10.2126 10.033C10.5739 9.7747 10.9749 9.7767 11.3413 10.0347C11.4193 10.0897 11.4653 10.088 11.5413 10.033C11.8456 9.81336 12.1746 9.77936 12.5129 9.94636C12.8639 10.1194 13.0499 10.4177 13.0549 10.799C13.0673 11.758 13.0776 12.7177 13.0523 13.676C13.0329 14.3977 12.6786 14.9923 12.2506 15.5553C11.9996 15.886 11.7146 16.0153 11.2919 16.003C10.223 15.9717 9.15229 15.9913 8.08229 15.9943C7.95484 15.9965 7.82948 15.9617 7.7213 15.8943C7.10297 15.5143 6.61097 15.0307 6.30964 14.3507C5.84964 13.306 5.35097 12.279 4.87464 11.2414C4.63764 10.7247 4.95997 10.148 5.49497 10.116C5.93997 10.0894 6.31397 10.2474 6.59697 10.589C6.78663 10.8184 6.95263 11.0674 7.1303 11.3074L7.1613 11.2957Z" fill="#4FB278"/>
<path d="M13.2157 4.79071C13.6203 4.79071 14.0247 4.78804 14.429 4.79071C15.277 4.79804 15.9877 5.50337 15.9957 6.34837C16.0007 7.01303 15.9933 7.67803 16 8.34269C16.0017 8.49369 15.9567 8.54869 15.8027 8.54269C15.5593 8.53169 15.315 8.53502 15.0713 8.54269C14.949 8.54602 14.9067 8.50069 14.9077 8.37869C14.912 7.85269 14.9097 7.32636 14.9077 6.80003C14.9077 6.55436 14.817 6.4207 14.6543 6.42003C14.4917 6.41936 14.3997 6.55336 14.3993 6.79836C14.3993 7.31903 14.3953 7.83969 14.4013 8.36036C14.4013 8.49569 14.3613 8.54469 14.222 8.54336C13.6237 8.53769 13.0253 8.53636 12.427 8.54336C12.273 8.54536 12.2427 8.48336 12.2443 8.34669C12.2497 7.78736 12.2423 7.22769 12.2477 6.66803C12.2533 6.04637 12.1523 5.45504 11.791 4.93037C11.7033 4.80304 11.791 4.79271 11.8863 4.79271C12.3294 4.79271 12.7726 4.79271 13.2157 4.79271V4.79071Z" fill="#4FB278"/>
<path d="M2.78368 4.79172C3.22134 4.79172 3.65901 4.78972 4.09667 4.79172C4.26934 4.79172 4.28234 4.81572 4.18967 4.95605C3.87934 5.42471 3.75634 5.94638 3.75401 6.50004C3.75034 7.11504 3.74868 7.73004 3.75601 8.34503C3.75801 8.49903 3.70668 8.54503 3.55601 8.54203C2.9689 8.53492 2.38168 8.53492 1.79435 8.54203C1.64002 8.54403 1.59435 8.49237 1.59735 8.34203C1.60568 7.91537 1.60035 7.48871 1.60035 7.06237C1.60035 6.96804 1.60035 6.87371 1.60035 6.77971C1.59802 6.54938 1.50502 6.41738 1.34569 6.41771C1.18635 6.41804 1.09269 6.55104 1.09202 6.78071C1.09202 7.30137 1.08702 7.82237 1.09469 8.34303C1.09669 8.49437 1.05002 8.54803 0.896688 8.54303C0.647689 8.53203 0.39669 8.5367 0.148691 8.54103C0.0416917 8.5427 0.00235869 8.50003 0.00302535 8.39403C0.00602534 7.67937 -0.00964122 6.96437 0.0103587 6.25004C0.0313586 5.49871 0.750355 4.80905 1.50368 4.79372C1.93035 4.78472 2.35701 4.79172 2.78368 4.79172Z" fill="#4FB278"/>
<path d="M9.8739 1.87873C9.8754 2.12446 9.82817 2.36804 9.73493 2.5954C9.6417 2.82275 9.50432 3.02937 9.33073 3.2033C9.15715 3.37722 8.9508 3.51501 8.72363 3.60869C8.49646 3.70236 8.25297 3.75007 8.00724 3.74906C6.94691 3.74906 6.12358 2.92406 6.12525 1.8614C6.12484 1.61573 6.17315 1.37241 6.26738 1.14553C6.36161 0.918651 6.4999 0.712706 6.67423 0.539611C6.84857 0.366515 7.05549 0.229706 7.28304 0.137096C7.51059 0.0444855 7.75424 -0.00208674 7.99991 7.28667e-05C8.247 -0.00211571 8.49206 0.0450173 8.72071 0.138712C8.94937 0.232407 9.15704 0.37078 9.33155 0.54573C9.50607 0.72068 9.64393 0.928689 9.73705 1.15758C9.83018 1.38647 9.8767 1.63164 9.8739 1.87873Z" fill="#4FB278"/>
<path d="M4.26207 7.20603C4.2844 6.85337 4.2184 6.41937 4.2954 5.99104C4.47474 4.99971 5.35673 4.26305 6.36206 4.25771C6.53373 4.25771 6.70573 4.26305 6.87739 4.25571C6.99039 4.25071 7.04872 4.29605 7.08472 4.40038C7.15372 4.60038 7.23172 4.79471 7.30706 4.99138C7.33409 5.06401 7.34021 5.14277 7.32472 5.21871C7.23939 5.72637 7.15706 6.23437 7.07339 6.74203C7.06348 6.82471 7.03248 6.90345 6.98339 6.9707C6.77381 7.23301 6.6646 7.56145 6.67539 7.89703C6.67939 8.05203 6.66973 8.20769 6.67739 8.36369C6.68439 8.50336 6.62539 8.55036 6.49106 8.54303C6.34166 8.53336 6.19179 8.53336 6.0424 8.54303C5.8914 8.55436 5.85473 8.49036 5.8564 8.35003C5.86306 7.8347 5.8594 7.31937 5.85873 6.80403C5.85873 6.55604 5.77206 6.42404 5.60973 6.4197C5.4474 6.41537 5.3504 6.55304 5.3504 6.81003C5.3504 7.32537 5.3454 7.8407 5.35307 8.35569C5.35507 8.50436 5.30373 8.54903 5.16073 8.54336C4.92273 8.53369 4.68407 8.53269 4.4464 8.54336C4.29607 8.55036 4.2564 8.49203 4.25974 8.35036C4.2674 7.99503 4.26207 7.63936 4.26207 7.20603Z" fill="#4FB278"/>
<path d="M11.7372 7.29206C11.7372 7.63572 11.7302 7.97972 11.7406 8.32305C11.7456 8.48472 11.7052 8.55638 11.5296 8.54338C11.3025 8.53122 11.075 8.53122 10.8479 8.54338C10.6992 8.54972 10.6436 8.50438 10.6479 8.34772C10.6566 7.83239 10.6516 7.31672 10.6509 6.80106C10.6509 6.55473 10.5612 6.42139 10.3986 6.41973C10.2359 6.41806 10.1429 6.55306 10.1426 6.79706C10.1426 7.31839 10.1386 7.83939 10.1446 8.36072C10.1446 8.49638 10.1036 8.54672 9.96456 8.54305C9.50223 8.53072 9.5459 8.60038 9.56457 8.15172C9.58457 7.57272 9.43623 7.07739 8.9699 6.70606C8.91824 6.66506 8.90324 6.60606 8.89324 6.54473C8.8179 6.09139 8.74246 5.63806 8.6669 5.18473C8.65672 5.13565 8.66006 5.08473 8.67657 5.0374C8.76057 4.8144 8.84324 4.59107 8.92824 4.3684C8.9479 4.31674 8.97157 4.26274 9.04057 4.2614C9.5669 4.25107 10.0966 4.21807 10.5816 4.49073C11.3186 4.90473 11.7179 5.52406 11.7362 6.37739C11.7429 6.68206 11.7372 6.98706 11.7372 7.29206Z" fill="#4FB278"/>
<path d="M3.07308 4.28106C2.23975 4.28106 1.59842 3.6294 1.60108 2.78607C1.60342 1.97274 2.25641 1.33008 3.07908 1.33074C3.27338 1.32904 3.46606 1.36615 3.64583 1.4399C3.8256 1.51364 3.98884 1.62254 4.12597 1.7602C4.26311 1.89786 4.37137 2.06151 4.44443 2.24157C4.51748 2.42162 4.55385 2.61444 4.5514 2.80874C4.55311 3.00307 4.51598 3.19578 4.44222 3.37557C4.36845 3.55537 4.25953 3.71862 4.12183 3.85576C3.98414 3.99289 3.82044 4.10115 3.64035 4.17419C3.46026 4.24722 3.2674 4.28356 3.07308 4.28106V4.28106Z" fill="#4FB278"/>
<path d="M11.4482 2.79472C11.4482 1.97139 12.1019 1.32806 12.9342 1.33073C13.7582 1.33273 14.4009 1.98439 14.3986 2.81672C14.3969 3.64005 13.7436 4.28338 12.9126 4.28105C12.0882 4.27871 11.4469 3.62772 11.4482 2.79472Z" fill="#4FB278"/>
<path d="M8.36011 6.33504C8.36511 6.39737 8.33811 6.43304 8.27611 6.43504C8.08778 6.43837 7.89978 6.43504 7.71411 6.47704C7.63211 6.49537 7.62244 6.43537 7.63278 6.37371C7.68578 6.05704 7.74011 5.74038 7.79378 5.42404C7.81444 5.30338 7.90911 5.32404 7.98878 5.32404C8.06844 5.32404 8.18044 5.28738 8.20377 5.41804C8.25711 5.72338 8.30844 6.02937 8.36011 6.33504Z" fill="#4FB278"/>
<path d="M7.99992 4.25805C8.01645 4.25688 8.03305 4.25688 8.04958 4.25805C8.16625 4.27471 8.36158 4.20205 8.38558 4.29571C8.42625 4.45371 8.31892 4.62505 8.23058 4.76838C8.15692 4.88738 7.77659 4.81371 7.72025 4.68238C7.53825 4.25805 7.53825 4.25805 7.99992 4.25805Z" fill="#4FB278"/>
</svg>
