<svg width="22" height="22" viewBox="0 0 22 22" fill="none" xmlns="http://www.w3.org/2000/svg">
<path d="M11.6235 3.63065C12.0635 4.28148 12.3202 5.06065 12.3202 5.90398C12.311 8.10398 10.5785 9.89148 8.39684 9.96482C8.30518 9.95565 8.19518 9.95565 8.09434 9.96482C5.91268 9.89148 4.18018 8.10398 4.18018 5.90398C4.18018 3.65815 5.99518 1.83398 8.25018 1.83398" stroke="#DB6255" stroke-width="1.5" stroke-linecap="round" stroke-linejoin="round"/>
<path d="M15.0425 3.66602C16.8208 3.66602 18.2508 5.10518 18.2508 6.87435C18.2508 8.60685 16.8758 10.0185 15.1617 10.0827C15.0883 10.0735 15.0058 10.0735 14.9233 10.0827" stroke="#DB6255" stroke-width="1.5" stroke-linecap="round" stroke-linejoin="round"/>
<path d="M3.81316 13.346C1.59483 14.831 1.59483 17.251 3.81316 18.7268C6.334 20.4135 10.4682 20.4135 12.989 18.7268C15.2073 17.2418 15.2073 14.8218 12.989 13.346C10.4773 11.6685 6.34316 11.6685 3.81316 13.346Z" stroke="#DB6255" stroke-width="1.5" stroke-linecap="round" stroke-linejoin="round"/>
<path d="M16.8115 18.334C17.4715 18.1965 18.0949 17.9307 18.6082 17.5365C20.0382 16.464 20.0382 14.6948 18.6082 13.6223C18.104 13.2373 17.4899 12.9807 16.839 12.834" stroke="#DB6255" stroke-width="1.5" stroke-linecap="round" stroke-linejoin="round"/>
</svg>
