<svg width="16" height="16" viewBox="0 0 16 16" fill="none" xmlns="http://www.w3.org/2000/svg">
<path d="M15.36 0H0.64C0.286 0 0 0.286 0 0.64V15.36C0 15.714 0.286 16 0.64 16H15.36C15.714 16 16 15.714 16 15.36V0.64C16 0.286 15.714 0 15.36 0ZM5.12 12.64C5.12 12.728 5.048 12.8 4.96 12.8H3.36C3.272 12.8 3.2 12.728 3.2 12.64V3.36C3.2 3.272 3.272 3.2 3.36 3.2H4.96C5.048 3.2 5.12 3.272 5.12 3.36V12.64ZM8.96 7.04C8.96 7.128 8.888 7.2 8.8 7.2H7.2C7.112 7.2 7.04 7.128 7.04 7.04V3.36C7.04 3.272 7.112 3.2 7.2 3.2H8.8C8.888 3.2 8.96 3.272 8.96 3.36V7.04ZM12.8 8.48C12.8 8.568 12.728 8.64 12.64 8.64H11.04C10.952 8.64 10.88 8.568 10.88 8.48V3.36C10.88 3.272 10.952 3.2 11.04 3.2H12.64C12.728 3.2 12.8 3.272 12.8 3.36V8.48Z" fill="#4FB278"/>
</svg>
