<svg width="16" height="17" viewBox="0 0 16 17" fill="none" xmlns="http://www.w3.org/2000/svg">
<path d="M7.15225 0C7.59036 0.062588 8.02503 0.132061 8.44907 0.261931C9.37916 0.542563 10.2346 1.02792 10.9526 1.68237C12.0823 2.70818 12.7895 3.97121 13.0418 5.47708C13.2608 6.7836 13.1006 8.04788 12.5508 9.25677C12.0551 10.3604 11.2627 11.3048 10.2619 11.9847C9.35973 12.6112 8.31144 12.995 7.21796 13.099C5.87983 13.2286 4.60804 12.9939 3.43733 12.3383C1.61195 11.3153 0.486935 9.7678 0.0854327 7.70521C0.0497576 7.52214 0.0281646 7.33625 0 7.15162V5.96558C0.0234705 5.8066 0.0434986 5.647 0.0710373 5.48866C0.334324 3.97403 1.03646 2.7014 2.17744 1.67079C2.88931 1.02557 3.73518 0.545934 4.65436 0.266312C5.08309 0.134251 5.52339 0.0635267 5.96558 0.000312768L7.15225 0ZM6.55985 11.2302C9.13629 11.1917 11.2136 9.19387 11.2227 6.56736C11.2302 3.98623 9.19105 1.89923 6.55985 1.89829C3.98122 1.89829 1.90706 3.9227 1.89861 6.55359C1.88859 9.13378 3.92834 11.1892 6.55985 11.2302Z" fill="#4FB278"/>
<path d="M15.9992 14.7576C15.9773 15.1857 15.7047 15.6339 15.1542 15.8792C14.6351 16.1111 14.1381 16.0357 13.6894 15.6811C13.6041 15.6129 13.5229 15.5398 13.4462 15.4621C12.5929 14.6094 11.7395 13.7554 10.886 12.9C10.7424 12.7564 10.7424 12.7551 10.9045 12.6384C11.5801 12.1567 12.1694 11.5642 12.6473 10.8859C12.728 10.7714 12.7793 10.7586 12.8826 10.8628C13.7663 11.7531 14.656 12.6372 15.541 13.5265C15.8302 13.8188 16.0082 14.1634 15.9992 14.7576Z" fill="#4FB278"/>
<path d="M8.44335 6.0917C8.44506 6.33938 8.39755 6.58494 8.30359 6.81412C8.20963 7.04329 8.07108 7.25153 7.896 7.42673C7.72091 7.60193 7.51278 7.74061 7.28366 7.83473C7.05455 7.92884 6.80902 7.97651 6.56134 7.97497C5.50392 7.97497 4.67275 7.1413 4.67432 6.08137C4.67569 5.58156 4.87555 5.10277 5.22993 4.75032C5.58432 4.39787 6.06419 4.20063 6.564 4.202C7.0638 4.20337 7.5426 4.40323 7.89504 4.75762C8.24749 5.11201 8.44472 5.59189 8.44335 6.0917V6.0917Z" fill="#4FB278"/>
<path d="M6.56215 10.3227C5.56074 10.3076 4.70141 9.96371 3.97445 9.28213C3.88338 9.19701 3.8549 9.12002 3.8984 8.99672C4.01167 8.66694 4.17461 8.35637 4.38158 8.07574C4.4692 7.95839 4.52084 7.98499 4.60846 8.07104C5.02405 8.47787 5.51599 8.74575 6.09399 8.83775C7.01936 8.98452 7.81892 8.72196 8.49863 8.08387C8.64352 7.94806 8.64289 7.94399 8.76807 8.09764C8.98555 8.36409 9.15316 8.66761 9.26283 8.99359C9.29725 9.09561 9.26533 9.15883 9.19555 9.22674C8.46045 9.94024 7.58328 10.3083 6.56215 10.3227Z" fill="#4FB278"/>
</svg>
