<svg width="16" height="15" viewBox="0 0 16 15" fill="none" xmlns="http://www.w3.org/2000/svg">
<path d="M8 0C3.82143 0 0.5 3.32143 0.5 7.5C0.5 11.6786 3.82143 15 8 15C12.1786 15 15.5 11.6786 15.5 7.5C15.5 3.32143 12.1786 0 8 0ZM8 13.9286C4.46429 13.9286 1.57143 11.0357 1.57143 7.5C1.57143 3.96429 4.46429 1.07143 8 1.07143C11.5357 1.07143 14.4286 3.96429 14.4286 7.5C14.4286 11.0357 11.5357 13.9286 8 13.9286Z" fill="white"/>
<path d="M10.7 11L8 8.3L5.3 11L4.5 10.2L7.2 7.5L4.5 4.8L5.3 4L8 6.7L10.7 4L11.5 4.8L8.8 7.5L11.5 10.2L10.7 11Z" fill="white"/>
</svg>
