<svg width="16" height="15" viewBox="0 0 16 15" fill="none" xmlns="http://www.w3.org/2000/svg">
<path d="M9.37931 14.1207C10.6888 14.1207 11.9688 13.7324 13.0576 13.0049C14.1463 12.2774 14.9949 11.2434 15.496 10.0337C15.9971 8.82388 16.1282 7.49268 15.8728 6.20839C15.6173 4.92411 14.9868 3.74441 14.0608 2.81849C13.1349 1.89257 11.9552 1.26201 10.6709 1.00655C9.38665 0.75109 8.05545 0.882202 6.84568 1.38331C5.63591 1.88441 4.6019 2.733 3.87441 3.82177C3.14692 4.91053 2.75862 6.19058 2.75862 7.50003V10.9207L0.772414 8.93451L0 9.70692L3.31034 13.0173L6.62069 9.70692L5.84828 8.93451L3.86207 10.9207V7.50003C3.86207 6.40882 4.18565 5.34212 4.79189 4.43481C5.39813 3.52751 6.25981 2.82035 7.26795 2.40276C8.2761 1.98517 9.38543 1.87591 10.4557 2.0888C11.5259 2.30168 12.509 2.82715 13.2806 3.59875C14.0522 4.37035 14.5777 5.35343 14.7905 6.42367C15.0034 7.49391 14.8942 8.60324 14.4766 9.61138C14.059 10.6195 13.3518 11.4812 12.4445 12.0874C11.5372 12.6937 10.4705 13.0173 9.37931 13.0173V14.1207Z" fill="#14984B"/>
</svg>
