<svg width="14" height="15" viewBox="0 0 14 15" fill="none" xmlns="http://www.w3.org/2000/svg">
<path d="M0.000244141 8.93497C0.0982439 8.49887 0.295612 8.12292 0.655036 7.84446C0.964091 7.60472 1.31202 7.4751 1.70402 7.47482C3.74303 7.47299 5.78205 7.47226 7.82106 7.47263C8.01131 7.47263 8.16269 7.53606 8.24701 7.71099C8.33132 7.88593 8.2919 8.04685 8.17884 8.19789C7.80929 8.69028 7.44302 9.18514 7.07128 9.67589C7.006 9.75738 6.97157 9.85944 6.9741 9.96396C6.97821 10.731 6.97739 11.498 6.97575 12.265C6.9741 13.1789 6.38063 13.8806 5.48221 14.0291C5.3829 14.0416 5.28274 14.0459 5.18273 14.042C4.04944 14.042 2.91587 14.0278 1.78285 14.0478C1.01638 14.0615 0.212394 13.5535 0.0196798 12.6456C0.0150262 12.6234 0.00681396 12.6019 0.000244141 12.5802V8.93497ZM6.99491 8.35827C6.94016 8.31982 6.89828 8.33081 6.85804 8.33081C5.16905 8.33081 3.48015 8.33081 1.79134 8.33081C1.6957 8.32687 1.59996 8.33508 1.50637 8.35525C1.0881 8.46509 0.831326 8.81578 0.829957 9.30103C0.827037 10.2737 0.827037 11.2464 0.829957 12.2191C0.832695 12.8189 1.20827 13.197 1.8053 13.1992C2.92509 13.2038 4.04497 13.2038 5.16494 13.1992C5.43266 13.1992 5.67547 13.1232 5.8712 12.9246C6.07924 12.7143 6.13454 12.4517 6.13508 12.1708C6.13673 11.3717 6.13919 10.5722 6.13317 9.7731C6.12737 9.5993 6.1839 9.42917 6.29249 9.29362C6.53119 8.98989 6.75839 8.676 6.99491 8.35909V8.35827Z" fill="white"/>
<path d="M12.5404 0C12.9954 0.101334 13.3838 0.311966 13.6628 0.697805C13.879 0.998237 13.9992 1.33162 13.9989 1.70593C13.9989 2.75167 14.0014 3.79742 13.9989 4.84289C13.9957 5.78016 13.2292 6.55513 12.2941 6.55733C10.255 6.56255 8.21532 6.55733 6.17676 6.56062C5.98733 6.56062 5.83431 6.50268 5.74699 6.3283C5.65966 6.15392 5.69908 5.98475 5.81542 5.82987C6.18251 5.34132 6.54604 4.84975 6.91504 4.36286C6.9831 4.27792 7.01916 4.17165 7.01688 4.0627C7.0125 3.30942 7.03084 2.5556 7.01031 1.80259C6.98786 0.977091 7.54547 0.185916 8.43377 0.0148294C8.44679 0.011062 8.45943 0.00609781 8.47154 0H12.5404ZM6.97992 5.69228C7.04945 5.69695 7.08942 5.70217 7.12856 5.70217C8.81755 5.70217 10.5065 5.70217 12.1955 5.70217C12.2911 5.70607 12.3867 5.69796 12.4802 5.678C12.8944 5.57145 13.1553 5.22323 13.1577 4.74705C13.1625 3.76501 13.1625 2.78307 13.1577 1.80122C13.1542 1.21518 12.7813 0.83786 12.198 0.83429C11.0691 0.827516 9.94008 0.827516 8.81098 0.83429C8.373 0.836212 8.05162 1.057 7.91612 1.42856C7.86411 1.57164 7.85371 1.72268 7.85343 1.87344C7.85206 2.67725 7.85015 3.48106 7.8548 4.28486C7.85923 4.4405 7.80894 4.59274 7.71273 4.71492C7.47047 5.02881 7.23642 5.34846 6.97992 5.69228Z" fill="white"/>
<path d="M2.89619 0C3.22605 0.0843078 3.53237 0.211181 3.78503 0.452296C4.45926 1.09628 4.5381 2.0849 3.96187 2.81731C3.88112 2.91974 3.87646 2.95819 3.99472 3.037C4.7716 3.55246 5.19755 4.27416 5.22355 5.21692C5.23176 5.50884 5.22711 5.80103 5.22355 6.09323C5.22109 6.38954 5.05137 6.56008 4.75463 6.56008C3.32159 6.56008 1.88882 6.56008 0.456876 6.56255C0.237882 6.56255 0.0969048 6.46231 0 6.27777V4.90605C0.00636456 4.88901 0.0116671 4.87158 0.0158771 4.85388C0.145631 4.0465 0.574311 3.44042 1.25702 3.00844C1.33915 2.95654 1.33449 2.92606 1.27619 2.8563C0.722953 2.18678 0.725417 1.27258 1.2781 0.604434C1.55185 0.274893 1.91209 0.0936448 2.32216 0.000274677L2.89619 0ZM2.58988 5.70272H4.1732C4.36728 5.70272 4.36756 5.70272 4.36783 5.50197C4.36783 5.40174 4.36783 5.30123 4.36619 5.19989C4.35831 4.83427 4.23671 4.48025 4.01839 4.18738C3.80007 3.8945 3.49595 3.6774 3.14858 3.56647C2.80146 3.45552 2.42879 3.45395 2.08075 3.56197C1.73271 3.66999 1.42603 3.88241 1.202 4.17062C0.888294 4.57871 0.821774 5.04721 0.826154 5.54152C0.827523 5.67086 0.870501 5.70629 0.992316 5.70464C1.52502 5.69997 2.05745 5.70245 2.58988 5.70272ZM1.72239 1.73339C1.72152 1.84998 1.74369 1.96558 1.78762 2.07352C1.83155 2.18146 1.89637 2.27959 1.97834 2.36225C2.0603 2.44491 2.15778 2.51045 2.26514 2.55509C2.3725 2.59973 2.48762 2.62259 2.60384 2.62233C2.72124 2.62259 2.83752 2.59942 2.94591 2.55417C3.0543 2.50891 3.15263 2.44247 3.23517 2.35871C3.31772 2.27496 3.38283 2.17557 3.42671 2.06632C3.47059 1.95708 3.49236 1.84017 3.49076 1.7224C3.48788 1.48712 3.39272 1.26244 3.2259 1.09703C3.05907 0.931628 2.83401 0.83881 2.59946 0.838684C2.4833 0.839617 2.36846 0.863505 2.2615 0.908981C2.15455 0.954457 2.05757 1.02063 1.97612 1.10372C1.89467 1.18681 1.83034 1.28518 1.7868 1.39323C1.74326 1.50127 1.72138 1.61686 1.72239 1.73339Z" fill="white"/>
<path d="M11.3726 14.0426C10.6625 14.0426 9.95251 14.0426 9.24261 14.0426C8.92644 14.0426 8.75891 13.8795 8.76356 13.562C8.77013 13.1155 8.72387 12.6665 8.8142 12.2238C8.96558 11.4807 9.37811 10.9177 10.0074 10.5113C10.1063 10.4473 10.1096 10.4138 10.0384 10.3218C9.61983 9.7808 9.5117 9.18158 9.78079 8.54639C10.046 7.92053 10.5355 7.55969 11.2094 7.48142C11.9097 7.39903 12.5927 7.77883 12.9214 8.40276C13.0832 8.70702 13.1506 9.05281 13.115 9.39577C13.0794 9.73873 12.9425 10.0632 12.7219 10.3276C12.6477 10.4163 12.6584 10.4454 12.7492 10.5058C13.539 11.0289 13.9846 11.7512 13.9959 12.717C13.9994 13.0092 13.9981 13.3014 13.9959 13.5936C13.994 13.8767 13.8281 14.0418 13.5431 14.0423C12.8204 14.0436 12.0969 14.0437 11.3726 14.0426ZM11.3844 13.2009C11.9302 13.2009 12.4761 13.1992 13.0219 13.2025C13.1183 13.2025 13.1604 13.1786 13.1604 13.0726C13.1604 12.8579 13.1604 12.6426 13.1237 12.4314C12.9942 11.6625 12.3819 11.0877 11.5864 10.9759C10.8774 10.8782 10.1408 11.2805 9.80323 11.9409C9.62311 12.2927 9.61435 12.667 9.61736 13.0479C9.61736 13.1682 9.65623 13.2047 9.77531 13.2034C10.3118 13.1981 10.8487 13.2012 11.3855 13.2009H11.3844ZM11.3789 8.33301C11.1444 8.33479 10.9202 8.42996 10.7556 8.59757C10.5911 8.76518 10.4996 8.9915 10.5014 9.22675C10.5032 9.46201 10.5981 9.68691 10.7651 9.852C10.9322 10.0171 11.1578 10.1088 11.3923 10.107C11.8837 10.1046 12.2683 9.71022 12.265 9.21206C12.2617 8.7139 11.8796 8.33136 11.38 8.33301H11.3789Z" fill="white"/>
<path d="M3.48889 9.45017C3.9162 9.45017 4.34351 9.44523 4.77082 9.45182C5.11601 9.45704 5.32269 9.77532 5.17624 10.0659C5.08289 10.2504 4.92001 10.3108 4.72347 10.3103C4.02816 10.3092 3.33267 10.3092 2.637 10.3103C2.49165 10.3103 2.34601 10.313 2.20066 10.3103C1.93567 10.3026 1.74351 10.1222 1.74159 9.88435C1.73968 9.63719 1.93321 9.45457 2.20695 9.45237C2.63481 9.44715 3.06212 9.45017 3.48889 9.45017Z" fill="white"/>
<path d="M2.82038 12.067C2.61562 12.067 2.40977 12.0686 2.20665 12.067C1.93455 12.0642 1.74704 11.8945 1.74129 11.6504C1.73691 11.4107 1.9184 11.2217 2.18639 11.211C2.47683 11.2003 2.76782 11.2074 3.05881 11.2074C3.19048 11.2074 3.3227 11.2028 3.45409 11.2094C3.72619 11.2234 3.91946 11.4167 3.90714 11.6575C3.89482 11.8984 3.69991 12.0645 3.43274 12.0664C3.22935 12.0681 3.02487 12.067 2.82038 12.067Z" fill="white"/>
<path d="M10.5257 1.30829C11.2018 1.3168 11.749 1.83171 11.8016 2.54407C11.8462 3.14823 11.4392 3.7436 10.769 3.8875C10.656 3.91167 10.5377 3.93831 10.4178 3.90892C10.2224 3.86059 10.0806 3.68923 10.0795 3.497C10.0804 3.40238 10.1124 3.31071 10.1705 3.23622C10.2287 3.16174 10.3098 3.1086 10.4011 3.08507C10.4544 3.07341 10.5083 3.06534 10.5626 3.0609C10.7975 3.03125 10.9582 2.83819 10.9508 2.59405C10.9496 2.48584 10.9078 2.38205 10.8338 2.3033C10.7598 2.22455 10.659 2.17659 10.5514 2.16894C10.296 2.15274 10.0989 2.30625 10.0639 2.546C10.0583 2.60042 10.0498 2.65451 10.0384 2.70802C9.98175 2.92387 9.78493 3.06338 9.58017 3.03399C9.47265 3.02075 9.37408 2.9673 9.30415 2.88431C9.23422 2.80133 9.19808 2.69492 9.20295 2.58636C9.21338 2.24223 9.35761 1.91586 9.60479 1.67702C9.85197 1.43818 10.1825 1.30584 10.5257 1.30829Z" fill="white"/>
<path d="M10.9319 4.81103C10.9334 4.86811 10.9234 4.92491 10.9026 4.97806C10.8819 5.03122 10.8507 5.07967 10.811 5.12055C10.7712 5.16144 10.7237 5.19393 10.6713 5.21611C10.6189 5.2383 10.5625 5.24973 10.5056 5.24973C10.4487 5.24973 10.3923 5.2383 10.3399 5.21611C10.2874 5.19393 10.24 5.16144 10.2002 5.12055C10.1605 5.07967 10.1293 5.03122 10.1085 4.97806C10.0878 4.92491 10.0778 4.86811 10.0792 4.81103C10.0809 4.59134 10.2788 4.39306 10.5 4.38812C10.7212 4.38318 10.9306 4.58475 10.9319 4.81103Z" fill="white"/>
</svg>
