<svg width="30" height="30" viewBox="0 0 30 30" fill="none" xmlns="http://www.w3.org/2000/svg">
<path d="M7.875 10.5026C7.25368 10.5026 6.75 11.0063 6.75 11.6276C6.75 12.2489 7.25368 12.7526 7.875 12.7526C8.49632 12.7526 9 12.2489 9 11.6276C9 11.0063 8.49632 10.5026 7.875 10.5026ZM6.75 19.875C6.75 19.2537 7.25368 18.75 7.875 18.75C8.49632 18.75 9 19.2537 9 19.875C9 20.4963 8.49632 21 7.875 21C7.25368 21 6.75 20.4963 6.75 19.875ZM0 4.125C0 1.84683 1.84683 0 4.125 0H22.875C25.1532 0 27 1.84683 27 4.125V13.5327C25.665 12.678 24.1082 12.1398 22.4349 12.0237C22.4813 11.9004 22.5066 11.7671 22.5066 11.6276C22.5066 11.0063 22.0029 10.5026 21.3816 10.5026H13.875C13.2537 10.5026 12.75 11.0063 12.75 11.6276C12.75 12.2489 13.2537 12.7526 13.875 12.7526H17.9872C14.4706 14.225 12 17.6989 12 21.75C12 23.6829 12.5625 25.4845 13.5327 27H4.125C1.84683 27 0 25.1532 0 22.875V4.125ZM4.5 11.6276C4.5 13.4915 6.01104 15.0026 7.875 15.0026C9.73896 15.0026 11.25 13.4915 11.25 11.6276C11.25 9.76361 9.73896 8.25257 7.875 8.25257C6.01104 8.25257 4.5 9.76361 4.5 11.6276ZM7.875 16.5C6.01104 16.5 4.5 18.0111 4.5 19.875C4.5 21.7389 6.01104 23.25 7.875 23.25C9.73896 23.25 11.25 21.7389 11.25 19.875C11.25 18.0111 9.73896 16.5 7.875 16.5ZM5.63232 6.75003L21.3816 6.75C22.0029 6.75 22.5066 6.24632 22.5066 5.625C22.5066 5.00367 22.0029 4.5 21.3816 4.5L5.63232 4.50003C5.011 4.50003 4.50732 5.00372 4.50732 5.62503C4.50732 6.24636 5.011 6.75003 5.63232 6.75003ZM30 21.75C30 17.1936 26.3064 13.5 21.75 13.5C17.1936 13.5 13.5 17.1936 13.5 21.75C13.5 26.3064 17.1936 30 21.75 30C26.3064 30 30 26.3064 30 21.75ZM22.5017 26.2552C22.5017 26.6695 22.166 27.0052 21.7517 27.0052C21.3375 27.0052 21.0017 26.6695 21.0017 26.2552L21.0009 22.5H17.2442C16.83 22.5 16.4942 22.1643 16.4942 21.75C16.4942 21.3359 16.83 21 17.2442 21H21.0007L21 17.249C21 16.8347 21.3359 16.499 21.75 16.499C22.1641 16.499 22.5 16.8347 22.5 17.249L22.5007 21H26.2545C26.6688 21 27.0045 21.3359 27.0045 21.75C27.0045 22.1643 26.6688 22.5 26.2545 22.5H22.5009L22.5017 26.2552Z" fill="#4FB278"/>
</svg>
