<svg width="17" height="13" viewBox="0 0 17 13" fill="none" xmlns="http://www.w3.org/2000/svg">
<path d="M15 1.5C15.1326 1.5 15.2598 1.55268 15.3536 1.64645C15.4473 1.74021 15.5 1.86739 15.5 2V11C15.5 11.1326 15.4473 11.2598 15.3536 11.3536C15.2598 11.4473 15.1326 11.5 15 11.5H2C1.86739 11.5 1.74021 11.4473 1.64645 11.3536C1.55268 11.2598 1.5 11.1326 1.5 11V2C1.5 1.86739 1.55268 1.74021 1.64645 1.64645C1.74021 1.55268 1.86739 1.5 2 1.5H15ZM2 0.5C1.60218 0.5 1.22064 0.658035 0.93934 0.93934C0.658035 1.22064 0.5 1.60218 0.5 2L0.5 11C0.5 11.3978 0.658035 11.7794 0.93934 12.0607C1.22064 12.342 1.60218 12.5 2 12.5H15C15.3978 12.5 15.7794 12.342 16.0607 12.0607C16.342 11.7794 16.5 11.3978 16.5 11V2C16.5 1.60218 16.342 1.22064 16.0607 0.93934C15.7794 0.658035 15.3978 0.5 15 0.5H2Z" fill="white"/>
<path d="M7.5 4.00089C7.5 3.86829 7.55268 3.74111 7.64645 3.64734C7.74021 3.55357 7.86739 3.50089 8 3.50089H13C13.1326 3.50089 13.2598 3.55357 13.3536 3.64734C13.4473 3.74111 13.5 3.86829 13.5 4.00089C13.5 4.1335 13.4473 4.26068 13.3536 4.35445C13.2598 4.44822 13.1326 4.50089 13 4.50089H8C7.86739 4.50089 7.74021 4.44822 7.64645 4.35445C7.55268 4.26068 7.5 4.1335 7.5 4.00089ZM6.004 3.14689C6.05056 3.19334 6.08751 3.24851 6.11271 3.30926C6.13792 3.37001 6.15089 3.43513 6.15089 3.50089C6.15089 3.56666 6.13792 3.63178 6.11271 3.69253C6.08751 3.75327 6.05056 3.80845 6.004 3.85489L4.504 5.35489C4.45755 5.40146 4.40238 5.4384 4.34163 5.46361C4.28089 5.48881 4.21577 5.50179 4.15 5.50179C4.08423 5.50179 4.01911 5.48881 3.95837 5.46361C3.89762 5.4384 3.84245 5.40146 3.796 5.35489L3.296 4.85489C3.24951 4.80841 3.21264 4.75322 3.18748 4.69248C3.16232 4.63174 3.14937 4.56664 3.14937 4.50089C3.14937 4.36812 3.20211 4.24078 3.296 4.14689C3.38989 4.05301 3.51722 4.00026 3.65 4.00026C3.78278 4.00026 3.91011 4.05301 4.004 4.14689L4.15 4.29389L5.296 3.14689C5.34245 3.10033 5.39762 3.06339 5.45837 3.03818C5.51911 3.01297 5.58423 3 5.65 3C5.71577 3 5.78089 3.01297 5.84163 3.03818C5.90238 3.06339 5.95755 3.10033 6.004 3.14689ZM7.5 8.00089C7.5 7.86829 7.55268 7.74111 7.64645 7.64734C7.74021 7.55357 7.86739 7.50089 8 7.50089H13C13.1326 7.50089 13.2598 7.55357 13.3536 7.64734C13.4473 7.74111 13.5 7.86829 13.5 8.00089C13.5 8.1335 13.4473 8.26068 13.3536 8.35445C13.2598 8.44822 13.1326 8.50089 13 8.50089H8C7.86739 8.50089 7.74021 8.44822 7.64645 8.35445C7.55268 8.26068 7.5 8.1335 7.5 8.00089ZM6.004 7.14689C6.05056 7.19334 6.08751 7.24852 6.11271 7.30926C6.13792 7.37001 6.15089 7.43513 6.15089 7.50089C6.15089 7.56666 6.13792 7.63178 6.11271 7.69253C6.08751 7.75327 6.05056 7.80845 6.004 7.85489L4.504 9.35489C4.45755 9.40146 4.40238 9.4384 4.34163 9.46361C4.28089 9.48881 4.21577 9.50179 4.15 9.50179C4.08423 9.50179 4.01911 9.48881 3.95837 9.46361C3.89762 9.4384 3.84245 9.40146 3.796 9.35489L3.296 8.85489C3.24951 8.80841 3.21264 8.75322 3.18748 8.69248C3.16232 8.63174 3.14937 8.56664 3.14937 8.50089C3.14937 8.43515 3.16232 8.37005 3.18748 8.30931C3.21264 8.24857 3.24951 8.19338 3.296 8.14689C3.34249 8.10041 3.39768 8.06353 3.45842 8.03837C3.51916 8.01321 3.58426 8.00026 3.65 8.00026C3.71574 8.00026 3.78084 8.01321 3.84158 8.03837C3.90232 8.06353 3.95751 8.10041 4.004 8.14689L4.15 8.29389L5.296 7.14689C5.34245 7.10033 5.39762 7.06339 5.45837 7.03818C5.51911 7.01297 5.58423 7 5.65 7C5.71577 7 5.78089 7.01297 5.84163 7.03818C5.90238 7.06339 5.95755 7.10033 6.004 7.14689Z" fill="white"/>
</svg>
