<svg width="16" height="17" viewBox="0 0 16 17" fill="none" xmlns="http://www.w3.org/2000/svg">
<path d="M8.00307 6.14639C7.43856 6.14639 6.90992 6.3654 6.50966 6.76565C6.11129 7.16591 5.8904 7.69455 5.8904 8.25906C5.8904 8.82358 6.11129 9.35222 6.50966 9.75247C6.90992 10.1508 7.43856 10.3717 8.00307 10.3717C8.56758 10.3717 9.09622 10.1508 9.49648 9.75247C9.89485 9.35222 10.1157 8.82358 10.1157 8.25906C10.1157 7.69455 9.89485 7.16591 9.49648 6.76565C9.30098 6.56865 9.06829 6.41246 8.81192 6.30616C8.55555 6.19985 8.28061 6.14554 8.00307 6.14639V6.14639ZM15.7873 10.5926L14.5525 9.53724C14.6111 9.17852 14.6413 8.81225 14.6413 8.44786C14.6413 8.08348 14.6111 7.71532 14.5525 7.35849L15.7873 6.30309C15.8806 6.22324 15.9473 6.11689 15.9787 5.99818C16.0101 5.87947 16.0045 5.75402 15.9629 5.63852L15.9459 5.58943C15.6061 4.63918 15.0969 3.75836 14.443 2.98965L14.4091 2.95C14.3297 2.85664 14.2238 2.78953 14.1055 2.75752C13.9872 2.7255 13.862 2.73007 13.7464 2.77064L12.2133 3.31627C11.6469 2.85183 11.0163 2.48555 10.3329 2.23067L10.0364 0.627761C10.0141 0.507008 9.95551 0.395919 9.8685 0.309251C9.7815 0.222582 9.67018 0.164439 9.54934 0.142544L9.49837 0.133104C8.51661 -0.044368 7.48198 -0.044368 6.50022 0.133104L6.44925 0.142544C6.32841 0.164439 6.21709 0.222582 6.13009 0.309251C6.04308 0.395919 5.9845 0.507008 5.96214 0.627761L5.66384 2.23823C4.98685 2.49514 4.3562 2.86052 3.7966 3.32005L2.25222 2.77064C2.13661 2.72975 2.01129 2.72501 1.89292 2.75705C1.77455 2.78909 1.66873 2.85638 1.58953 2.95L1.55555 2.98965C0.902849 3.75918 0.393804 4.63978 0.0526962 5.58943L0.0357042 5.63852C-0.0492559 5.87452 0.0206002 6.13884 0.211288 6.30309L1.46115 7.36981C1.40262 7.72476 1.3743 8.08726 1.3743 8.44598C1.3743 8.80847 1.40262 9.17097 1.46115 9.52214L0.215064 10.5889C0.121789 10.6687 0.0550305 10.7751 0.0236662 10.8938C-0.00769818 11.0125 -0.00218246 11.1379 0.0394801 11.2534L0.0564721 11.3025C0.3982 12.2522 0.902297 13.1301 1.55932 13.9023L1.59331 13.9419C1.6727 14.0353 1.77853 14.1024 1.89682 14.1344C2.01512 14.1665 2.14035 14.1619 2.25599 14.1213L3.80038 13.5719C4.363 14.0345 4.98982 14.4007 5.66761 14.6537L5.96592 16.2642C5.98828 16.3849 6.04686 16.496 6.13386 16.5827C6.22087 16.6694 6.33218 16.7275 6.45302 16.7494L6.504 16.7588C7.49542 16.9373 8.51073 16.9373 9.50214 16.7588L9.55312 16.7494C9.67396 16.7275 9.78527 16.6694 9.87228 16.5827C9.95929 16.496 10.0179 16.3849 10.0402 16.2642L10.3366 14.6613C11.0201 14.4045 11.6507 14.0401 12.2171 13.5757L13.7501 14.1213C13.8658 14.1622 13.9911 14.1669 14.1094 14.1349C14.2278 14.1029 14.3336 14.0356 14.4128 13.9419L14.4468 13.9023C15.1038 13.1263 15.6079 12.2522 15.9497 11.3025L15.9667 11.2534C16.0478 11.0193 15.978 10.7569 15.7873 10.5926ZM8.00307 11.5782C6.16982 11.5782 4.68396 10.0923 4.68396 8.25906C4.68396 6.42581 6.16982 4.93996 8.00307 4.93996C9.83632 4.93996 11.3222 6.42581 11.3222 8.25906C11.3222 10.0923 9.83632 11.5782 8.00307 11.5782Z" fill="#4FB278"/>
</svg>
