<svg width="16" height="17" viewBox="0 0 16 17" fill="none" xmlns="http://www.w3.org/2000/svg">
<path d="M2.94445 11.0023C3.67894 11.0002 4.38564 10.7213 4.92372 10.2214L10.1805 13.2251C10.0044 13.9134 10.082 14.642 10.3992 15.2777C10.7164 15.9134 11.252 16.4136 11.9078 16.6867C12.5637 16.9598 13.2959 16.9876 13.9706 16.7649C14.6452 16.5422 15.2171 16.084 15.5815 15.4742C15.9459 14.8643 16.0785 14.1436 15.955 13.444C15.8314 12.7444 15.4601 12.1127 14.9089 11.6645C14.3576 11.2163 13.6634 10.9816 12.9533 11.0035C12.2432 11.0253 11.5647 11.3021 11.0421 11.7833L5.7853 8.77954C5.84072 8.5696 5.87095 8.35211 5.87599 8.13462L11.0404 5.18293C11.5377 5.63536 12.1754 5.90301 12.8466 5.94098C13.5178 5.97894 14.1817 5.78492 14.7268 5.39145C15.272 4.99798 15.6652 4.42901 15.8405 3.77999C16.0159 3.13097 15.9627 2.44139 15.6899 1.82693C15.4171 1.21248 14.9413 0.710531 14.3423 0.405304C13.7433 0.100078 13.0575 0.0101411 12.4 0.150582C11.7426 0.291023 11.1534 0.653298 10.7314 1.17663C10.3094 1.69996 10.0802 2.35251 10.0822 3.0248C10.0856 3.26664 10.1184 3.50765 10.1805 3.74109L5.40741 6.46773C5.13062 6.03952 4.74718 5.69068 4.29477 5.45549C3.84236 5.2203 3.33656 5.10685 2.82704 5.12629C2.31752 5.14573 1.82183 5.29739 1.38865 5.56637C0.955484 5.83534 0.59974 6.21239 0.356376 6.66045C0.113012 7.10851 -0.0095999 7.61218 0.000586722 8.12196C0.0107733 8.63175 0.153408 9.13012 0.414477 9.5681C0.675547 10.0061 1.04607 10.3686 1.48964 10.6201C1.93321 10.8715 2.43457 11.0033 2.94445 11.0023V11.0023Z" fill="#14984B"/>
</svg>
