<svg width="16" height="17" viewBox="0 0 16 17" fill="none" xmlns="http://www.w3.org/2000/svg">
<path d="M12.7334 8.72997C13.751 8.72997 14.7684 8.72997 15.7856 8.72997C16.007 8.72997 16.0118 8.72997 15.9827 8.94628C15.6182 11.6661 14.2432 13.705 11.8576 15.063C10.8553 15.6323 9.76799 15.9405 8.61607 16.0198C6.38468 16.1701 4.41914 15.5123 2.73586 14.0481C1.24462 12.7496 0.34967 11.1045 0.0834747 9.14994C-0.244229 6.74427 0.393751 4.59626 1.98306 2.75613C3.2785 1.25361 4.92932 0.353197 6.89007 0.0846099C9.30189 -0.245827 11.4543 0.392152 13.2986 1.98898C14.6726 3.1778 15.5245 4.68442 15.8871 6.46543C15.9346 6.69848 15.9581 6.93666 15.9964 7.17176C16.0142 7.28008 15.9653 7.31801 15.8655 7.31528C15.8259 7.31528 15.7859 7.31528 15.7463 7.31528H9.7099C9.45293 7.31528 9.45224 7.31528 9.45224 7.06241C9.45224 6.4316 9.44746 5.8008 9.45224 5.17C9.45532 4.83922 9.32957 4.58908 9.021 4.46402C8.71243 4.33895 8.4377 4.42096 8.19986 4.6605C7.26585 5.59953 6.32989 6.5364 5.392 7.4711C5.04414 7.81999 5.04004 8.22082 5.3838 8.56458C6.3267 9.51113 7.27154 10.4559 8.21832 11.3988C8.58498 11.7637 9.14334 11.6957 9.37536 11.2665C9.4437 11.1414 9.45327 11.0078 9.45327 10.8701C9.45327 10.2334 9.45327 9.59679 9.45327 8.96029C9.45327 8.73612 9.45976 8.73031 9.68222 8.73031C10.6992 8.72963 11.7162 8.72952 12.7334 8.72997Z" fill="#4FB278"/>
</svg>
