<svg width="18" height="18" viewBox="0 0 18 18" fill="none" xmlns="http://www.w3.org/2000/svg">
<path fill-rule="evenodd" clip-rule="evenodd" d="M11.9917 2.3284C9.05013 1.15177 5.47212 1.81705 3.38352 4.11751L3.38339 4.11765C2.35754 5.24699 1.71414 6.67119 1.5448 8.18746C1.37546 9.70373 1.68882 11.2348 2.44025 12.5626C3.19168 13.8904 4.34288 14.9473 5.72993 15.5828C7.11698 16.2183 8.66917 16.4 10.1655 16.102L10.1657 16.102C13.1902 15.5005 15.4202 12.7764 16.0146 9.80448C16.0958 9.39831 16.4909 9.1349 16.8971 9.21613C17.3033 9.29737 17.5667 9.69248 17.4854 10.0987C16.7999 13.5264 14.2046 16.8282 10.4583 17.5732C8.6524 17.9328 6.77912 17.7135 5.10514 16.9465C3.43109 16.1795 2.0417 14.9039 1.13479 13.3014C0.227883 11.6988 -0.150308 9.85098 0.0540692 8.02097C0.258439 6.19103 1.03492 4.47221 2.27295 3.10922M2.27308 3.10909C4.82806 0.29507 9.0908 -0.447514 12.5488 0.935684C12.9334 1.08952 13.1204 1.526 12.9666 1.91058C12.8128 2.29517 12.3763 2.48223 11.9917 2.3284" fill="white"/>
<path fill-rule="evenodd" clip-rule="evenodd" d="M17.2587 3.00066C17.5631 3.28161 17.582 3.75611 17.3011 4.06047L9.62153 12.38C9.48308 12.53 9.28949 12.6171 9.08541 12.6211C8.88134 12.6252 8.68442 12.5459 8.54009 12.4016L5.34028 9.2018C5.04738 8.90891 5.04738 8.43403 5.34028 8.14114C5.63317 7.84825 6.10804 7.84825 6.40094 8.14114L9.04879 10.789L16.1989 3.04305C16.4798 2.73869 16.9543 2.71971 17.2587 3.00066Z" fill="white"/>
</svg>
