<svg width="18" height="19" viewBox="0 0 18 19" fill="none" xmlns="http://www.w3.org/2000/svg">
<path fill-rule="evenodd" clip-rule="evenodd" d="M11.9917 2.8284C9.05013 1.65177 5.47212 2.31705 3.38352 4.61751L3.38339 4.61765C2.35754 5.74699 1.71414 7.17119 1.5448 8.68746C1.37546 10.2037 1.68882 11.7348 2.44025 13.0626C3.19168 14.3904 4.34288 15.4473 5.72993 16.0828C7.11698 16.7183 8.66917 16.9 10.1655 16.602L10.1657 16.602C13.1902 16.0005 15.4202 13.2764 16.0146 10.3045C16.0958 9.89831 16.4909 9.6349 16.8971 9.71613C17.3033 9.79737 17.5667 10.1925 17.4854 10.5987C16.7999 14.0264 14.2046 17.3282 10.4583 18.0732C8.6524 18.4328 6.77912 18.2135 5.10514 17.4465C3.43109 16.6795 2.0417 15.4039 1.13479 13.8014C0.227883 12.1988 -0.150308 10.351 0.0540692 8.52097C0.258439 6.69103 1.03492 4.97221 2.27295 3.60922M2.27308 3.60909C4.82806 0.79507 9.0908 0.0524858 12.5488 1.43568C12.9334 1.58952 13.1204 2.026 12.9666 2.41058C12.8128 2.79517 12.3763 2.98223 11.9917 2.8284" fill="#14984B"/>
<path fill-rule="evenodd" clip-rule="evenodd" d="M17.2587 3.50066C17.5631 3.78161 17.582 4.25611 17.3011 4.56047L9.62153 12.88C9.48308 13.03 9.28949 13.1171 9.08541 13.1211C8.88134 13.1252 8.68442 13.0459 8.54009 12.9016L5.34028 9.7018C5.04738 9.40891 5.04738 8.93403 5.34028 8.64114C5.63317 8.34825 6.10804 8.34825 6.40094 8.64114L9.04879 11.289L16.1989 3.54305C16.4798 3.23869 16.9543 3.21971 17.2587 3.50066Z" fill="#14984B"/>
</svg>
