<svg width="16" height="19" viewBox="0 0 16 19" fill="none" xmlns="http://www.w3.org/2000/svg">
<path fill-rule="evenodd" clip-rule="evenodd" d="M0.428571 5.71429H15.5714C15.8071 5.71429 16 5.52143 16 5.28571V4C16 3.05357 15.2321 2.28571 14.2857 2.28571H12.5714V0.428571C12.5714 0.192857 12.3786 0 12.1429 0H10.7143C10.4786 0 10.2857 0.192857 10.2857 0.428571V2.28571H5.71429V0.428571C5.71429 0.192857 5.52143 0 5.28571 0H3.85714C3.62143 0 3.42857 0.192857 3.42857 0.428571V2.28571H1.71429C0.767857 2.28571 0 3.05357 0 4V5.28571C0 5.52143 0.192857 5.71429 0.428571 5.71429ZM15.5714 6.85714H0.428571C0.192857 6.85714 0 7.05 0 7.28571V16.5714C0 17.5179 0.767857 18.2857 1.71429 18.2857H14.2857C15.2321 18.2857 16 17.5179 16 16.5714V7.28571C16 7.05 15.8071 6.85714 15.5714 6.85714Z" fill="#4FB278"/>
</svg>
