<svg width="23" height="14" viewBox="0 0 23 14" fill="none" xmlns="http://www.w3.org/2000/svg">
<path fill-rule="evenodd" clip-rule="evenodd" d="M6.57143 12.6C6.57143 12.4143 6.65797 12.2363 6.81202 12.105C6.96607 11.9737 7.175 11.9 7.39286 11.9H22.1786C22.3964 11.9 22.6054 11.9737 22.7594 12.105C22.9135 12.2363 23 12.4143 23 12.6C23 12.7857 22.9135 12.9637 22.7594 13.095C22.6054 13.2263 22.3964 13.3 22.1786 13.3H7.39286C7.175 13.3 6.96607 13.2263 6.81202 13.095C6.65797 12.9637 6.57143 12.7857 6.57143 12.6ZM6.57143 7C6.57143 6.81435 6.65797 6.6363 6.81202 6.50503C6.96607 6.37375 7.175 6.3 7.39286 6.3H22.1786C22.3964 6.3 22.6054 6.37375 22.7594 6.50503C22.9135 6.6363 23 6.81435 23 7C23 7.18565 22.9135 7.3637 22.7594 7.49497C22.6054 7.62625 22.3964 7.7 22.1786 7.7H7.39286C7.175 7.7 6.96607 7.62625 6.81202 7.49497C6.65797 7.3637 6.57143 7.18565 6.57143 7ZM6.57143 1.4C6.57143 1.21435 6.65797 1.0363 6.81202 0.905025C6.96607 0.77375 7.175 0.7 7.39286 0.7H22.1786C22.3964 0.7 22.6054 0.77375 22.7594 0.905025C22.9135 1.0363 23 1.21435 23 1.4C23 1.58565 22.9135 1.7637 22.7594 1.89497C22.6054 2.02625 22.3964 2.1 22.1786 2.1H7.39286C7.175 2.1 6.96607 2.02625 6.81202 1.89497C6.65797 1.7637 6.57143 1.58565 6.57143 1.4ZM1.64286 2.8C2.07857 2.8 2.49644 2.6525 2.80453 2.38995C3.11263 2.1274 3.28571 1.7713 3.28571 1.4C3.28571 1.0287 3.11263 0.672601 2.80453 0.41005C2.49644 0.1475 2.07857 0 1.64286 0C1.20714 0 0.789277 0.1475 0.481182 0.41005C0.173086 0.672601 0 1.0287 0 1.4C0 1.7713 0.173086 2.1274 0.481182 2.38995C0.789277 2.6525 1.20714 2.8 1.64286 2.8ZM1.64286 8.4C2.07857 8.4 2.49644 8.2525 2.80453 7.98995C3.11263 7.7274 3.28571 7.3713 3.28571 7C3.28571 6.6287 3.11263 6.2726 2.80453 6.01005C2.49644 5.7475 2.07857 5.6 1.64286 5.6C1.20714 5.6 0.789277 5.7475 0.481182 6.01005C0.173086 6.2726 0 6.6287 0 7C0 7.3713 0.173086 7.7274 0.481182 7.98995C0.789277 8.2525 1.20714 8.4 1.64286 8.4ZM1.64286 14C2.07857 14 2.49644 13.8525 2.80453 13.5899C3.11263 13.3274 3.28571 12.9713 3.28571 12.6C3.28571 12.2287 3.11263 11.8726 2.80453 11.6101C2.49644 11.3475 2.07857 11.2 1.64286 11.2C1.20714 11.2 0.789277 11.3475 0.481182 11.6101C0.173086 11.8726 0 12.2287 0 12.6C0 12.9713 0.173086 13.3274 0.481182 13.5899C0.789277 13.8525 1.20714 14 1.64286 14Z" fill="#14323E"/>
</svg>
