<svg width="19" height="20" viewBox="0 0 19 20" fill="none" xmlns="http://www.w3.org/2000/svg">
<path fill-rule="evenodd" clip-rule="evenodd" d="M0.857178 4.85714C0.857178 4.38376 1.24093 4 1.71432 4H17.7143C18.1877 4 18.5715 4.38376 18.5715 4.85714C18.5715 5.33053 18.1877 5.71429 17.7143 5.71429H1.71432C1.24093 5.71429 0.857178 5.33053 0.857178 4.85714Z" fill="#FF4444"/>
<path fill-rule="evenodd" clip-rule="evenodd" d="M2.85718 4.85714C2.85718 4.38376 3.24093 4 3.71432 4H15.7143C16.1877 4 16.5715 4.38376 16.5715 4.85714V16.8571C16.5715 17.4381 16.3407 17.9952 15.9299 18.406C15.5191 18.8168 14.9619 19.0476 14.381 19.0476H5.04765C4.4667 19.0476 3.90955 18.8168 3.49875 18.406C3.08796 17.9952 2.85718 17.4381 2.85718 16.8571V4.85714ZM4.57146 5.71429V16.8571C4.57146 16.9834 4.62163 17.1046 4.71094 17.1939C4.80024 17.2832 4.92136 17.3333 5.04765 17.3333H14.381C14.5073 17.3333 14.6284 17.2832 14.7177 17.1939C14.807 17.1046 14.8572 16.9834 14.8572 16.8571V5.71429H4.57146Z" fill="#FF4444"/>
<path fill-rule="evenodd" clip-rule="evenodd" d="M9.7144 1.71429C9.05768 1.71429 8.42785 1.97517 7.96347 2.43955C7.4991 2.90392 7.23821 3.53375 7.23821 4.19048V4.85714C7.23821 5.33053 6.85446 5.71429 6.38107 5.71429C5.90768 5.71429 5.52393 5.33053 5.52393 4.85714V4.19048C5.52393 3.07909 5.96542 2.01323 6.75129 1.22736C7.53715 0.441495 8.60302 0 9.7144 0C10.8258 0 11.8916 0.441495 12.6775 1.22736C13.4634 2.01323 13.9049 3.07909 13.9049 4.19048V4.85714C13.9049 5.33053 13.5211 5.71429 13.0477 5.71429C12.5743 5.71429 12.1906 5.33053 12.1906 4.85714V4.19048C12.1906 3.53375 11.9297 2.90392 11.4653 2.43955C11.001 1.97517 10.3711 1.71429 9.7144 1.71429Z" fill="#FF4444"/>
<path fill-rule="evenodd" clip-rule="evenodd" d="M7.71432 6.6665C8.18771 6.6665 8.57146 7.05026 8.57146 7.52365V14.857C8.57146 15.3304 8.18771 15.7141 7.71432 15.7141C7.24093 15.7141 6.85718 15.3304 6.85718 14.857V7.52365C6.85718 7.05026 7.24093 6.6665 7.71432 6.6665Z" fill="#FF4444"/>
<path fill-rule="evenodd" clip-rule="evenodd" d="M11.7143 6.6665C12.1877 6.6665 12.5715 7.05026 12.5715 7.52365V14.857C12.5715 15.3304 12.1877 15.7141 11.7143 15.7141C11.2409 15.7141 10.8572 15.3304 10.8572 14.857V7.52365C10.8572 7.05026 11.2409 6.6665 11.7143 6.6665Z" fill="#FF4444"/>
</svg>
