<svg width="14" height="15" viewBox="0 0 14 15" fill="none" xmlns="http://www.w3.org/2000/svg">
<path d="M7 0C8.31146 0 9.38318 1.00478 9.4556 2.2708L9.45946 2.40741H13.4324C13.7459 2.40741 14 2.65614 14 2.96296C14 3.24422 13.7864 3.47666 13.5095 3.51344L13.4324 3.51852H12.8301L11.8613 13.1624C11.7609 14.1617 10.9339 14.9333 9.92305 14.9959L9.79024 15H4.20978C3.18393 15 2.31844 14.27 2.15587 13.2914L2.1387 13.1624L1.16919 3.51852H0.567568C0.280227 3.51852 0.0427643 3.30952 0.00518379 3.03835L0 2.96296C0 2.6817 0.213519 2.44927 0.490553 2.41248L0.567568 2.40741H4.54054C4.54054 1.07783 5.6417 0 7 0ZM11.6896 3.51852H2.30962L3.26838 13.0536C3.31284 13.496 3.67052 13.8402 4.11362 13.8841L4.20978 13.8889H9.79024C10.2444 13.8889 10.6293 13.5741 10.7174 13.1468L10.7316 13.0536L11.6896 3.51852ZM8.32432 5.55556C8.61167 5.55556 8.84914 5.76456 8.88675 6.03573L8.89189 6.11111V11.2963C8.89189 11.6031 8.63777 11.8519 8.32432 11.8519C8.03698 11.8519 7.79951 11.6428 7.7619 11.3717L7.75676 11.2963V6.11111C7.75676 5.80429 8.01088 5.55556 8.32432 5.55556ZM5.67568 5.55556C5.96302 5.55556 6.20049 5.76456 6.2381 6.03573L6.24324 6.11111V11.2963C6.24324 11.6031 5.98912 11.8519 5.67568 11.8519C5.38834 11.8519 5.15087 11.6428 5.11329 11.3717L5.10811 11.2963V6.11111C5.10811 5.80429 5.36222 5.55556 5.67568 5.55556ZM7 1.11111C6.30515 1.11111 5.73531 1.6349 5.68007 2.30109L5.67568 2.40741H8.32432C8.32432 1.69148 7.73141 1.11111 7 1.11111Z" fill="#14323E"/>
</svg>
