<svg width="16" height="16" viewBox="0 0 16 16" fill="none" xmlns="http://www.w3.org/2000/svg">
<path d="M2.85333 7.92C2.72 7.92 2.56 7.89333 2.45333 7.81333C2.10667 7.62667 1.68 7.14667 1.68 5.86667C1.68 3.2 0.24 1.65333 0.24 1.65333L0 1.38667L1.25333 0L1.46667 0.32C1.49333 0.346667 2.16 1.30667 3.2 1.04L3.33333 1.73333C2.29333 2 1.54667 1.44 1.17333 1.04L0.906667 1.38667C1.36 1.97333 2.32 3.52 2.32 5.86667C2.32 6.56 2.45333 7.04 2.72 7.17333C2.90667 7.28 3.2 7.17333 3.46667 6.90667C4.16 6.21333 4.66667 4.50667 4.66667 4.50667L5.25333 4.72C5.22667 4.8 4.69333 6.64 3.86667 7.44C3.52 7.76 3.17333 7.92 2.85333 7.92ZM13.1467 7.92C13.28 7.92 13.44 7.89333 13.5467 7.81333C13.8933 7.62667 14.32 7.14667 14.32 5.86667C14.32 3.17333 15.7333 1.65333 15.76 1.62667L16 1.38667L14.7467 0L14.5333 0.32C14.5067 0.346667 13.84 1.30667 12.8 1.04L12.6667 1.73333C13.7067 2 14.4533 1.44 14.8267 1.04L15.1467 1.38667C14.6933 1.97333 13.7333 3.52 13.7333 5.86667C13.7333 6.56 13.6 7.04 13.3333 7.17333C13.1467 7.28 12.8533 7.17333 12.5867 6.90667C11.8933 6.21333 11.3867 4.50667 11.3867 4.50667L10.8 4.72C10.8267 4.8 11.36 6.64 12.1867 7.44C12.48 7.76 12.8267 7.92 13.1467 7.92ZM7.2 6.10667H8.82667V12.64H7.2V6.10667Z" fill="#C7C7C7"/>
<path d="M7.5199 6.10645H8.4799V12.6398H7.5199V6.10645Z" fill="#DADADA"/>
<path d="M2.6134 0C3.06674 4.10667 5.30674 7.38667 8.00007 7.38667C10.6934 7.38667 12.9334 4.10667 13.3867 0H2.6134Z" fill="#C7C7C7"/>
<path d="M3.65332 0C4.02665 4.16 5.83999 7.46667 7.99999 7.46667C10.16 7.46667 11.9733 4.16 12.3467 0H3.65332Z" fill="#DADADA"/>
<path d="M12.16 13.8668H3.83997C3.83997 13.8668 5.70663 11.4668 7.99997 11.4668C10.2933 11.4668 12.16 13.8668 12.16 13.8668Z" fill="#C7C7C7"/>
<path d="M11.1734 13.8664H4.82678C4.82678 13.8664 6.24012 11.4131 8.00012 11.4131C9.76012 11.4131 11.1734 13.8664 11.1734 13.8664Z" fill="#DADADA"/>
<path d="M2.6134 14.4004H13.3867V16.0004H2.6134V14.4004Z" fill="#B5B5B5"/>
<path d="M3.83997 13.8662H12.1866V14.3995H3.83997V13.8662Z" fill="#B5B5B5"/>
<path d="M5.3335 14.7998H10.6668V15.5998H5.3335V14.7998Z" fill="#C7C7C7"/>
<path d="M2.6134 14.4004H3.14674V16.0004H2.6134V14.4004Z" fill="#B5B5B5"/>
<path d="M12.8535 14.4004H13.3868V16.0004H12.8535V14.4004Z" fill="#B5B5B5"/>
<path d="M5.59998 14.7998H10.4V15.5998H5.59998V14.7998Z" fill="#DADADA"/>
</svg>
