<svg width="16" height="17" viewBox="0 0 16 17" fill="none" xmlns="http://www.w3.org/2000/svg">
<path fill-rule="evenodd" clip-rule="evenodd" d="M0.8 6.8999C1.24183 6.8999 1.6 6.54173 1.6 6.0999V2.8999C1.6 2.68773 1.68429 2.48425 1.83431 2.33422C1.98434 2.18419 2.18783 2.0999 2.4 2.0999H13.6C13.8122 2.0999 14.0157 2.18419 14.1657 2.33422C14.3157 2.48425 14.4 2.68773 14.4 2.8999V6.0999C14.4 6.54173 14.7582 6.8999 15.2 6.8999C15.6418 6.8999 16 6.54173 16 6.0999V2.8999C16 2.26338 15.7471 1.65293 15.2971 1.20285C14.847 0.752759 14.2365 0.499902 13.6 0.499902H2.4C1.76348 0.499902 1.15303 0.752759 0.702944 1.20285C0.252856 1.65293 0 2.26338 0 2.8999V6.0999C0 6.54173 0.358172 6.8999 0.8 6.8999Z" fill="#14984B"/>
<path fill-rule="evenodd" clip-rule="evenodd" d="M3.43451 10.6656C3.74693 10.978 4.25346 10.978 4.56588 10.6656L8.0002 7.23127L11.4345 10.6656C11.7469 10.978 12.2535 10.978 12.5659 10.6656C12.8783 10.3532 12.8783 9.84664 12.5659 9.53422L8.56588 5.53422C8.25346 5.2218 7.74693 5.2218 7.43451 5.53422L3.43451 9.53422C3.12209 9.84664 3.12209 10.3532 3.43451 10.6656Z" fill="#14984B"/>
<path fill-rule="evenodd" clip-rule="evenodd" d="M8.0002 16.5C8.44202 16.5 8.8002 16.1418 8.8002 15.7V6.1C8.8002 5.65817 8.44202 5.3 8.0002 5.3C7.55837 5.3 7.2002 5.65817 7.2002 6.1V15.7C7.2002 16.1418 7.55837 16.5 8.0002 16.5Z" fill="#14984B"/>
</svg>
