<svg width="20" height="20" viewBox="0 0 20 20" fill="none" xmlns="http://www.w3.org/2000/svg">
<path d="M5.20711 0.29289C5.59763 0.68342 5.59763 1.31658 5.20711 1.70711L3.41421 3.5H11.25C15.6683 3.5 19.25 7.08172 19.25 11.5C19.25 15.9183 15.6683 19.5 11.25 19.5C6.83172 19.5 3.25 15.9183 3.25 11.5C3.25 10.9477 3.69772 10.5 4.25 10.5C4.80228 10.5 5.25 10.9477 5.25 11.5C5.25 14.8137 7.93629 17.5 11.25 17.5C14.5637 17.5 17.25 14.8137 17.25 11.5C17.25 8.1863 14.5637 5.5 11.25 5.5H3.41421L5.20711 7.29289C5.59763 7.68342 5.59763 8.3166 5.20711 8.7071C4.81658 9.0976 4.18342 9.0976 3.79289 8.7071L0.29289 5.20711C-0.09763 4.81658 -0.09763 4.18342 0.29289 3.79289L3.79289 0.29289C4.18342 -0.09763 4.81658 -0.09763 5.20711 0.29289Z" fill="#212121"/>
</svg>
