<svg width="27" height="21" viewBox="0 0 27 21" fill="none" xmlns="http://www.w3.org/2000/svg">
<path d="M15.8625 0C18.2856 0 20.25 2.0371 20.25 4.55V4.7922L25.4663 1.547C26.1411 1.1268 27 1.6309 27 2.4472V18.55C27 19.3662 26.1414 19.8703 25.4665 19.4503L20.25 16.205V16.45C20.25 18.9629 18.2856 21 15.8625 21H4.3875C1.96434 21 0 18.9629 0 16.45V4.55C0 2.0371 1.96434 0 4.3875 0H15.8625ZM15.8625 2.1H4.3875C3.08273 2.1 2.025 3.1969 2.025 4.55V16.45C2.025 17.8031 3.08273 18.9 4.3875 18.9H15.8625C17.1673 18.9 18.225 17.8031 18.225 16.45V4.55C18.225 3.1969 17.1673 2.1 15.8625 2.1ZM24.975 4.30234L20.25 7.2443V13.7556L24.975 16.6956V4.30234Z" fill="#4FB278"/>
</svg>
