<svg width="16" height="14" viewBox="0 0 16 14" fill="none" xmlns="http://www.w3.org/2000/svg">
<path d="M9.4 0.714844C10.8359 0.714844 12 1.93433 12 3.43865V3.58364L15.0911 1.64094C15.491 1.38939 16 1.69117 16 2.17983V11.8196C16 12.3082 15.4912 12.61 15.0913 12.3586L12 10.4158V10.5625C12 12.0668 10.8359 13.2863 9.4 13.2863H2.6C1.16406 13.2863 0 12.0668 0 10.5625V3.43865C0 1.93433 1.16406 0.714844 2.6 0.714844H9.4ZM9.4 1.97199H2.6C1.8268 1.97199 1.2 2.62863 1.2 3.43865V10.5625C1.2 11.3725 1.8268 12.0291 2.6 12.0291H9.4C10.1732 12.0291 10.8 11.3725 10.8 10.5625V3.43865C10.8 2.62863 10.1732 1.97199 9.4 1.97199ZM14.8 3.29039L12 5.05157V8.94947L14.8 10.7095V3.29039Z" fill="white"/>
</svg>
