<svg width="14" height="18" viewBox="0 0 14 18" fill="none" xmlns="http://www.w3.org/2000/svg">
<path d="M0.00134487 8.6326C0.00134487 6.45678 0.00134487 4.28072 0.00134487 2.10442C0.00134487 1.03562 0.69374 0.210909 1.74233 0.0223828C1.85378 0.00521225 1.96652 -0.00210367 2.07924 0.000519399C5.35972 0.000519399 8.6402 0.000519399 11.9207 0.000519399C13.0968 0.000519399 13.9986 0.906594 13.9989 2.08614C14.0004 6.45021 14.0004 10.8143 13.9989 15.1783C13.9989 16.3582 13.0947 17.2647 11.921 17.265C8.64055 17.2665 5.36008 17.2665 2.0796 17.265C0.905245 17.265 0.00384612 16.3615 0.00170249 15.1787C-0.000441147 12.9957 -0.000560587 10.8137 0.00134487 8.6326ZM1.12139 8.61325C1.12139 10.7946 1.12139 12.976 1.12139 15.1576C1.12139 15.7669 1.49403 16.1432 2.09746 16.1436C5.36508 16.1455 8.63281 16.1455 11.9007 16.1436C12.502 16.1436 12.8782 15.7636 12.8782 15.159C12.8796 10.8078 12.8796 6.45678 12.8782 2.10585C12.8829 2.00464 12.8733 1.90327 12.8496 1.80478C12.7224 1.36178 12.3816 1.12128 11.866 1.12093C8.62197 1.12093 5.37806 1.12093 2.13426 1.12093C2.08067 1.12093 2.02708 1.12344 1.97385 1.12415C1.80572 1.12746 1.64302 1.18446 1.50939 1.28687C1.22786 1.49368 1.11639 1.77539 1.11639 2.12234C1.12306 4.28621 1.12509 6.44985 1.12247 8.61325H1.12139Z" fill="white"/>
<path d="M6.89664 9.73937C5.90485 9.73937 4.91306 9.74153 3.92127 9.73937C3.71548 9.73937 3.5054 9.74332 3.33856 9.57665C3.14349 9.38239 3.14813 9.14835 3.19565 8.91C3.4193 7.76558 4.0824 6.94051 5.0699 6.36525C5.22996 6.27206 5.22138 6.21185 5.13207 6.07422C4.50469 5.10649 4.61509 3.96315 5.41788 3.22768C6.06705 2.63343 6.83054 2.47035 7.65048 2.78181C8.47042 3.09327 8.94488 3.72301 9.04384 4.60973C9.10672 5.16527 8.96203 5.67351 8.6337 6.12404C8.55474 6.23156 8.57082 6.2735 8.68264 6.33407C9.7959 6.93836 10.4133 7.89389 10.6298 9.12971C10.6741 9.3806 10.4419 9.68203 10.1728 9.71966C10.0493 9.73657 9.92482 9.74471 9.80019 9.74403C8.83341 9.74236 7.86556 9.74081 6.89664 9.73937ZM6.89413 8.62004C7.6537 8.62004 8.41362 8.61789 9.17318 8.62004C9.30465 8.62004 9.33324 8.59137 9.265 8.47202C8.74802 7.56845 7.97417 7.05699 6.93629 7.04122C5.87484 7.02474 5.07633 7.52759 4.53792 8.44299C4.43967 8.60965 4.44753 8.61789 4.65046 8.61825L6.89413 8.62004ZM6.8877 5.9097C7.02628 5.91131 7.1638 5.88543 7.29238 5.83355C7.42095 5.78167 7.53804 5.70481 7.63691 5.60739C7.73578 5.50997 7.81448 5.39391 7.8685 5.26587C7.92251 5.13784 7.95078 5.00036 7.95166 4.86134C7.95036 4.58375 7.8401 4.31785 7.64477 4.12122C7.44944 3.9246 7.18477 3.81308 6.90807 3.81082C6.76961 3.80826 6.632 3.83313 6.50314 3.88402C6.37428 3.93491 6.25669 4.0108 6.15712 4.10736C6.05755 4.20392 5.97796 4.31924 5.92289 4.44672C5.86783 4.57419 5.83839 4.71132 5.83625 4.85023C5.83554 4.98929 5.86227 5.12711 5.91489 5.25576C5.96751 5.38441 6.04499 5.50135 6.14286 5.59983C6.24073 5.69831 6.35705 5.77639 6.48513 5.82957C6.61321 5.88276 6.75052 5.90999 6.88913 5.9097H6.8877Z" fill="white"/>
<path d="M7.02034 11.3053C8.42823 11.3053 9.83625 11.3053 11.2444 11.3053C11.6016 11.3053 11.7981 11.4648 11.8485 11.7838C11.8736 11.9204 11.8445 12.0615 11.7674 12.1769C11.6903 12.2923 11.5714 12.373 11.4359 12.4017C11.3488 12.42 11.2601 12.4287 11.1711 12.4275C8.39084 12.4275 5.61042 12.4275 2.82989 12.4275C2.43689 12.4275 2.23789 12.2963 2.16572 11.9935C2.08248 11.6444 2.2972 11.3412 2.65375 11.3078C2.72521 11.301 2.79666 11.3035 2.86812 11.3035L7.02034 11.3053Z" fill="white"/>
<path d="M7.00388 14.5802C5.59551 14.5802 4.18738 14.5802 2.77949 14.5802C2.4315 14.5802 2.24358 14.4504 2.17212 14.1708C2.08423 13.8232 2.26716 13.5322 2.618 13.4701C2.70616 13.4579 2.79522 13.4533 2.88417 13.4565H11.1186C11.1779 13.4565 11.2376 13.4565 11.2972 13.4587C11.6441 13.4809 11.8631 13.7049 11.8564 14.0289C11.8496 14.359 11.6302 14.5769 11.2808 14.5791C10.378 14.5837 9.47477 14.5791 8.57195 14.5812L7.00388 14.5802Z" fill="white"/>
</svg>
