<svg width="22" height="22" viewBox="0 0 22 22" fill="none" xmlns="http://www.w3.org/2000/svg">
<path d="M9.85399 15.4551V17.3159C9.85399 18.8926 8.38732 20.1668 6.58149 20.1668C4.77565 20.1668 3.2998 18.8926 3.2998 17.3159V15.4551C3.2998 17.0317 4.76649 18.1501 6.58149 18.1501C8.38732 18.1501 9.85399 17.0226 9.85399 15.4551Z" stroke="#DB6255" stroke-width="1.5" stroke-linecap="round" stroke-linejoin="round"/>
<path d="M9.85432 12.9334C9.85432 13.3918 9.72599 13.8134 9.50599 14.1801C8.96515 15.0693 7.85598 15.6284 6.57264 15.6284C5.28931 15.6284 4.18013 15.0601 3.6393 14.1801C3.4193 13.8134 3.29102 13.3918 3.29102 12.9334C3.29102 12.1451 3.65766 11.4393 4.24433 10.9259C4.84016 10.4034 5.65597 10.0918 6.56347 10.0918C7.47097 10.0918 8.28683 10.4126 8.88266 10.9259C9.48766 11.4301 9.85432 12.1451 9.85432 12.9334Z" stroke="#DB6255" stroke-width="1.5" stroke-linecap="round" stroke-linejoin="round"/>
<path d="M9.85399 12.9348V15.4556C9.85399 17.0323 8.38732 18.1506 6.58149 18.1506C4.77565 18.1506 3.2998 17.0231 3.2998 15.4556V12.9348C3.2998 11.3581 4.76649 10.084 6.58149 10.084C7.48899 10.084 8.30485 10.4048 8.90068 10.9181C9.48735 11.4315 9.85399 12.1465 9.85399 12.9348Z" stroke="#DB6255" stroke-width="1.5" stroke-linecap="round" stroke-linejoin="round"/>
<path d="M20.1665 10.0561V11.9444C20.1665 12.4486 19.7632 12.8611 19.2499 12.8794H17.4532C16.4632 12.8794 15.5557 12.1552 15.4732 11.1652C15.4182 10.5877 15.6382 10.0469 16.0232 9.67107C16.3624 9.32274 16.8299 9.12109 17.3432 9.12109H19.2499C19.7632 9.13943 20.1665 9.55189 20.1665 10.0561Z" stroke="#DB6255" stroke-width="1.5" stroke-linecap="round" stroke-linejoin="round"/>
<path d="M14.6667 3.20898C14.905 3.20898 15.1342 3.21814 15.3542 3.25481C17.7192 3.52981 19.25 5.28065 19.25 7.79232V9.1215H17.3433C16.83 9.1215 16.3625 9.32314 16.0233 9.67147C15.6383 10.0473 15.4183 10.5881 15.4733 11.1656C15.5558 12.1556 16.4633 12.8798 17.4533 12.8798H19.25V14.209C19.25 16.959 17.4167 18.7923 14.6667 18.7923H12.375" stroke="#DB6255" stroke-width="1.5" stroke-linecap="round" stroke-linejoin="round"/>
<path d="M1.8335 9.62565V7.79232C1.8335 5.29898 3.33683 3.55732 5.67433 3.26398C5.91267 3.22732 6.16016 3.20898 6.41683 3.20898H11.0002" stroke="#DB6255" stroke-width="1.5" stroke-linecap="round" stroke-linejoin="round"/>
</svg>
