<svg width="126" height="43" viewBox="0 0 126 43" fill="none" xmlns="http://www.w3.org/2000/svg">
<g clip-path="url(#clip0_216_28753)">
<path d="M122.72 0.205078H81.7742C79.9627 0.205078 78.4941 1.67363 78.4941 3.48517V39.6871C78.4941 41.4987 79.9627 42.9672 81.7742 42.9672H122.72C124.531 42.9672 126 41.4987 126 39.6871V3.48517C126 1.67363 124.531 0.205078 122.72 0.205078Z" fill="#008CFE"/>
<path d="M4.02432 36.1442C2.63115 35.5067 1.28971 34.6112 0 33.4577L4.65176 27.3626C5.3381 27.843 5.94539 28.2101 6.47363 28.4638C7.00188 28.7175 7.47873 28.8444 7.90419 28.8444C9.01566 28.8444 9.57139 28.1034 9.57139 26.6215V7.52222H18.1553V27.2207C18.1553 29.2384 17.747 30.9881 16.9306 32.4697C16.1142 33.9513 14.9407 35.0938 13.4103 35.8973C11.8799 36.7001 10.072 37.1015 7.98666 37.1015C6.73793 37.1015 5.41715 36.7824 4.02432 36.1442Z" fill="#008CFE"/>
<path d="M27.0058 35.5367C25.181 34.5079 23.7436 33.1151 22.6936 31.3582C21.6436 29.6014 21.1188 27.6803 21.1191 25.595C21.1191 23.468 21.644 21.5193 22.6936 19.7488C23.7433 17.9783 25.1875 16.5753 27.0263 15.5396C28.8651 14.5019 30.9097 13.9839 33.1603 13.9856C35.4109 13.9873 37.4556 14.5053 39.2944 15.5396C41.1321 16.5759 42.5803 17.979 43.6388 19.7488C44.6974 21.5186 45.2258 23.4674 45.2241 25.595C45.2241 27.6947 44.6922 29.6226 43.6286 31.3787C42.5649 33.1349 41.1065 34.5241 39.2534 35.5464C37.401 36.5691 35.3495 37.0813 33.0989 37.083C30.8619 37.083 28.8309 36.5676 27.0058 35.5367ZM35.2188 29.0119C35.825 28.6812 36.3282 28.1898 36.673 27.5915C37.0213 26.9875 37.1952 26.3082 37.1949 25.5535C37.1949 24.7852 37.0201 24.0956 36.6704 23.4848C36.3285 22.8826 35.8259 22.3873 35.2188 22.0542C34.5853 21.7166 33.8785 21.54 33.1606 21.54C32.4427 21.54 31.7359 21.7166 31.1023 22.0542C30.4953 22.3873 29.9927 22.8826 29.6508 23.4848C29.3011 24.0956 29.1263 24.7852 29.1263 25.5535C29.1263 26.3085 29.3011 26.9878 29.6508 27.5915C29.9949 28.1894 30.4971 28.6808 31.1023 29.0119C31.7359 29.3495 32.4427 29.5261 33.1606 29.5261C33.8785 29.5261 34.5853 29.3495 35.2188 29.0119Z" fill="#008CFE"/>
<path d="M66.4038 15.5295C68.1156 16.5412 69.5343 17.9813 70.5204 19.708C71.5362 21.4648 72.044 23.379 72.0436 25.4507C72.0436 27.537 71.5359 29.4617 70.5204 31.2247C69.5371 32.9557 68.1225 34.4026 66.4141 35.4247C64.6914 36.461 62.8149 36.9792 60.7846 36.9792C58.5063 36.9792 56.6194 36.2655 55.1238 34.8382L54.2592 36.4439H48.3106V25.883H48.2896V5.40186H56.3177V15.2001C57.5811 14.3902 59.0701 13.9854 60.7846 13.9857C62.7638 13.9752 64.7078 14.5092 66.4038 15.5295ZM62.0809 28.9705C62.6772 28.6488 63.1726 28.1679 63.512 27.5814C63.8623 26.9842 64.0373 26.3013 64.037 25.5326C64.0366 24.764 63.8582 24.071 63.5017 23.4537C63.1569 22.8478 62.6511 22.3492 62.0405 22.0128C61.4099 21.6676 60.7008 21.4912 59.9819 21.5007C59.2684 21.4932 58.5654 21.6739 57.9439 22.0246C57.3387 22.3635 56.8376 22.8614 56.4949 23.4644C56.1449 24.0753 55.9701 24.7649 55.9704 25.5332C55.9704 26.2881 56.1487 26.9641 56.5052 27.5609C56.8559 28.1518 57.3613 28.6357 57.967 28.9603C58.5992 29.3004 59.3076 29.474 60.0255 29.4648C60.7921 29.4648 61.4772 29.3 62.0809 28.9705Z" fill="#008CFE"/>
<path d="M90.7206 36.0465H82.1367V7.12598H90.7206V36.0465Z" fill="white"/>
<path d="M95.8872 36.0465V7.12598H107.043C109.856 7.12598 112.433 7.75376 114.773 9.00932C117.113 10.2649 118.962 11.994 120.32 14.1968C121.679 16.3993 122.358 18.8522 122.358 21.5555C122.358 24.2726 121.682 26.7357 120.331 28.945C118.979 31.1542 117.14 32.8902 114.814 34.153C112.488 35.4164 109.919 36.0481 107.105 36.0481L95.8872 36.0465ZM107.414 27.8955C108.621 27.8955 109.698 27.6312 110.646 27.1026C111.58 26.5874 112.348 25.8162 112.859 24.8797C113.387 23.926 113.651 22.8179 113.651 21.5555C113.651 20.3341 113.387 19.2431 112.859 18.2826C112.35 17.3418 111.582 16.5666 110.646 16.0489C109.699 15.521 108.615 15.2569 107.394 15.2566H104.471V27.8955H107.414Z" fill="white"/>
</g>
<defs>
<clipPath id="clip0_216_28753">
<rect width="126" height="42.7621" fill="white" transform="translate(0 0.205078)"/>
</clipPath>
</defs>
</svg>
